SplineFontDB: 3.2
FontName: CTA-PTbr
FullName: CTA PTbr
FamilyName: CTA
Weight: Regular
Copyright: Copyright (c) 2023, Bruno Egami @ CTA-IFRS
UComments: "2023-2-6: Created with FontForge (http://fontforge.org)"
Version: 001.100
ItalicAngle: 0
UnderlinePosition: -100
UnderlineWidth: 50
Ascent: 800
Descent: 200
InvalidEm: 0
LayerCount: 3
Layer: 0 0 "Back" 1
Layer: 1 0 "Fore" 0
Layer: 2 0 "Back 2" 1
XUID: [1021 519 -234016935 9122]
FSType: 0
OS2Version: 0
OS2_WeightWidthSlopeOnly: 0
OS2_UseTypoMetrics: 1
CreationTime: 1675708938
ModificationTime: 1679076885
PfmFamily: 17
TTFWeight: 400
TTFWidth: 5
LineGap: 90
VLineGap: 0
OS2TypoAscent: 0
OS2TypoAOffset: 1
OS2TypoDescent: 0
OS2TypoDOffset: 1
OS2TypoLinegap: 90
OS2WinAscent: 0
OS2WinAOffset: 1
OS2WinDescent: 0
OS2WinDOffset: 1
HheadAscent: 0
HheadAOffset: 1
HheadDescent: 0
HheadDOffset: 1
OS2Vendor: 'PfEd'
MarkAttachClasses: 1
DEI: 91125
LangName: 1033
Encoding: iso8859-14
UnicodeInterp: none
NameList: AGL For New Fonts
DisplaySize: -48
AntiAlias: 1
FitToEm: 0
WinInfo: 0 39 14
BeginPrivate: 0
EndPrivate
Grid
4464 1300 m 0
 4464 -700 l 1024
  Named: "Fim 12"
3960 1300 m 0
 3960 -700 l 1024
  Named: "Inicio 11"
3700 1300 m 0
 3700 -700 l 1024
  Named: "Fim 10"
3194 1300 m 0
 3194 -700 l 1024
  Named: "Inicio 9"
2934 1300 m 0
 2934 -700 l 1024
  Named: "Fim 8"
2428 1300 m 0
 2428 -700 l 1024
  Named: "Inicio 7"
2168 1300 m 0
 2168 -700 l 1024
  Named: "Fim6"
1662 1297 m 0
 1662 -703 l 1024
  Named: "Inicio 5"
1401.66339111 1300 m 0
 1401.66339111 -700 l 1024
  Named: "Fim4"
1187.66339111 1300 m 0
 1187.66339111 -700 l 1024
  Named: "Inicio 4"
1111.26660156 1300 m 0
 1111.26660156 -700 l 1024
  Named: "Fim3"
896 1300 m 0
 896 -700 l 1024
  Named: "Inicio 3"
636 1300 m 0
 636 -700 l 1024
  Named: "Fim2"
420.330078125 1279 m 0
 420.330078125 -721 l 1024
  Named: "Inicio 2"
345.330078125 1300 m 0
 345.330078125 -700 l 1024
  Named: "Fim 1"
130.330078125 1300 m 0
 130.330078125 -700 l 1024
  Named: "Inicio 1"

StartChar: a
Encoding: 97 97 0
Width: 765
Flags: HW
HStem: 582.681 215.319<173.245 302.074>
VStem: 130 215.319<625.926 754.755>
LayerCount: 3
Fore
SplineSet
130 690.340820312 m 0
 130 749.799804688 178.200195312 798 237.659179688 798 c 0
 297.118164062 798 345.319335938 749.799804688 345.319335938 690.340820312 c 0
 345.319335938 630.881835938 297.118164062 582.680664062 237.659179688 582.680664062 c 0
 178.200195312 582.680664062 130 630.881835938 130 690.340820312 c 0
EndSplineSet
Validated: 1
EndChar

StartChar: b
Encoding: 98 98 1
Width: 765
Flags: HW
HStem: 292 215.32<173.245 302.074> 582.681 215.319<173.245 302.074>
VStem: 130 215.319<335.245 464.075 625.926 754.755>
LayerCount: 3
Fore
SplineSet
130 399.66015625 m 0
 130 459.119140625 178.200195312 507.3203125 237.659179688 507.3203125 c 0
 297.118164062 507.3203125 345.319335938 459.119140625 345.319335938 399.66015625 c 0
 345.319335938 340.201171875 297.118164062 292 237.659179688 292 c 0
 178.200195312 292 130 340.201171875 130 399.66015625 c 0
130 690.340820312 m 0
 130 749.799804688 178.200195312 798 237.659179688 798 c 0
 297.118164062 798 345.319335938 749.799804688 345.319335938 690.340820312 c 0
 345.319335938 630.881835938 297.118164062 582.680664062 237.659179688 582.680664062 c 0
 178.200195312 582.680664062 130 630.881835938 130 690.340820312 c 0
EndSplineSet
Validated: 1
EndChar

StartChar: c
Encoding: 99 99 2
Width: 766
Flags: HW
HStem: 582.681 215.319<173.245 302.074 463.926 592.756>
VStem: 130 215.319<625.926 754.755> 420.681 215.32<625.926 754.755>
LayerCount: 3
Fore
SplineSet
130 690.340820312 m 0
 130 749.799804688 178.200195312 798 237.659179688 798 c 0
 297.118164062 798 345.319335938 749.799804688 345.319335938 690.340820312 c 0
 345.319335938 630.881835938 297.118164062 582.680664062 237.659179688 582.680664062 c 0
 178.200195312 582.680664062 130 630.881835938 130 690.340820312 c 0
420.680664062 690.340820312 m 0
 420.680664062 749.799804688 468.881835938 798 528.340820312 798 c 0
 587.799804688 798 636.000976562 749.799804688 636.000976562 690.340820312 c 0
 636.000976562 630.881835938 587.799804688 582.680664062 528.340820312 582.680664062 c 0
 468.881835938 582.680664062 420.680664062 630.881835938 420.680664062 690.340820312 c 0
EndSplineSet
Validated: 1
EndChar

StartChar: d
Encoding: 100 100 3
Width: 766
Flags: HW
HStem: 292 215.32<463.926 592.756> 582.681 215.319<173.245 302.074 463.926 592.756>
VStem: 130 215.319<625.926 754.755> 420.681 215.32<335.245 464.075 625.926 754.755>
LayerCount: 3
Fore
SplineSet
130 690.340820312 m 0
 130 749.799804688 178.200195312 798 237.659179688 798 c 0
 297.118164062 798 345.319335938 749.799804688 345.319335938 690.340820312 c 0
 345.319335938 630.881835938 297.118164062 582.680664062 237.659179688 582.680664062 c 0
 178.200195312 582.680664062 130 630.881835938 130 690.340820312 c 0
420.680664062 399.66015625 m 0
 420.680664062 459.119140625 468.881835938 507.3203125 528.340820312 507.3203125 c 0
 587.799804688 507.3203125 636.000976562 459.119140625 636.000976562 399.66015625 c 0
 636.000976562 340.201171875 587.799804688 292 528.340820312 292 c 0
 468.881835938 292 420.680664062 340.201171875 420.680664062 399.66015625 c 0
420.680664062 690.340820312 m 0
 420.680664062 749.799804688 468.881835938 798 528.340820312 798 c 0
 587.799804688 798 636.000976562 749.799804688 636.000976562 690.340820312 c 0
 636.000976562 630.881835938 587.799804688 582.680664062 528.340820312 582.680664062 c 0
 468.881835938 582.680664062 420.680664062 630.881835938 420.680664062 690.340820312 c 0
EndSplineSet
Validated: 1
EndChar

StartChar: e
Encoding: 101 101 4
Width: 766
Flags: HW
HStem: 292 215.32<463.926 592.756> 582.681 215.319<173.245 302.074>
VStem: 130 215.319<625.926 754.755> 420.681 215.32<335.245 464.075>
LayerCount: 3
Fore
SplineSet
130 690.340820312 m 0
 130 749.799804688 178.200195312 798 237.659179688 798 c 0
 297.118164062 798 345.319335938 749.799804688 345.319335938 690.340820312 c 0
 345.319335938 630.881835938 297.118164062 582.680664062 237.659179688 582.680664062 c 0
 178.200195312 582.680664062 130 630.881835938 130 690.340820312 c 0
420.680664062 399.66015625 m 0
 420.680664062 459.119140625 468.881835938 507.3203125 528.340820312 507.3203125 c 0
 587.799804688 507.3203125 636.000976562 459.119140625 636.000976562 399.66015625 c 0
 636.000976562 340.201171875 587.799804688 292 528.340820312 292 c 0
 468.881835938 292 420.680664062 340.201171875 420.680664062 399.66015625 c 0
EndSplineSet
Validated: 1
EndChar

StartChar: f
Encoding: 102 102 5
Width: 766
Flags: HW
HStem: 292 215.32<173.245 302.074> 582.681 215.319<173.245 302.074 463.926 592.756>
VStem: 130 215.319<335.245 464.075 625.926 754.755> 420.681 215.32<625.926 754.755>
LayerCount: 3
Fore
SplineSet
130 399.66015625 m 0
 130 459.119140625 178.200195312 507.3203125 237.659179688 507.3203125 c 0
 297.118164062 507.3203125 345.319335938 459.119140625 345.319335938 399.66015625 c 0
 345.319335938 340.201171875 297.118164062 292 237.659179688 292 c 0
 178.200195312 292 130 340.201171875 130 399.66015625 c 0
130 690.340820312 m 0
 130 749.799804688 178.200195312 798 237.659179688 798 c 0
 297.118164062 798 345.319335938 749.799804688 345.319335938 690.340820312 c 0
 345.319335938 630.881835938 297.118164062 582.680664062 237.659179688 582.680664062 c 0
 178.200195312 582.680664062 130 630.881835938 130 690.340820312 c 0
420.680664062 690.340820312 m 0
 420.680664062 749.799804688 468.881835938 798 528.340820312 798 c 0
 587.799804688 798 636.000976562 749.799804688 636.000976562 690.340820312 c 0
 636.000976562 630.881835938 587.799804688 582.680664062 528.340820312 582.680664062 c 0
 468.881835938 582.680664062 420.680664062 630.881835938 420.680664062 690.340820312 c 0
EndSplineSet
Validated: 1
EndChar

StartChar: g
Encoding: 103 103 6
Width: 766
Flags: HW
HStem: 292 215.32<173.245 302.074 463.926 592.756> 582.681 215.319<173.245 302.074 463.926 592.756>
VStem: 130 215.319<335.245 464.075 625.926 754.755> 420.681 215.32<335.245 464.075 625.926 754.755>
LayerCount: 3
Fore
SplineSet
130 399.66015625 m 0
 130 459.119140625 178.200195312 507.3203125 237.659179688 507.3203125 c 0
 297.118164062 507.3203125 345.319335938 459.119140625 345.319335938 399.66015625 c 0
 345.319335938 340.201171875 297.118164062 292 237.659179688 292 c 0
 178.200195312 292 130 340.201171875 130 399.66015625 c 0
130 690.340820312 m 0
 130 749.799804688 178.200195312 798 237.659179688 798 c 0
 297.118164062 798 345.319335938 749.799804688 345.319335938 690.340820312 c 0
 345.319335938 630.881835938 297.118164062 582.680664062 237.659179688 582.680664062 c 0
 178.200195312 582.680664062 130 630.881835938 130 690.340820312 c 0
420.680664062 399.66015625 m 0
 420.680664062 459.119140625 468.881835938 507.3203125 528.340820312 507.3203125 c 0
 587.799804688 507.3203125 636.000976562 459.119140625 636.000976562 399.66015625 c 0
 636.000976562 340.201171875 587.799804688 292 528.340820312 292 c 0
 468.881835938 292 420.680664062 340.201171875 420.680664062 399.66015625 c 0
420.680664062 690.340820312 m 0
 420.680664062 749.799804688 468.881835938 798 528.340820312 798 c 0
 587.799804688 798 636.000976562 749.799804688 636.000976562 690.340820312 c 0
 636.000976562 630.881835938 587.799804688 582.680664062 528.340820312 582.680664062 c 0
 468.881835938 582.680664062 420.680664062 630.881835938 420.680664062 690.340820312 c 0
EndSplineSet
Validated: 1
EndChar

StartChar: h
Encoding: 104 104 7
Width: 766
Flags: HW
HStem: 292 215.32<173.245 302.074 463.926 592.756> 582.681 215.319<173.245 302.074>
VStem: 130 215.319<335.245 464.075 625.926 754.755> 420.681 215.32<335.245 464.075>
LayerCount: 3
Fore
SplineSet
130 399.66015625 m 0
 130 459.119140625 178.200195312 507.3203125 237.659179688 507.3203125 c 0
 297.118164062 507.3203125 345.319335938 459.119140625 345.319335938 399.66015625 c 0
 345.319335938 340.201171875 297.118164062 292 237.659179688 292 c 0
 178.200195312 292 130 340.201171875 130 399.66015625 c 0
130 690.340820312 m 0
 130 749.799804688 178.200195312 798 237.659179688 798 c 0
 297.118164062 798 345.319335938 749.799804688 345.319335938 690.340820312 c 0
 345.319335938 630.881835938 297.118164062 582.680664062 237.659179688 582.680664062 c 0
 178.200195312 582.680664062 130 630.881835938 130 690.340820312 c 0
420.680664062 399.66015625 m 0
 420.680664062 459.119140625 468.881835938 507.3203125 528.340820312 507.3203125 c 0
 587.799804688 507.3203125 636.000976562 459.119140625 636.000976562 399.66015625 c 0
 636.000976562 340.201171875 587.799804688 292 528.340820312 292 c 0
 468.881835938 292 420.680664062 340.201171875 420.680664062 399.66015625 c 0
EndSplineSet
Validated: 1
EndChar

StartChar: i
Encoding: 105 105 8
Width: 766
Flags: HW
HStem: 292 215.32<173.245 302.074> 582.681 215.319<463.926 592.756>
VStem: 130 215.319<335.245 464.075> 420.681 215.32<625.926 754.755>
LayerCount: 3
Fore
SplineSet
130 399.66015625 m 0
 130 459.119140625 178.200195312 507.3203125 237.659179688 507.3203125 c 0
 297.118164062 507.3203125 345.319335938 459.119140625 345.319335938 399.66015625 c 0
 345.319335938 340.201171875 297.118164062 292 237.659179688 292 c 0
 178.200195312 292 130 340.201171875 130 399.66015625 c 0
420.680664062 690.340820312 m 0
 420.680664062 749.799804688 468.881835938 798 528.340820312 798 c 0
 587.799804688 798 636.000976562 749.799804688 636.000976562 690.340820312 c 0
 636.000976562 630.881835938 587.799804688 582.680664062 528.340820312 582.680664062 c 0
 468.881835938 582.680664062 420.680664062 630.881835938 420.680664062 690.340820312 c 0
EndSplineSet
Validated: 1
EndChar

StartChar: j
Encoding: 106 106 9
Width: 766
Flags: HW
HStem: 292 215.32<173.245 302.074 463.926 592.756> 582.681 215.319<463.926 592.756>
VStem: 130 215.319<335.245 464.075> 420.681 215.32<335.245 464.075 625.926 754.755>
LayerCount: 3
Fore
SplineSet
130 399.66015625 m 0
 130 459.119140625 178.200195312 507.3203125 237.659179688 507.3203125 c 0
 297.118164062 507.3203125 345.319335938 459.119140625 345.319335938 399.66015625 c 0
 345.319335938 340.201171875 297.118164062 292 237.659179688 292 c 0
 178.200195312 292 130 340.201171875 130 399.66015625 c 0
420.680664062 399.66015625 m 0
 420.680664062 459.119140625 468.881835938 507.3203125 528.340820312 507.3203125 c 0
 587.799804688 507.3203125 636.000976562 459.119140625 636.000976562 399.66015625 c 0
 636.000976562 340.201171875 587.799804688 292 528.340820312 292 c 0
 468.881835938 292 420.680664062 340.201171875 420.680664062 399.66015625 c 0
420.680664062 690.340820312 m 0
 420.680664062 749.799804688 468.881835938 798 528.340820312 798 c 0
 587.799804688 798 636.000976562 749.799804688 636.000976562 690.340820312 c 0
 636.000976562 630.881835938 587.799804688 582.680664062 528.340820312 582.680664062 c 0
 468.881835938 582.680664062 420.680664062 630.881835938 420.680664062 690.340820312 c 0
EndSplineSet
Validated: 1
EndChar

StartChar: k
Encoding: 107 107 10
Width: 765
Flags: HW
HStem: 1.31934 215.319<173.245 302.074> 582.681 215.319<173.245 302.074>
VStem: 130 215.319<44.5645 173.393 625.926 754.755>
LayerCount: 3
Fore
SplineSet
130 108.978515625 m 0
 130 168.4375 178.200195312 216.638671875 237.659179688 216.638671875 c 0
 297.118164062 216.638671875 345.319335938 168.4375 345.319335938 108.978515625 c 0
 345.319335938 49.5205078125 297.118164062 1.3193359375 237.659179688 1.3193359375 c 0
 178.200195312 1.3193359375 130 49.5205078125 130 108.978515625 c 0
130 690.340820312 m 0
 130 749.799804688 178.200195312 798 237.659179688 798 c 0
 297.118164062 798 345.319335938 749.799804688 345.319335938 690.340820312 c 0
 345.319335938 630.881835938 297.118164062 582.680664062 237.659179688 582.680664062 c 0
 178.200195312 582.680664062 130 630.881835938 130 690.340820312 c 0
EndSplineSet
Validated: 1
EndChar

StartChar: l
Encoding: 108 108 11
Width: 765
Flags: HW
HStem: 1.31934 215.319<173.245 302.074> 292 215.32<173.245 302.074> 582.681 215.319<173.245 302.074>
VStem: 130 215.319<44.5645 173.393 335.245 464.075 625.926 754.755>
LayerCount: 3
Fore
SplineSet
130 108.978515625 m 0
 130 168.4375 178.200195312 216.638671875 237.659179688 216.638671875 c 0
 297.118164062 216.638671875 345.319335938 168.4375 345.319335938 108.978515625 c 0
 345.319335938 49.5205078125 297.118164062 1.3193359375 237.659179688 1.3193359375 c 0
 178.200195312 1.3193359375 130 49.5205078125 130 108.978515625 c 0
130 399.66015625 m 0
 130 459.119140625 178.200195312 507.3203125 237.659179688 507.3203125 c 0
 297.118164062 507.3203125 345.319335938 459.119140625 345.319335938 399.66015625 c 0
 345.319335938 340.201171875 297.118164062 292 237.659179688 292 c 0
 178.200195312 292 130 340.201171875 130 399.66015625 c 0
130 690.340820312 m 0
 130 749.799804688 178.200195312 798 237.659179688 798 c 0
 297.118164062 798 345.319335938 749.799804688 345.319335938 690.340820312 c 0
 345.319335938 630.881835938 297.118164062 582.680664062 237.659179688 582.680664062 c 0
 178.200195312 582.680664062 130 630.881835938 130 690.340820312 c 0
EndSplineSet
Validated: 1
EndChar

StartChar: m
Encoding: 109 109 12
Width: 766
Flags: HW
HStem: 1.31934 215.319<173.245 302.074> 582.681 215.319<173.245 302.074 463.926 592.756>
VStem: 130 215.319<44.5645 173.393 625.926 754.755> 420.681 215.32<625.926 754.755>
LayerCount: 3
Fore
SplineSet
130 108.978515625 m 0
 130 168.4375 178.200195312 216.638671875 237.659179688 216.638671875 c 0
 297.118164062 216.638671875 345.319335938 168.4375 345.319335938 108.978515625 c 0
 345.319335938 49.5205078125 297.118164062 1.3193359375 237.659179688 1.3193359375 c 0
 178.200195312 1.3193359375 130 49.5205078125 130 108.978515625 c 0
130 690.340820312 m 0
 130 749.799804688 178.200195312 798 237.659179688 798 c 0
 297.118164062 798 345.319335938 749.799804688 345.319335938 690.340820312 c 0
 345.319335938 630.881835938 297.118164062 582.680664062 237.659179688 582.680664062 c 0
 178.200195312 582.680664062 130 630.881835938 130 690.340820312 c 0
420.680664062 690.340820312 m 0
 420.680664062 749.799804688 468.881835938 798 528.340820312 798 c 0
 587.799804688 798 636.000976562 749.799804688 636.000976562 690.340820312 c 0
 636.000976562 630.881835938 587.799804688 582.680664062 528.340820312 582.680664062 c 0
 468.881835938 582.680664062 420.680664062 630.881835938 420.680664062 690.340820312 c 0
EndSplineSet
Validated: 1
EndChar

StartChar: n
Encoding: 110 110 13
Width: 766
Flags: HW
HStem: 1.31934 215.319<173.245 302.074> 292 215.32<463.926 592.756> 582.681 215.319<173.245 302.074 463.926 592.756>
VStem: 130 215.319<44.5645 173.393 625.926 754.755> 420.681 215.32<335.245 464.075 625.926 754.755>
LayerCount: 3
Fore
SplineSet
130 108.978515625 m 0
 130 168.4375 178.200195312 216.638671875 237.659179688 216.638671875 c 0
 297.118164062 216.638671875 345.319335938 168.4375 345.319335938 108.978515625 c 0
 345.319335938 49.5205078125 297.118164062 1.3193359375 237.659179688 1.3193359375 c 0
 178.200195312 1.3193359375 130 49.5205078125 130 108.978515625 c 0
130 690.340820312 m 0
 130 749.799804688 178.200195312 798 237.659179688 798 c 0
 297.118164062 798 345.319335938 749.799804688 345.319335938 690.340820312 c 0
 345.319335938 630.881835938 297.118164062 582.680664062 237.659179688 582.680664062 c 0
 178.200195312 582.680664062 130 630.881835938 130 690.340820312 c 0
420.680664062 399.66015625 m 0
 420.680664062 459.119140625 468.881835938 507.3203125 528.340820312 507.3203125 c 0
 587.799804688 507.3203125 636.000976562 459.119140625 636.000976562 399.66015625 c 0
 636.000976562 340.201171875 587.799804688 292 528.340820312 292 c 0
 468.881835938 292 420.680664062 340.201171875 420.680664062 399.66015625 c 0
420.680664062 690.340820312 m 0
 420.680664062 749.799804688 468.881835938 798 528.340820312 798 c 0
 587.799804688 798 636.000976562 749.799804688 636.000976562 690.340820312 c 0
 636.000976562 630.881835938 587.799804688 582.680664062 528.340820312 582.680664062 c 0
 468.881835938 582.680664062 420.680664062 630.881835938 420.680664062 690.340820312 c 0
EndSplineSet
Validated: 1
EndChar

StartChar: o
Encoding: 111 111 14
Width: 766
Flags: HW
HStem: 1.31934 215.319<173.245 302.074> 292 215.32<463.926 592.756> 582.681 215.319<173.245 302.074>
VStem: 130 215.319<44.5645 173.393 625.926 754.755> 420.681 215.32<335.245 464.075>
LayerCount: 3
Fore
SplineSet
130 108.978515625 m 0
 130 168.4375 178.200195312 216.638671875 237.659179688 216.638671875 c 0
 297.118164062 216.638671875 345.319335938 168.4375 345.319335938 108.978515625 c 0
 345.319335938 49.5205078125 297.118164062 1.3193359375 237.659179688 1.3193359375 c 0
 178.200195312 1.3193359375 130 49.5205078125 130 108.978515625 c 0
130 690.340820312 m 0
 130 749.799804688 178.200195312 798 237.659179688 798 c 0
 297.118164062 798 345.319335938 749.799804688 345.319335938 690.340820312 c 0
 345.319335938 630.881835938 297.118164062 582.680664062 237.659179688 582.680664062 c 0
 178.200195312 582.680664062 130 630.881835938 130 690.340820312 c 0
420.680664062 399.66015625 m 0
 420.680664062 459.119140625 468.881835938 507.3203125 528.340820312 507.3203125 c 0
 587.799804688 507.3203125 636.000976562 459.119140625 636.000976562 399.66015625 c 0
 636.000976562 340.201171875 587.799804688 292 528.340820312 292 c 0
 468.881835938 292 420.680664062 340.201171875 420.680664062 399.66015625 c 0
EndSplineSet
Validated: 1
EndChar

StartChar: p
Encoding: 112 112 15
Width: 766
Flags: HW
HStem: 1.31934 215.319<173.245 302.074> 292 215.32<173.245 302.074> 582.681 215.319<173.245 302.074 463.926 592.756>
VStem: 130 215.319<44.5645 173.393 335.245 464.075 625.926 754.755> 420.681 215.32<625.926 754.755>
LayerCount: 3
Fore
SplineSet
130 108.978515625 m 0
 130 168.4375 178.200195312 216.638671875 237.659179688 216.638671875 c 0
 297.118164062 216.638671875 345.319335938 168.4375 345.319335938 108.978515625 c 0
 345.319335938 49.5205078125 297.118164062 1.3193359375 237.659179688 1.3193359375 c 0
 178.200195312 1.3193359375 130 49.5205078125 130 108.978515625 c 0
130 399.66015625 m 0
 130 459.119140625 178.200195312 507.3203125 237.659179688 507.3203125 c 0
 297.118164062 507.3203125 345.319335938 459.119140625 345.319335938 399.66015625 c 0
 345.319335938 340.201171875 297.118164062 292 237.659179688 292 c 0
 178.200195312 292 130 340.201171875 130 399.66015625 c 0
130 690.340820312 m 0
 130 749.799804688 178.200195312 798 237.659179688 798 c 0
 297.118164062 798 345.319335938 749.799804688 345.319335938 690.340820312 c 0
 345.319335938 630.881835938 297.118164062 582.680664062 237.659179688 582.680664062 c 0
 178.200195312 582.680664062 130 630.881835938 130 690.340820312 c 0
420.680664062 690.340820312 m 0
 420.680664062 749.799804688 468.881835938 798 528.340820312 798 c 0
 587.799804688 798 636.000976562 749.799804688 636.000976562 690.340820312 c 0
 636.000976562 630.881835938 587.799804688 582.680664062 528.340820312 582.680664062 c 0
 468.881835938 582.680664062 420.680664062 630.881835938 420.680664062 690.340820312 c 0
EndSplineSet
Validated: 1
EndChar

StartChar: q
Encoding: 113 113 16
Width: 766
Flags: HW
HStem: 1.31934 215.319<173.245 302.074> 292 215.32<173.245 302.074 463.926 592.756> 582.681 215.319<173.245 302.074 463.926 592.756>
VStem: 130 215.319<44.5645 173.393 335.245 464.075 625.926 754.755> 420.681 215.32<335.245 464.075 625.926 754.755>
LayerCount: 3
Fore
SplineSet
130 108.978515625 m 0
 130 168.4375 178.200195312 216.638671875 237.659179688 216.638671875 c 0
 297.118164062 216.638671875 345.319335938 168.4375 345.319335938 108.978515625 c 0
 345.319335938 49.5205078125 297.118164062 1.3193359375 237.659179688 1.3193359375 c 0
 178.200195312 1.3193359375 130 49.5205078125 130 108.978515625 c 0
130 399.66015625 m 0
 130 459.119140625 178.200195312 507.3203125 237.659179688 507.3203125 c 0
 297.118164062 507.3203125 345.319335938 459.119140625 345.319335938 399.66015625 c 0
 345.319335938 340.201171875 297.118164062 292 237.659179688 292 c 0
 178.200195312 292 130 340.201171875 130 399.66015625 c 0
130 690.340820312 m 0
 130 749.799804688 178.200195312 798 237.659179688 798 c 0
 297.118164062 798 345.319335938 749.799804688 345.319335938 690.340820312 c 0
 345.319335938 630.881835938 297.118164062 582.680664062 237.659179688 582.680664062 c 0
 178.200195312 582.680664062 130 630.881835938 130 690.340820312 c 0
420.680664062 399.66015625 m 0
 420.680664062 459.119140625 468.881835938 507.3203125 528.340820312 507.3203125 c 0
 587.799804688 507.3203125 636.000976562 459.119140625 636.000976562 399.66015625 c 0
 636.000976562 340.201171875 587.799804688 292 528.340820312 292 c 0
 468.881835938 292 420.680664062 340.201171875 420.680664062 399.66015625 c 0
420.680664062 690.340820312 m 0
 420.680664062 749.799804688 468.881835938 798 528.340820312 798 c 0
 587.799804688 798 636.000976562 749.799804688 636.000976562 690.340820312 c 0
 636.000976562 630.881835938 587.799804688 582.680664062 528.340820312 582.680664062 c 0
 468.881835938 582.680664062 420.680664062 630.881835938 420.680664062 690.340820312 c 0
EndSplineSet
Validated: 1
EndChar

StartChar: r
Encoding: 114 114 17
Width: 766
Flags: HW
HStem: 1.31934 215.319<173.245 302.074> 292 215.32<173.245 302.074 463.926 592.756> 582.681 215.319<173.245 302.074>
VStem: 130 215.319<44.5645 173.393 335.245 464.075 625.926 754.755> 420.681 215.32<335.245 464.075>
LayerCount: 3
Fore
SplineSet
130 108.978515625 m 0
 130 168.4375 178.200195312 216.638671875 237.659179688 216.638671875 c 0
 297.118164062 216.638671875 345.319335938 168.4375 345.319335938 108.978515625 c 0
 345.319335938 49.5205078125 297.118164062 1.3193359375 237.659179688 1.3193359375 c 0
 178.200195312 1.3193359375 130 49.5205078125 130 108.978515625 c 0
130 399.66015625 m 0
 130 459.119140625 178.200195312 507.3203125 237.659179688 507.3203125 c 0
 297.118164062 507.3203125 345.319335938 459.119140625 345.319335938 399.66015625 c 0
 345.319335938 340.201171875 297.118164062 292 237.659179688 292 c 0
 178.200195312 292 130 340.201171875 130 399.66015625 c 0
130 690.340820312 m 0
 130 749.799804688 178.200195312 798 237.659179688 798 c 0
 297.118164062 798 345.319335938 749.799804688 345.319335938 690.340820312 c 0
 345.319335938 630.881835938 297.118164062 582.680664062 237.659179688 582.680664062 c 0
 178.200195312 582.680664062 130 630.881835938 130 690.340820312 c 0
420.680664062 399.66015625 m 0
 420.680664062 459.119140625 468.881835938 507.3203125 528.340820312 507.3203125 c 0
 587.799804688 507.3203125 636.000976562 459.119140625 636.000976562 399.66015625 c 0
 636.000976562 340.201171875 587.799804688 292 528.340820312 292 c 0
 468.881835938 292 420.680664062 340.201171875 420.680664062 399.66015625 c 0
EndSplineSet
Validated: 1
EndChar

StartChar: s
Encoding: 115 115 18
Width: 766
Flags: HW
HStem: 1.31934 215.319<173.245 302.074> 292 215.32<173.245 302.074> 582.681 215.319<463.926 592.756>
VStem: 130 215.319<44.5645 173.393 335.245 464.075> 420.681 215.32<625.926 754.755>
LayerCount: 3
Fore
SplineSet
130 108.978515625 m 0
 130 168.4375 178.200195312 216.638671875 237.659179688 216.638671875 c 0
 297.118164062 216.638671875 345.319335938 168.4375 345.319335938 108.978515625 c 0
 345.319335938 49.5205078125 297.118164062 1.3193359375 237.659179688 1.3193359375 c 0
 178.200195312 1.3193359375 130 49.5205078125 130 108.978515625 c 0
130 399.66015625 m 0
 130 459.119140625 178.200195312 507.3203125 237.659179688 507.3203125 c 0
 297.118164062 507.3203125 345.319335938 459.119140625 345.319335938 399.66015625 c 0
 345.319335938 340.201171875 297.118164062 292 237.659179688 292 c 0
 178.200195312 292 130 340.201171875 130 399.66015625 c 0
420.680664062 690.340820312 m 0
 420.680664062 749.799804688 468.881835938 798 528.340820312 798 c 0
 587.799804688 798 636.000976562 749.799804688 636.000976562 690.340820312 c 0
 636.000976562 630.881835938 587.799804688 582.680664062 528.340820312 582.680664062 c 0
 468.881835938 582.680664062 420.680664062 630.881835938 420.680664062 690.340820312 c 0
EndSplineSet
Validated: 1
EndChar

StartChar: t
Encoding: 116 116 19
Width: 766
Flags: HW
HStem: 1.31934 215.319<173.245 302.074> 292 215.32<173.245 302.074 463.926 592.756> 582.681 215.319<463.926 592.756>
VStem: 130 215.319<44.5645 173.393 335.245 464.075> 420.681 215.32<335.245 464.075 625.926 754.755>
LayerCount: 3
Fore
SplineSet
130 108.978515625 m 0
 130 168.4375 178.200195312 216.638671875 237.659179688 216.638671875 c 0
 297.118164062 216.638671875 345.319335938 168.4375 345.319335938 108.978515625 c 0
 345.319335938 49.5205078125 297.118164062 1.3193359375 237.659179688 1.3193359375 c 0
 178.200195312 1.3193359375 130 49.5205078125 130 108.978515625 c 0
130 399.66015625 m 0
 130 459.119140625 178.200195312 507.3203125 237.659179688 507.3203125 c 0
 297.118164062 507.3203125 345.319335938 459.119140625 345.319335938 399.66015625 c 0
 345.319335938 340.201171875 297.118164062 292 237.659179688 292 c 0
 178.200195312 292 130 340.201171875 130 399.66015625 c 0
420.680664062 399.66015625 m 0
 420.680664062 459.119140625 468.881835938 507.3203125 528.340820312 507.3203125 c 0
 587.799804688 507.3203125 636.000976562 459.119140625 636.000976562 399.66015625 c 0
 636.000976562 340.201171875 587.799804688 292 528.340820312 292 c 0
 468.881835938 292 420.680664062 340.201171875 420.680664062 399.66015625 c 0
420.680664062 690.340820312 m 0
 420.680664062 749.799804688 468.881835938 798 528.340820312 798 c 0
 587.799804688 798 636.000976562 749.799804688 636.000976562 690.340820312 c 0
 636.000976562 630.881835938 587.799804688 582.680664062 528.340820312 582.680664062 c 0
 468.881835938 582.680664062 420.680664062 630.881835938 420.680664062 690.340820312 c 0
EndSplineSet
Validated: 1
EndChar

StartChar: u
Encoding: 117 117 20
Width: 766
Flags: HW
HStem: 1.31934 215.319<173.245 302.074 463.926 592.756> 582.681 215.319<173.245 302.074>
VStem: 130 215.319<44.5645 173.393 625.926 754.755> 420.681 215.32<44.5645 173.393>
LayerCount: 3
Fore
SplineSet
130 108.978515625 m 0
 130 168.4375 178.200195312 216.638671875 237.659179688 216.638671875 c 0
 297.118164062 216.638671875 345.319335938 168.4375 345.319335938 108.978515625 c 0
 345.319335938 49.5205078125 297.118164062 1.3193359375 237.659179688 1.3193359375 c 0
 178.200195312 1.3193359375 130 49.5205078125 130 108.978515625 c 0
130 690.340820312 m 0
 130 749.799804688 178.200195312 798 237.659179688 798 c 0
 297.118164062 798 345.319335938 749.799804688 345.319335938 690.340820312 c 0
 345.319335938 630.881835938 297.118164062 582.680664062 237.659179688 582.680664062 c 0
 178.200195312 582.680664062 130 630.881835938 130 690.340820312 c 0
420.680664062 108.978515625 m 0
 420.680664062 168.4375 468.881835938 216.638671875 528.340820312 216.638671875 c 0
 587.799804688 216.638671875 636.000976562 168.4375 636.000976562 108.978515625 c 0
 636.000976562 49.5205078125 587.799804688 1.3193359375 528.340820312 1.3193359375 c 0
 468.881835938 1.3193359375 420.680664062 49.5205078125 420.680664062 108.978515625 c 0
EndSplineSet
Validated: 1
EndChar

StartChar: v
Encoding: 118 118 21
Width: 766
Flags: HW
HStem: 1.31934 215.319<173.245 302.074 463.926 592.756> 292 215.32<173.245 302.074> 582.681 215.319<173.245 302.074>
VStem: 130 215.319<44.5645 173.393 335.245 464.075 625.926 754.755> 420.681 215.32<44.5645 173.393>
LayerCount: 3
Fore
SplineSet
130 108.978515625 m 0
 130 168.4375 178.200195312 216.638671875 237.659179688 216.638671875 c 0
 297.118164062 216.638671875 345.319335938 168.4375 345.319335938 108.978515625 c 0
 345.319335938 49.5205078125 297.118164062 1.3193359375 237.659179688 1.3193359375 c 0
 178.200195312 1.3193359375 130 49.5205078125 130 108.978515625 c 0
130 399.66015625 m 0
 130 459.119140625 178.200195312 507.3203125 237.659179688 507.3203125 c 0
 297.118164062 507.3203125 345.319335938 459.119140625 345.319335938 399.66015625 c 0
 345.319335938 340.201171875 297.118164062 292 237.659179688 292 c 0
 178.200195312 292 130 340.201171875 130 399.66015625 c 0
130 690.340820312 m 0
 130 749.799804688 178.200195312 798 237.659179688 798 c 0
 297.118164062 798 345.319335938 749.799804688 345.319335938 690.340820312 c 0
 345.319335938 630.881835938 297.118164062 582.680664062 237.659179688 582.680664062 c 0
 178.200195312 582.680664062 130 630.881835938 130 690.340820312 c 0
420.680664062 108.978515625 m 0
 420.680664062 168.4375 468.881835938 216.638671875 528.340820312 216.638671875 c 0
 587.799804688 216.638671875 636.000976562 168.4375 636.000976562 108.978515625 c 0
 636.000976562 49.5205078125 587.799804688 1.3193359375 528.340820312 1.3193359375 c 0
 468.881835938 1.3193359375 420.680664062 49.5205078125 420.680664062 108.978515625 c 0
EndSplineSet
Validated: 1
EndChar

StartChar: w
Encoding: 119 119 22
Width: 766
Flags: HW
HStem: 1.31934 215.319<463.926 592.756> 292 215.32<173.245 302.074 463.926 592.756> 582.681 215.319<463.926 592.756>
VStem: 130 215.319<335.245 464.075> 420.681 215.32<44.5645 173.393 335.245 464.075 625.926 754.755>
LayerCount: 3
Fore
SplineSet
130 399.66015625 m 0
 130 459.119140625 178.200195312 507.3203125 237.659179688 507.3203125 c 0
 297.118164062 507.3203125 345.319335938 459.119140625 345.319335938 399.66015625 c 0
 345.319335938 340.201171875 297.118164062 292 237.659179688 292 c 0
 178.200195312 292 130 340.201171875 130 399.66015625 c 0
420.680664062 108.978515625 m 0
 420.680664062 168.4375 468.881835938 216.638671875 528.340820312 216.638671875 c 0
 587.799804688 216.638671875 636.000976562 168.4375 636.000976562 108.978515625 c 0
 636.000976562 49.5205078125 587.799804688 1.3193359375 528.340820312 1.3193359375 c 0
 468.881835938 1.3193359375 420.680664062 49.5205078125 420.680664062 108.978515625 c 0
420.680664062 399.66015625 m 0
 420.680664062 459.119140625 468.881835938 507.3203125 528.340820312 507.3203125 c 0
 587.799804688 507.3203125 636.000976562 459.119140625 636.000976562 399.66015625 c 0
 636.000976562 340.201171875 587.799804688 292 528.340820312 292 c 0
 468.881835938 292 420.680664062 340.201171875 420.680664062 399.66015625 c 0
420.680664062 690.340820312 m 0
 420.680664062 749.799804688 468.881835938 798 528.340820312 798 c 0
 587.799804688 798 636.000976562 749.799804688 636.000976562 690.340820312 c 0
 636.000976562 630.881835938 587.799804688 582.680664062 528.340820312 582.680664062 c 0
 468.881835938 582.680664062 420.680664062 630.881835938 420.680664062 690.340820312 c 0
EndSplineSet
Validated: 1
EndChar

StartChar: x
Encoding: 120 120 23
Width: 766
Flags: HW
HStem: 1.31934 215.319<173.245 302.074 463.926 592.756> 582.681 215.319<173.245 302.074 463.926 592.756>
VStem: 130 215.319<44.5645 173.393 625.926 754.755> 420.681 215.32<44.5645 173.393 625.926 754.755>
LayerCount: 3
Fore
SplineSet
130 108.978515625 m 0
 130 168.4375 178.200195312 216.638671875 237.659179688 216.638671875 c 0
 297.118164062 216.638671875 345.319335938 168.4375 345.319335938 108.978515625 c 0
 345.319335938 49.5205078125 297.118164062 1.3193359375 237.659179688 1.3193359375 c 0
 178.200195312 1.3193359375 130 49.5205078125 130 108.978515625 c 0
130 690.340820312 m 0
 130 749.799804688 178.200195312 798 237.659179688 798 c 0
 297.118164062 798 345.319335938 749.799804688 345.319335938 690.340820312 c 0
 345.319335938 630.881835938 297.118164062 582.680664062 237.659179688 582.680664062 c 0
 178.200195312 582.680664062 130 630.881835938 130 690.340820312 c 0
420.680664062 108.978515625 m 0
 420.680664062 168.4375 468.881835938 216.638671875 528.340820312 216.638671875 c 0
 587.799804688 216.638671875 636.000976562 168.4375 636.000976562 108.978515625 c 0
 636.000976562 49.5205078125 587.799804688 1.3193359375 528.340820312 1.3193359375 c 0
 468.881835938 1.3193359375 420.680664062 49.5205078125 420.680664062 108.978515625 c 0
420.680664062 690.340820312 m 0
 420.680664062 749.799804688 468.881835938 798 528.340820312 798 c 0
 587.799804688 798 636.000976562 749.799804688 636.000976562 690.340820312 c 0
 636.000976562 630.881835938 587.799804688 582.680664062 528.340820312 582.680664062 c 0
 468.881835938 582.680664062 420.680664062 630.881835938 420.680664062 690.340820312 c 0
EndSplineSet
Validated: 1
EndChar

StartChar: y
Encoding: 121 121 24
Width: 766
Flags: HW
HStem: 1.31934 215.319<173.245 302.074 463.926 592.756> 292 215.32<463.926 592.756> 582.681 215.319<173.245 302.074 463.926 592.756>
VStem: 130 215.319<44.5645 173.393 625.926 754.755> 420.681 215.32<44.5645 173.393 335.245 464.075 625.926 754.755>
LayerCount: 3
Fore
SplineSet
130 108.978515625 m 0
 130 168.4375 178.200195312 216.638671875 237.659179688 216.638671875 c 0
 297.118164062 216.638671875 345.319335938 168.4375 345.319335938 108.978515625 c 0
 345.319335938 49.5205078125 297.118164062 1.3193359375 237.659179688 1.3193359375 c 0
 178.200195312 1.3193359375 130 49.5205078125 130 108.978515625 c 0
130 690.340820312 m 0
 130 749.799804688 178.200195312 798 237.659179688 798 c 0
 297.118164062 798 345.319335938 749.799804688 345.319335938 690.340820312 c 0
 345.319335938 630.881835938 297.118164062 582.680664062 237.659179688 582.680664062 c 0
 178.200195312 582.680664062 130 630.881835938 130 690.340820312 c 0
420.680664062 108.978515625 m 0
 420.680664062 168.4375 468.881835938 216.638671875 528.340820312 216.638671875 c 0
 587.799804688 216.638671875 636.000976562 168.4375 636.000976562 108.978515625 c 0
 636.000976562 49.5205078125 587.799804688 1.3193359375 528.340820312 1.3193359375 c 0
 468.881835938 1.3193359375 420.680664062 49.5205078125 420.680664062 108.978515625 c 0
420.680664062 399.66015625 m 0
 420.680664062 459.119140625 468.881835938 507.3203125 528.340820312 507.3203125 c 0
 587.799804688 507.3203125 636.000976562 459.119140625 636.000976562 399.66015625 c 0
 636.000976562 340.201171875 587.799804688 292 528.340820312 292 c 0
 468.881835938 292 420.680664062 340.201171875 420.680664062 399.66015625 c 0
420.680664062 690.340820312 m 0
 420.680664062 749.799804688 468.881835938 798 528.340820312 798 c 0
 587.799804688 798 636.000976562 749.799804688 636.000976562 690.340820312 c 0
 636.000976562 630.881835938 587.799804688 582.680664062 528.340820312 582.680664062 c 0
 468.881835938 582.680664062 420.680664062 630.881835938 420.680664062 690.340820312 c 0
EndSplineSet
Validated: 1
EndChar

StartChar: z
Encoding: 122 122 25
Width: 766
Flags: HW
HStem: 1.31934 215.319<173.245 302.074 463.926 592.756> 292 215.32<463.926 592.756> 582.681 215.319<173.245 302.074>
VStem: 130 215.319<44.5645 173.393 625.926 754.755> 420.681 215.32<44.5645 173.393 335.245 464.075>
LayerCount: 3
Fore
SplineSet
130 108.978515625 m 0
 130 168.4375 178.200195312 216.638671875 237.659179688 216.638671875 c 0
 297.118164062 216.638671875 345.319335938 168.4375 345.319335938 108.978515625 c 0
 345.319335938 49.5205078125 297.118164062 1.3193359375 237.659179688 1.3193359375 c 0
 178.200195312 1.3193359375 130 49.5205078125 130 108.978515625 c 0
130 690.340820312 m 0
 130 749.799804688 178.200195312 798 237.659179688 798 c 0
 297.118164062 798 345.319335938 749.799804688 345.319335938 690.340820312 c 0
 345.319335938 630.881835938 297.118164062 582.680664062 237.659179688 582.680664062 c 0
 178.200195312 582.680664062 130 630.881835938 130 690.340820312 c 0
420.680664062 108.978515625 m 0
 420.680664062 168.4375 468.881835938 216.638671875 528.340820312 216.638671875 c 0
 587.799804688 216.638671875 636.000976562 168.4375 636.000976562 108.978515625 c 0
 636.000976562 49.5205078125 587.799804688 1.3193359375 528.340820312 1.3193359375 c 0
 468.881835938 1.3193359375 420.680664062 49.5205078125 420.680664062 108.978515625 c 0
420.680664062 399.66015625 m 0
 420.680664062 459.119140625 468.881835938 507.3203125 528.340820312 507.3203125 c 0
 587.799804688 507.3203125 636.000976562 459.119140625 636.000976562 399.66015625 c 0
 636.000976562 340.201171875 587.799804688 292 528.340820312 292 c 0
 468.881835938 292 420.680664062 340.201171875 420.680664062 399.66015625 c 0
EndSplineSet
Validated: 1
EndChar

StartChar: numbersign
Encoding: 35 35 26
Width: 1531
Flags: HW
HStem: 1.31934 215.319<173.245 302.074 463.926 592.756 873.347 1002.18> 292 215.32<463.926 592.756> 582.681 215.319<463.926 592.756 873.347 1002.18>
VStem: 130 215.319<44.5645 173.393> 420.681 215.32<44.5645 173.393 335.245 464.075 625.926 754.755> 830.103 215.319<44.5645 173.393 625.926 754.755>
LayerCount: 3
Fore
SplineSet
130 108.978515625 m 0
 130 168.4375 178.200195312 216.638671875 237.659179688 216.638671875 c 0
 297.118164062 216.638671875 345.319335938 168.4375 345.319335938 108.978515625 c 0
 345.319335938 49.5205078125 297.118164062 1.3193359375 237.659179688 1.3193359375 c 0
 178.200195312 1.3193359375 130 49.5205078125 130 108.978515625 c 0
420.680664062 108.978515625 m 0
 420.680664062 168.4375 468.881835938 216.638671875 528.340820312 216.638671875 c 0
 587.799804688 216.638671875 636.000976562 168.4375 636.000976562 108.978515625 c 0
 636.000976562 49.5205078125 587.799804688 1.3193359375 528.340820312 1.3193359375 c 0
 468.881835938 1.3193359375 420.680664062 49.5205078125 420.680664062 108.978515625 c 0
420.680664062 399.66015625 m 0
 420.680664062 459.119140625 468.881835938 507.3203125 528.340820312 507.3203125 c 0
 587.799804688 507.3203125 636.000976562 459.119140625 636.000976562 399.66015625 c 0
 636.000976562 340.201171875 587.799804688 292 528.340820312 292 c 0
 468.881835938 292 420.680664062 340.201171875 420.680664062 399.66015625 c 0
420.680664062 690.340820312 m 0
 420.680664062 749.799804688 468.881835938 798 528.340820312 798 c 0
 587.799804688 798 636.000976562 749.799804688 636.000976562 690.340820312 c 0
 636.000976562 630.881835938 587.799804688 582.680664062 528.340820312 582.680664062 c 0
 468.881835938 582.680664062 420.680664062 630.881835938 420.680664062 690.340820312 c 0
896 108.978515625 m 0
 896 168.4375 944.200195312 216.638671875 1003.65917969 216.638671875 c 0
 1063.11816406 216.638671875 1111.31933594 168.4375 1111.31933594 108.978515625 c 0
 1111.31933594 49.5205078125 1063.11816406 1.3193359375 1003.65917969 1.3193359375 c 0
 944.200195312 1.3193359375 896 49.5205078125 896 108.978515625 c 0
896 690.340820312 m 0
 896 749.799804688 944.200195312 798 1003.65917969 798 c 0
 1063.11816406 798 1111.31933594 749.799804688 1111.31933594 690.340820312 c 0
 1111.31933594 630.881835938 1063.11816406 582.680664062 1003.65917969 582.680664062 c 0
 944.200195312 582.680664062 896 630.881835938 896 690.340820312 c 0
EndSplineSet
Validated: 1
EndChar

StartChar: dollar
Encoding: 36 36 27
Width: 765
Flags: HW
HStem: 1.31934 215.319<463.245 592.075> 292 215.32<463.245 592.075>
VStem: 420 215.32<44.5645 173.393 335.245 464.075>
LayerCount: 3
Fore
SplineSet
420 108.978515625 m 0
 420 168.4375 468.201171875 216.638671875 527.66015625 216.638671875 c 0
 587.119140625 216.638671875 635.3203125 168.4375 635.3203125 108.978515625 c 0
 635.3203125 49.5205078125 587.119140625 1.3193359375 527.66015625 1.3193359375 c 0
 468.201171875 1.3193359375 420 49.5205078125 420 108.978515625 c 0
420 399.66015625 m 0
 420 459.119140625 468.201171875 507.3203125 527.66015625 507.3203125 c 0
 587.119140625 507.3203125 635.3203125 459.119140625 635.3203125 399.66015625 c 0
 635.3203125 340.201171875 587.119140625 292 527.66015625 292 c 0
 468.201171875 292 420 340.201171875 420 399.66015625 c 0
EndSplineSet
Validated: 1
EndChar

StartChar: percent
Encoding: 37 37 28
Width: 1465
Flags: HW
HStem: 1.31934 215.319<463.245 592.075 872.666 1001.5 1163.35 1292.18> 292 215.32<463.245 592.075 1163.35 1292.18> 582.681 215.319<463.245 592.075>
VStem: 420 215.32<44.5645 173.393 335.245 464.075 625.926 754.755> 829.422 215.319<44.5645 173.393> 1120.1 215.32<44.5645 173.393 335.245 464.075>
LayerCount: 3
Fore
SplineSet
420 108.978515625 m 0
 420 168.4375 468.201171875 216.638671875 527.66015625 216.638671875 c 0
 587.119140625 216.638671875 635.3203125 168.4375 635.3203125 108.978515625 c 0
 635.3203125 49.5205078125 587.119140625 1.3193359375 527.66015625 1.3193359375 c 0
 468.201171875 1.3193359375 420 49.5205078125 420 108.978515625 c 0
420 399.66015625 m 0
 420 459.119140625 468.201171875 507.3203125 527.66015625 507.3203125 c 0
 587.119140625 507.3203125 635.3203125 459.119140625 635.3203125 399.66015625 c 0
 635.3203125 340.201171875 587.119140625 292 527.66015625 292 c 0
 468.201171875 292 420 340.201171875 420 399.66015625 c 0
420 690.340820312 m 0
 420 749.799804688 468.201171875 798 527.66015625 798 c 0
 587.119140625 798 635.3203125 749.799804688 635.3203125 690.340820312 c 0
 635.3203125 630.881835938 587.119140625 582.680664062 527.66015625 582.680664062 c 0
 468.201171875 582.680664062 420 630.881835938 420 690.340820312 c 0
896 108.978515625 m 0
 896 168.4375 944.200195312 216.638671875 1003.65917969 216.638671875 c 0
 1063.11816406 216.638671875 1111.31933594 168.4375 1111.31933594 108.978515625 c 0
 1111.31933594 49.5205078125 1063.11816406 1.3193359375 1003.65917969 1.3193359375 c 0
 944.200195312 1.3193359375 896 49.5205078125 896 108.978515625 c 0
1186.68066406 108.978515625 m 0
 1186.68066406 168.4375 1234.88183594 216.638671875 1294.34082031 216.638671875 c 0
 1353.79980469 216.638671875 1402.00097656 168.4375 1402.00097656 108.978515625 c 0
 1402.00097656 49.5205078125 1353.79980469 1.3193359375 1294.34082031 1.3193359375 c 0
 1234.88183594 1.3193359375 1186.68066406 49.5205078125 1186.68066406 108.978515625 c 0
1186.68066406 399.66015625 m 0
 1186.68066406 459.119140625 1234.88183594 507.3203125 1294.34082031 507.3203125 c 0
 1353.79980469 507.3203125 1402.00097656 459.119140625 1402.00097656 399.66015625 c 0
 1402.00097656 340.201171875 1353.79980469 292 1294.34082031 292 c 0
 1234.88183594 292 1186.68066406 340.201171875 1186.68066406 399.66015625 c 0
EndSplineSet
Validated: 1
EndChar

StartChar: ampersand
Encoding: 38 38 29
Width: 766
Flags: HW
HStem: 1.31934 215.319<173.245 302.074 463.926 592.756> 292 215.32<173.245 302.074> 582.681 215.319<173.245 302.074 463.926 592.756>
VStem: 130 215.319<44.5645 173.393 335.245 464.075 625.926 754.755> 420.681 215.32<44.5645 173.393 625.926 754.755>
LayerCount: 3
Fore
SplineSet
130 108.978515625 m 0
 130 168.4375 178.200195312 216.638671875 237.659179688 216.638671875 c 0
 297.118164062 216.638671875 345.319335938 168.4375 345.319335938 108.978515625 c 0
 345.319335938 49.5205078125 297.118164062 1.3193359375 237.659179688 1.3193359375 c 0
 178.200195312 1.3193359375 130 49.5205078125 130 108.978515625 c 0
130 399.66015625 m 0
 130 459.119140625 178.200195312 507.3203125 237.659179688 507.3203125 c 0
 297.118164062 507.3203125 345.319335938 459.119140625 345.319335938 399.66015625 c 0
 345.319335938 340.201171875 297.118164062 292 237.659179688 292 c 0
 178.200195312 292 130 340.201171875 130 399.66015625 c 0
130 690.340820312 m 0
 130 749.799804688 178.200195312 798 237.659179688 798 c 0
 297.118164062 798 345.319335938 749.799804688 345.319335938 690.340820312 c 0
 345.319335938 630.881835938 297.118164062 582.680664062 237.659179688 582.680664062 c 0
 178.200195312 582.680664062 130 630.881835938 130 690.340820312 c 0
420.680664062 108.978515625 m 0
 420.680664062 168.4375 468.881835938 216.638671875 528.340820312 216.638671875 c 0
 587.799804688 216.638671875 636.000976562 168.4375 636.000976562 108.978515625 c 0
 636.000976562 49.5205078125 587.799804688 1.3193359375 528.340820312 1.3193359375 c 0
 468.881835938 1.3193359375 420.680664062 49.5205078125 420.680664062 108.978515625 c 0
420.680664062 690.340820312 m 0
 420.680664062 749.799804688 468.881835938 798 528.340820312 798 c 0
 587.799804688 798 636.000976562 749.799804688 636.000976562 690.340820312 c 0
 636.000976562 630.881835938 587.799804688 582.680664062 528.340820312 582.680664062 c 0
 468.881835938 582.680664062 420.680664062 630.881835938 420.680664062 690.340820312 c 0
EndSplineSet
Validated: 1
EndChar

StartChar: quotesingle
Encoding: 39 39 30
Width: 765
Flags: HW
HStem: 1.31934 215.319<463.245 592.075>
VStem: 420 215.32<44.5645 173.393>
LayerCount: 3
Fore
SplineSet
420 108.978515625 m 0
 420 168.4375 468.201171875 216.638671875 527.66015625 216.638671875 c 0
 587.119140625 216.638671875 635.3203125 168.4375 635.3203125 108.978515625 c 0
 635.3203125 49.5205078125 587.119140625 1.3193359375 527.66015625 1.3193359375 c 0
 468.201171875 1.3193359375 420 49.5205078125 420 108.978515625 c 0
EndSplineSet
Validated: 1
EndChar

StartChar: parenleft
Encoding: 40 40 31
Width: 1531
Flags: HW
HStem: 1.31934 215.319<463.926 592.756 873.347 1002.18> 292 215.32<173.245 302.074> 582.681 215.319<173.245 302.074>
VStem: 130 215.319<335.245 464.075 625.926 754.755> 420.681 215.32<44.5645 173.393> 830.103 215.319<44.5645 173.393>
LayerCount: 3
Fore
SplineSet
130 399.66015625 m 0
 130 459.119140625 178.200195312 507.3203125 237.659179688 507.3203125 c 0
 297.118164062 507.3203125 345.319335938 459.119140625 345.319335938 399.66015625 c 0
 345.319335938 340.201171875 297.118164062 292 237.659179688 292 c 0
 178.200195312 292 130 340.201171875 130 399.66015625 c 0
130 690.340820312 m 0
 130 749.799804688 178.200195312 798 237.659179688 798 c 0
 297.118164062 798 345.319335938 749.799804688 345.319335938 690.340820312 c 0
 345.319335938 630.881835938 297.118164062 582.680664062 237.659179688 582.680664062 c 0
 178.200195312 582.680664062 130 630.881835938 130 690.340820312 c 0
420.680664062 108.978515625 m 0
 420.680664062 168.4375 468.881835938 216.638671875 528.340820312 216.638671875 c 0
 587.799804688 216.638671875 636.000976562 168.4375 636.000976562 108.978515625 c 0
 636.000976562 49.5205078125 587.799804688 1.3193359375 528.340820312 1.3193359375 c 0
 468.881835938 1.3193359375 420.680664062 49.5205078125 420.680664062 108.978515625 c 0
896 108.978515625 m 0
 896 168.4375 944.200195312 216.638671875 1003.65917969 216.638671875 c 0
 1063.11816406 216.638671875 1111.31933594 168.4375 1111.31933594 108.978515625 c 0
 1111.31933594 49.5205078125 1063.11816406 1.3193359375 1003.65917969 1.3193359375 c 0
 944.200195312 1.3193359375 896 49.5205078125 896 108.978515625 c 0
EndSplineSet
Validated: 1
EndChar

StartChar: parenright
Encoding: 41 41 32
Width: 1532
Flags: HW
HStem: 1.31934 215.319<463.245 592.075 872.666 1001.5> 292 215.32<1163.35 1292.18> 582.681 215.319<1163.35 1292.18>
VStem: 420 215.32<44.5645 173.393> 829.422 215.319<44.5645 173.393> 1120.1 215.32<335.245 464.075 625.926 754.755>
LayerCount: 3
Fore
SplineSet
420 108.978515625 m 0
 420 168.4375 468.201171875 216.638671875 527.66015625 216.638671875 c 0
 587.119140625 216.638671875 635.3203125 168.4375 635.3203125 108.978515625 c 0
 635.3203125 49.5205078125 587.119140625 1.3193359375 527.66015625 1.3193359375 c 0
 468.201171875 1.3193359375 420 49.5205078125 420 108.978515625 c 0
896 108.978515625 m 4
 896 168.4375 944.200195312 216.638671875 1003.65917969 216.638671875 c 4
 1063.11816406 216.638671875 1111.31933594 168.4375 1111.31933594 108.978515625 c 4
 1111.31933594 49.5205078125 1063.11816406 1.3193359375 1003.65917969 1.3193359375 c 4
 944.200195312 1.3193359375 896 49.5205078125 896 108.978515625 c 4
1186.68066406 399.66015625 m 4
 1186.68066406 459.119140625 1234.88183594 507.3203125 1294.34082031 507.3203125 c 4
 1353.79980469 507.3203125 1402.00097656 459.119140625 1402.00097656 399.66015625 c 4
 1402.00097656 340.201171875 1353.79980469 292 1294.34082031 292 c 4
 1234.88183594 292 1186.68066406 340.201171875 1186.68066406 399.66015625 c 4
1186.68066406 690.340820312 m 4
 1186.68066406 749.799804688 1234.88183594 798 1294.34082031 798 c 4
 1353.79980469 798 1402.00097656 749.799804688 1402.00097656 690.340820312 c 4
 1402.00097656 630.881835938 1353.79980469 582.680664062 1294.34082031 582.680664062 c 4
 1234.88183594 582.680664062 1186.68066406 630.881835938 1186.68066406 690.340820312 c 4
EndSplineSet
Validated: 1
EndChar

StartChar: asterisk
Encoding: 42 42 33
Width: 766
Flags: HW
HStem: 1.31934 215.319<173.245 302.074> 292 215.32<463.926 592.756>
VStem: 130 215.319<44.5645 173.393> 420.681 215.32<335.245 464.075>
LayerCount: 3
Fore
SplineSet
130 108.978515625 m 0
 130 168.4375 178.200195312 216.638671875 237.659179688 216.638671875 c 0
 297.118164062 216.638671875 345.319335938 168.4375 345.319335938 108.978515625 c 0
 345.319335938 49.5205078125 297.118164062 1.3193359375 237.659179688 1.3193359375 c 0
 178.200195312 1.3193359375 130 49.5205078125 130 108.978515625 c 0
420.680664062 399.66015625 m 0
 420.680664062 459.119140625 468.881835938 507.3203125 528.340820312 507.3203125 c 0
 587.799804688 507.3203125 636.000976562 459.119140625 636.000976562 399.66015625 c 0
 636.000976562 340.201171875 587.799804688 292 528.340820312 292 c 0
 468.881835938 292 420.680664062 340.201171875 420.680664062 399.66015625 c 0
EndSplineSet
Validated: 1
EndChar

StartChar: plus
Encoding: 43 43 34
Width: 766
Flags: HW
HStem: 1.31934 215.319<173.245 302.074> 292 215.32<173.245 302.074 463.926 592.756>
VStem: 130 215.319<44.5645 173.393 335.245 464.075> 420.681 215.32<335.245 464.075>
LayerCount: 3
Fore
SplineSet
130 108.978515625 m 0
 130 168.4375 178.200195312 216.638671875 237.659179688 216.638671875 c 0
 297.118164062 216.638671875 345.319335938 168.4375 345.319335938 108.978515625 c 0
 345.319335938 49.5205078125 297.118164062 1.3193359375 237.659179688 1.3193359375 c 0
 178.200195312 1.3193359375 130 49.5205078125 130 108.978515625 c 0
130 399.66015625 m 0
 130 459.119140625 178.200195312 507.3203125 237.659179688 507.3203125 c 0
 297.118164062 507.3203125 345.319335938 459.119140625 345.319335938 399.66015625 c 0
 345.319335938 340.201171875 297.118164062 292 237.659179688 292 c 0
 178.200195312 292 130 340.201171875 130 399.66015625 c 0
420.680664062 399.66015625 m 0
 420.680664062 459.119140625 468.881835938 507.3203125 528.340820312 507.3203125 c 0
 587.799804688 507.3203125 636.000976562 459.119140625 636.000976562 399.66015625 c 0
 636.000976562 340.201171875 587.799804688 292 528.340820312 292 c 0
 468.881835938 292 420.680664062 340.201171875 420.680664062 399.66015625 c 0
EndSplineSet
Validated: 1
EndChar

StartChar: comma
Encoding: 44 44 35
Width: 765
Flags: HW
HStem: 292 215.32<173.245 302.074>
VStem: 130 215.319<335.245 464.075>
LayerCount: 3
Fore
SplineSet
130 399.66015625 m 0
 130 459.119140625 178.200195312 507.3203125 237.659179688 507.3203125 c 0
 297.118164062 507.3203125 345.319335938 459.119140625 345.319335938 399.66015625 c 0
 345.319335938 340.201171875 297.118164062 292 237.659179688 292 c 0
 178.200195312 292 130 340.201171875 130 399.66015625 c 0
EndSplineSet
Validated: 1
EndChar

StartChar: hyphen
Encoding: 45 45 36
Width: 766
Flags: HW
HStem: 1.31934 215.319<173.245 302.074 463.926 592.756>
VStem: 130 215.319<44.5645 173.393> 420.681 215.32<44.5645 173.393>
LayerCount: 3
Fore
SplineSet
130 108.978515625 m 0
 130 168.4375 178.200195312 216.638671875 237.659179688 216.638671875 c 0
 297.118164062 216.638671875 345.319335938 168.4375 345.319335938 108.978515625 c 0
 345.319335938 49.5205078125 297.118164062 1.3193359375 237.659179688 1.3193359375 c 0
 178.200195312 1.3193359375 130 49.5205078125 130 108.978515625 c 0
420.680664062 108.978515625 m 0
 420.680664062 168.4375 468.881835938 216.638671875 528.340820312 216.638671875 c 0
 587.799804688 216.638671875 636.000976562 168.4375 636.000976562 108.978515625 c 0
 636.000976562 49.5205078125 587.799804688 1.3193359375 528.340820312 1.3193359375 c 0
 468.881835938 1.3193359375 420.680664062 49.5205078125 420.680664062 108.978515625 c 0
EndSplineSet
Validated: 1
EndChar

StartChar: period
Encoding: 46 46 37
Width: 765
Flags: HW
HStem: 1.31934 215.319<173.245 302.074>
VStem: 130 215.319<44.5645 173.393>
LayerCount: 3
Fore
SplineSet
130 108.978515625 m 0
 130 168.4375 178.200195312 216.638671875 237.659179688 216.638671875 c 0
 297.118164062 216.638671875 345.319335938 168.4375 345.319335938 108.978515625 c 0
 345.319335938 49.5205078125 297.118164062 1.3193359375 237.659179688 1.3193359375 c 0
 178.200195312 1.3193359375 130 49.5205078125 130 108.978515625 c 0
EndSplineSet
Validated: 1
EndChar

StartChar: slash
Encoding: 47 47 38
Width: 1531
Flags: HW
HStem: 1.31934 215.319<463.245 592.075> 292 215.32<872.666 1001.5>
VStem: 420 215.32<44.5645 173.393> 829.422 215.319<335.245 464.075>
LayerCount: 3
Fore
SplineSet
420 108.978515625 m 0
 420 168.4375 468.201171875 216.638671875 527.66015625 216.638671875 c 0
 587.119140625 216.638671875 635.3203125 168.4375 635.3203125 108.978515625 c 0
 635.3203125 49.5205078125 587.119140625 1.3193359375 527.66015625 1.3193359375 c 0
 468.201171875 1.3193359375 420 49.5205078125 420 108.978515625 c 0
896 399.66015625 m 0
 896 459.119140625 944.200195312 507.3203125 1003.65917969 507.3203125 c 0
 1063.11816406 507.3203125 1111.31933594 459.119140625 1111.31933594 399.66015625 c 0
 1111.31933594 340.201171875 1063.11816406 292 1003.65917969 292 c 0
 944.200195312 292 896 340.201171875 896 399.66015625 c 0
EndSplineSet
Validated: 1
EndChar

StartChar: zero
Encoding: 48 48 39
Width: 766
Flags: HW
HStem: 292 215.32<173.245 302.074 463.926 592.756> 582.681 215.319<463.926 592.756>
VStem: 130 215.319<335.245 464.075> 420.681 215.32<335.245 464.075 625.926 754.755>
LayerCount: 3
Fore
SplineSet
130 399.66015625 m 0
 130 459.119140625 178.200195312 507.3203125 237.659179688 507.3203125 c 0
 297.118164062 507.3203125 345.319335938 459.119140625 345.319335938 399.66015625 c 0
 345.319335938 340.201171875 297.118164062 292 237.659179688 292 c 0
 178.200195312 292 130 340.201171875 130 399.66015625 c 0
420.680664062 399.66015625 m 0
 420.680664062 459.119140625 468.881835938 507.3203125 528.340820312 507.3203125 c 0
 587.799804688 507.3203125 636.000976562 459.119140625 636.000976562 399.66015625 c 0
 636.000976562 340.201171875 587.799804688 292 528.340820312 292 c 0
 468.881835938 292 420.680664062 340.201171875 420.680664062 399.66015625 c 0
420.680664062 690.340820312 m 0
 420.680664062 749.799804688 468.881835938 798 528.340820312 798 c 0
 587.799804688 798 636.000976562 749.799804688 636.000976562 690.340820312 c 0
 636.000976562 630.881835938 587.799804688 582.680664062 528.340820312 582.680664062 c 0
 468.881835938 582.680664062 420.680664062 630.881835938 420.680664062 690.340820312 c 0
EndSplineSet
Validated: 1
EndChar

StartChar: one
Encoding: 49 49 40
Width: 765
Flags: HW
HStem: 582.681 215.319<173.245 302.074>
VStem: 130 215.319<625.926 754.755>
LayerCount: 3
Fore
SplineSet
130 690.340820312 m 0
 130 749.799804688 178.200195312 798 237.659179688 798 c 0
 297.118164062 798 345.319335938 749.799804688 345.319335938 690.340820312 c 0
 345.319335938 630.881835938 297.118164062 582.680664062 237.659179688 582.680664062 c 0
 178.200195312 582.680664062 130 630.881835938 130 690.340820312 c 0
EndSplineSet
Validated: 1
EndChar

StartChar: two
Encoding: 50 50 41
Width: 765
Flags: HW
HStem: 292 215.32<173.245 302.074> 582.681 215.319<173.245 302.074>
VStem: 130 215.319<335.245 464.075 625.926 754.755>
LayerCount: 3
Fore
SplineSet
130 399.66015625 m 0
 130 459.119140625 178.200195312 507.3203125 237.659179688 507.3203125 c 0
 297.118164062 507.3203125 345.319335938 459.119140625 345.319335938 399.66015625 c 0
 345.319335938 340.201171875 297.118164062 292 237.659179688 292 c 0
 178.200195312 292 130 340.201171875 130 399.66015625 c 0
130 690.340820312 m 0
 130 749.799804688 178.200195312 798 237.659179688 798 c 0
 297.118164062 798 345.319335938 749.799804688 345.319335938 690.340820312 c 0
 345.319335938 630.881835938 297.118164062 582.680664062 237.659179688 582.680664062 c 0
 178.200195312 582.680664062 130 630.881835938 130 690.340820312 c 0
EndSplineSet
Validated: 1
EndChar

StartChar: three
Encoding: 51 51 42
Width: 766
Flags: HW
HStem: 582.681 215.319<173.245 302.074 463.926 592.756>
VStem: 130 215.319<625.926 754.755> 420.681 215.32<625.926 754.755>
LayerCount: 3
Fore
SplineSet
130 690.340820312 m 0
 130 749.799804688 178.200195312 798 237.659179688 798 c 0
 297.118164062 798 345.319335938 749.799804688 345.319335938 690.340820312 c 0
 345.319335938 630.881835938 297.118164062 582.680664062 237.659179688 582.680664062 c 0
 178.200195312 582.680664062 130 630.881835938 130 690.340820312 c 0
420.680664062 690.340820312 m 0
 420.680664062 749.799804688 468.881835938 798 528.340820312 798 c 0
 587.799804688 798 636.000976562 749.799804688 636.000976562 690.340820312 c 0
 636.000976562 630.881835938 587.799804688 582.680664062 528.340820312 582.680664062 c 0
 468.881835938 582.680664062 420.680664062 630.881835938 420.680664062 690.340820312 c 0
EndSplineSet
Validated: 1
EndChar

StartChar: four
Encoding: 52 52 43
Width: 766
Flags: HW
HStem: 292 215.32<463.926 592.756> 582.681 215.319<173.245 302.074 463.926 592.756>
VStem: 130 215.319<625.926 754.755> 420.681 215.32<335.245 464.075 625.926 754.755>
LayerCount: 3
Fore
SplineSet
130 690.340820312 m 0
 130 749.799804688 178.200195312 798 237.659179688 798 c 0
 297.118164062 798 345.319335938 749.799804688 345.319335938 690.340820312 c 0
 345.319335938 630.881835938 297.118164062 582.680664062 237.659179688 582.680664062 c 0
 178.200195312 582.680664062 130 630.881835938 130 690.340820312 c 0
420.680664062 399.66015625 m 0
 420.680664062 459.119140625 468.881835938 507.3203125 528.340820312 507.3203125 c 0
 587.799804688 507.3203125 636.000976562 459.119140625 636.000976562 399.66015625 c 0
 636.000976562 340.201171875 587.799804688 292 528.340820312 292 c 0
 468.881835938 292 420.680664062 340.201171875 420.680664062 399.66015625 c 0
420.680664062 690.340820312 m 0
 420.680664062 749.799804688 468.881835938 798 528.340820312 798 c 0
 587.799804688 798 636.000976562 749.799804688 636.000976562 690.340820312 c 0
 636.000976562 630.881835938 587.799804688 582.680664062 528.340820312 582.680664062 c 0
 468.881835938 582.680664062 420.680664062 630.881835938 420.680664062 690.340820312 c 0
EndSplineSet
Validated: 1
EndChar

StartChar: five
Encoding: 53 53 44
Width: 766
Flags: HW
HStem: 292 215.32<463.926 592.756> 582.681 215.319<173.245 302.074>
VStem: 130 215.319<625.926 754.755> 420.681 215.32<335.245 464.075>
LayerCount: 3
Fore
SplineSet
130 690.340820312 m 0
 130 749.799804688 178.200195312 798 237.659179688 798 c 0
 297.118164062 798 345.319335938 749.799804688 345.319335938 690.340820312 c 0
 345.319335938 630.881835938 297.118164062 582.680664062 237.659179688 582.680664062 c 0
 178.200195312 582.680664062 130 630.881835938 130 690.340820312 c 0
420.680664062 399.66015625 m 0
 420.680664062 459.119140625 468.881835938 507.3203125 528.340820312 507.3203125 c 0
 587.799804688 507.3203125 636.000976562 459.119140625 636.000976562 399.66015625 c 0
 636.000976562 340.201171875 587.799804688 292 528.340820312 292 c 0
 468.881835938 292 420.680664062 340.201171875 420.680664062 399.66015625 c 0
EndSplineSet
Validated: 1
EndChar

StartChar: six
Encoding: 54 54 45
Width: 766
Flags: HW
HStem: 292 215.32<173.245 302.074> 582.681 215.319<173.245 302.074 463.926 592.756>
VStem: 130 215.319<335.245 464.075 625.926 754.755> 420.681 215.32<625.926 754.755>
LayerCount: 3
Fore
SplineSet
130 399.66015625 m 0
 130 459.119140625 178.200195312 507.3203125 237.659179688 507.3203125 c 0
 297.118164062 507.3203125 345.319335938 459.119140625 345.319335938 399.66015625 c 0
 345.319335938 340.201171875 297.118164062 292 237.659179688 292 c 0
 178.200195312 292 130 340.201171875 130 399.66015625 c 0
130 690.340820312 m 0
 130 749.799804688 178.200195312 798 237.659179688 798 c 0
 297.118164062 798 345.319335938 749.799804688 345.319335938 690.340820312 c 0
 345.319335938 630.881835938 297.118164062 582.680664062 237.659179688 582.680664062 c 0
 178.200195312 582.680664062 130 630.881835938 130 690.340820312 c 0
420.680664062 690.340820312 m 0
 420.680664062 749.799804688 468.881835938 798 528.340820312 798 c 0
 587.799804688 798 636.000976562 749.799804688 636.000976562 690.340820312 c 0
 636.000976562 630.881835938 587.799804688 582.680664062 528.340820312 582.680664062 c 0
 468.881835938 582.680664062 420.680664062 630.881835938 420.680664062 690.340820312 c 0
EndSplineSet
Validated: 1
EndChar

StartChar: seven
Encoding: 55 55 46
Width: 766
Flags: HW
HStem: 292 215.32<173.245 302.074 463.926 592.756> 582.681 215.319<173.245 302.074 463.926 592.756>
VStem: 130 215.319<335.245 464.075 625.926 754.755> 420.681 215.32<335.245 464.075 625.926 754.755>
LayerCount: 3
Fore
SplineSet
130 399.66015625 m 0
 130 459.119140625 178.200195312 507.3203125 237.659179688 507.3203125 c 0
 297.118164062 507.3203125 345.319335938 459.119140625 345.319335938 399.66015625 c 0
 345.319335938 340.201171875 297.118164062 292 237.659179688 292 c 0
 178.200195312 292 130 340.201171875 130 399.66015625 c 0
130 690.340820312 m 0
 130 749.799804688 178.200195312 798 237.659179688 798 c 0
 297.118164062 798 345.319335938 749.799804688 345.319335938 690.340820312 c 0
 345.319335938 630.881835938 297.118164062 582.680664062 237.659179688 582.680664062 c 0
 178.200195312 582.680664062 130 630.881835938 130 690.340820312 c 0
420.680664062 399.66015625 m 0
 420.680664062 459.119140625 468.881835938 507.3203125 528.340820312 507.3203125 c 0
 587.799804688 507.3203125 636.000976562 459.119140625 636.000976562 399.66015625 c 0
 636.000976562 340.201171875 587.799804688 292 528.340820312 292 c 0
 468.881835938 292 420.680664062 340.201171875 420.680664062 399.66015625 c 0
420.680664062 690.340820312 m 0
 420.680664062 749.799804688 468.881835938 798 528.340820312 798 c 0
 587.799804688 798 636.000976562 749.799804688 636.000976562 690.340820312 c 0
 636.000976562 630.881835938 587.799804688 582.680664062 528.340820312 582.680664062 c 0
 468.881835938 582.680664062 420.680664062 630.881835938 420.680664062 690.340820312 c 0
EndSplineSet
Validated: 1
EndChar

StartChar: eight
Encoding: 56 56 47
Width: 766
Flags: HW
HStem: 292 215.32<173.245 302.074 463.926 592.756> 582.681 215.319<173.245 302.074>
VStem: 130 215.319<335.245 464.075 625.926 754.755> 420.681 215.32<335.245 464.075>
LayerCount: 3
Fore
SplineSet
130 399.66015625 m 0
 130 459.119140625 178.200195312 507.3203125 237.659179688 507.3203125 c 0
 297.118164062 507.3203125 345.319335938 459.119140625 345.319335938 399.66015625 c 0
 345.319335938 340.201171875 297.118164062 292 237.659179688 292 c 0
 178.200195312 292 130 340.201171875 130 399.66015625 c 0
130 690.340820312 m 0
 130 749.799804688 178.200195312 798 237.659179688 798 c 0
 297.118164062 798 345.319335938 749.799804688 345.319335938 690.340820312 c 0
 345.319335938 630.881835938 297.118164062 582.680664062 237.659179688 582.680664062 c 0
 178.200195312 582.680664062 130 630.881835938 130 690.340820312 c 0
420.680664062 399.66015625 m 0
 420.680664062 459.119140625 468.881835938 507.3203125 528.340820312 507.3203125 c 0
 587.799804688 507.3203125 636.000976562 459.119140625 636.000976562 399.66015625 c 0
 636.000976562 340.201171875 587.799804688 292 528.340820312 292 c 0
 468.881835938 292 420.680664062 340.201171875 420.680664062 399.66015625 c 0
EndSplineSet
Validated: 1
EndChar

StartChar: nine
Encoding: 57 57 48
Width: 766
Flags: HW
HStem: 292 215.32<173.245 302.074> 582.681 215.319<463.926 592.756>
VStem: 130 215.319<335.245 464.075> 420.681 215.32<625.926 754.755>
LayerCount: 3
Fore
SplineSet
130 399.66015625 m 0
 130 459.119140625 178.200195312 507.3203125 237.659179688 507.3203125 c 0
 297.118164062 507.3203125 345.319335938 459.119140625 345.319335938 399.66015625 c 0
 345.319335938 340.201171875 297.118164062 292 237.659179688 292 c 0
 178.200195312 292 130 340.201171875 130 399.66015625 c 0
420.680664062 690.340820312 m 0
 420.680664062 749.799804688 468.881835938 798 528.340820312 798 c 0
 587.799804688 798 636.000976562 749.799804688 636.000976562 690.340820312 c 0
 636.000976562 630.881835938 587.799804688 582.680664062 528.340820312 582.680664062 c 0
 468.881835938 582.680664062 420.680664062 630.881835938 420.680664062 690.340820312 c 0
EndSplineSet
Validated: 1
EndChar

StartChar: colon
Encoding: 58 58 49
Width: 766
Flags: HW
HStem: 292 215.32<173.245 302.074 463.926 592.756>
VStem: 130 215.319<335.245 464.075> 420.681 215.32<335.245 464.075>
LayerCount: 3
Fore
SplineSet
130 399.66015625 m 0
 130 459.119140625 178.200195312 507.3203125 237.659179688 507.3203125 c 0
 297.118164062 507.3203125 345.319335938 459.119140625 345.319335938 399.66015625 c 0
 345.319335938 340.201171875 297.118164062 292 237.659179688 292 c 0
 178.200195312 292 130 340.201171875 130 399.66015625 c 0
420.680664062 399.66015625 m 0
 420.680664062 459.119140625 468.881835938 507.3203125 528.340820312 507.3203125 c 0
 587.799804688 507.3203125 636.000976562 459.119140625 636.000976562 399.66015625 c 0
 636.000976562 340.201171875 587.799804688 292 528.340820312 292 c 0
 468.881835938 292 420.680664062 340.201171875 420.680664062 399.66015625 c 0
EndSplineSet
Validated: 1
EndChar

StartChar: semicolon
Encoding: 59 59 50
Width: 765
Flags: HW
HStem: 1.31934 215.319<173.245 302.074> 292 215.32<173.245 302.074>
VStem: 130 215.319<44.5645 173.393 335.245 464.075>
LayerCount: 3
Fore
SplineSet
130 108.978515625 m 0
 130 168.4375 178.200195312 216.638671875 237.659179688 216.638671875 c 0
 297.118164062 216.638671875 345.319335938 168.4375 345.319335938 108.978515625 c 0
 345.319335938 49.5205078125 297.118164062 1.3193359375 237.659179688 1.3193359375 c 0
 178.200195312 1.3193359375 130 49.5205078125 130 108.978515625 c 0
130 399.66015625 m 0
 130 459.119140625 178.200195312 507.3203125 237.659179688 507.3203125 c 0
 297.118164062 507.3203125 345.319335938 459.119140625 345.319335938 399.66015625 c 0
 345.319335938 340.201171875 297.118164062 292 237.659179688 292 c 0
 178.200195312 292 130 340.201171875 130 399.66015625 c 0
EndSplineSet
Validated: 1
EndChar

StartChar: less
Encoding: 60 60 51
Width: 766
Flags: HW
HStem: 1.31934 215.319<463.926 592.756> 292 215.32<173.245 302.074> 582.681 215.319<463.926 592.756>
VStem: 130 215.319<335.245 464.075> 420.681 215.32<44.5645 173.393 625.926 754.755>
LayerCount: 3
Fore
SplineSet
130 399.66015625 m 0
 130 459.119140625 178.200195312 507.3203125 237.659179688 507.3203125 c 0
 297.118164062 507.3203125 345.319335938 459.119140625 345.319335938 399.66015625 c 0
 345.319335938 340.201171875 297.118164062 292 237.659179688 292 c 0
 178.200195312 292 130 340.201171875 130 399.66015625 c 0
420.680664062 108.978515625 m 0
 420.680664062 168.4375 468.881835938 216.638671875 528.340820312 216.638671875 c 0
 587.799804688 216.638671875 636.000976562 168.4375 636.000976562 108.978515625 c 0
 636.000976562 49.5205078125 587.799804688 1.3193359375 528.340820312 1.3193359375 c 0
 468.881835938 1.3193359375 420.680664062 49.5205078125 420.680664062 108.978515625 c 0
420.680664062 690.340820312 m 0
 420.680664062 749.799804688 468.881835938 798 528.340820312 798 c 0
 587.799804688 798 636.000976562 749.799804688 636.000976562 690.340820312 c 0
 636.000976562 630.881835938 587.799804688 582.680664062 528.340820312 582.680664062 c 0
 468.881835938 582.680664062 420.680664062 630.881835938 420.680664062 690.340820312 c 0
EndSplineSet
Validated: 1
EndChar

StartChar: equal
Encoding: 61 61 52
Width: 766
Flags: HW
HStem: 1.31934 215.319<173.245 302.074 463.926 592.756> 292 215.32<173.245 302.074 463.926 592.756>
VStem: 130 215.319<44.5645 173.393 335.245 464.075> 420.681 215.32<44.5645 173.393 335.245 464.075>
LayerCount: 3
Fore
SplineSet
130 108.978515625 m 0
 130 168.4375 178.200195312 216.638671875 237.659179688 216.638671875 c 0
 297.118164062 216.638671875 345.319335938 168.4375 345.319335938 108.978515625 c 0
 345.319335938 49.5205078125 297.118164062 1.3193359375 237.659179688 1.3193359375 c 0
 178.200195312 1.3193359375 130 49.5205078125 130 108.978515625 c 0
130 399.66015625 m 0
 130 459.119140625 178.200195312 507.3203125 237.659179688 507.3203125 c 0
 297.118164062 507.3203125 345.319335938 459.119140625 345.319335938 399.66015625 c 0
 345.319335938 340.201171875 297.118164062 292 237.659179688 292 c 0
 178.200195312 292 130 340.201171875 130 399.66015625 c 0
420.680664062 108.978515625 m 0
 420.680664062 168.4375 468.881835938 216.638671875 528.340820312 216.638671875 c 0
 587.799804688 216.638671875 636.000976562 168.4375 636.000976562 108.978515625 c 0
 636.000976562 49.5205078125 587.799804688 1.3193359375 528.340820312 1.3193359375 c 0
 468.881835938 1.3193359375 420.680664062 49.5205078125 420.680664062 108.978515625 c 0
420.680664062 399.66015625 m 0
 420.680664062 459.119140625 468.881835938 507.3203125 528.340820312 507.3203125 c 0
 587.799804688 507.3203125 636.000976562 459.119140625 636.000976562 399.66015625 c 0
 636.000976562 340.201171875 587.799804688 292 528.340820312 292 c 0
 468.881835938 292 420.680664062 340.201171875 420.680664062 399.66015625 c 0
EndSplineSet
Validated: 1
EndChar

StartChar: greater
Encoding: 62 62 53
Width: 766
Flags: HW
HStem: 1.31934 215.319<173.245 302.074> 292 215.32<463.926 592.756> 582.681 215.319<173.245 302.074>
VStem: 130 215.319<44.5645 173.393 625.926 754.755> 420.681 215.32<335.245 464.075>
LayerCount: 3
Fore
SplineSet
130 108.978515625 m 0
 130 168.4375 178.200195312 216.638671875 237.659179688 216.638671875 c 0
 297.118164062 216.638671875 345.319335938 168.4375 345.319335938 108.978515625 c 0
 345.319335938 49.5205078125 297.118164062 1.3193359375 237.659179688 1.3193359375 c 0
 178.200195312 1.3193359375 130 49.5205078125 130 108.978515625 c 0
130 690.340820312 m 0
 130 749.799804688 178.200195312 798 237.659179688 798 c 0
 297.118164062 798 345.319335938 749.799804688 345.319335938 690.340820312 c 0
 345.319335938 630.881835938 297.118164062 582.680664062 237.659179688 582.680664062 c 0
 178.200195312 582.680664062 130 630.881835938 130 690.340820312 c 0
420.680664062 399.66015625 m 0
 420.680664062 459.119140625 468.881835938 507.3203125 528.340820312 507.3203125 c 0
 587.799804688 507.3203125 636.000976562 459.119140625 636.000976562 399.66015625 c 0
 636.000976562 340.201171875 587.799804688 292 528.340820312 292 c 0
 468.881835938 292 420.680664062 340.201171875 420.680664062 399.66015625 c 0
EndSplineSet
Validated: 1
EndChar

StartChar: question
Encoding: 63 63 54
Width: 766
Flags: HW
HStem: 1.31934 215.319<463.926 592.756> 292 215.32<173.245 302.074>
VStem: 130 215.319<335.245 464.075> 420.681 215.32<44.5645 173.393>
LayerCount: 3
Fore
SplineSet
130 399.66015625 m 0
 130 459.119140625 178.200195312 507.3203125 237.659179688 507.3203125 c 0
 297.118164062 507.3203125 345.319335938 459.119140625 345.319335938 399.66015625 c 0
 345.319335938 340.201171875 297.118164062 292 237.659179688 292 c 0
 178.200195312 292 130 340.201171875 130 399.66015625 c 0
420.680664062 108.978515625 m 0
 420.680664062 168.4375 468.881835938 216.638671875 528.340820312 216.638671875 c 0
 587.799804688 216.638671875 636.000976562 168.4375 636.000976562 108.978515625 c 0
 636.000976562 49.5205078125 587.799804688 1.3193359375 528.340820312 1.3193359375 c 0
 468.881835938 1.3193359375 420.680664062 49.5205078125 420.680664062 108.978515625 c 0
EndSplineSet
Validated: 1
EndChar

StartChar: at
Encoding: 64 64 55
Width: 766
Flags: HW
HStem: 1.31934 215.319<463.926 592.756> 292 215.32<463.926 592.756> 582.681 215.319<173.245 302.074>
VStem: 130 215.319<625.926 754.755> 420.681 215.32<44.5645 173.393 335.245 464.075>
LayerCount: 3
Fore
SplineSet
130 690.340820312 m 0
 130 749.799804688 178.200195312 798 237.659179688 798 c 0
 297.118164062 798 345.319335938 749.799804688 345.319335938 690.340820312 c 0
 345.319335938 630.881835938 297.118164062 582.680664062 237.659179688 582.680664062 c 0
 178.200195312 582.680664062 130 630.881835938 130 690.340820312 c 0
420.680664062 108.978515625 m 0
 420.680664062 168.4375 468.881835938 216.638671875 528.340820312 216.638671875 c 0
 587.799804688 216.638671875 636.000976562 168.4375 636.000976562 108.978515625 c 0
 636.000976562 49.5205078125 587.799804688 1.3193359375 528.340820312 1.3193359375 c 0
 468.881835938 1.3193359375 420.680664062 49.5205078125 420.680664062 108.978515625 c 0
420.680664062 399.66015625 m 0
 420.680664062 459.119140625 468.881835938 507.3203125 528.340820312 507.3203125 c 0
 587.799804688 507.3203125 636.000976562 459.119140625 636.000976562 399.66015625 c 0
 636.000976562 340.201171875 587.799804688 292 528.340820312 292 c 0
 468.881835938 292 420.680664062 340.201171875 420.680664062 399.66015625 c 0
EndSplineSet
Validated: 1
EndChar

StartChar: bracketleft
Encoding: 91 91 56
Width: 1531
Flags: HW
HStem: 1.31934 215.319<173.245 302.074 463.926 592.756 873.347 1002.18> 292 215.32<173.245 302.074 463.926 592.756> 582.681 215.319<173.245 302.074>
VStem: 130 215.319<44.5645 173.393 335.245 464.075 625.926 754.755> 420.681 215.32<44.5645 173.393 335.245 464.075> 830.103 215.319<44.5645 173.393>
LayerCount: 3
Fore
SplineSet
130 108.978515625 m 0
 130 168.4375 178.200195312 216.638671875 237.659179688 216.638671875 c 0
 297.118164062 216.638671875 345.319335938 168.4375 345.319335938 108.978515625 c 0
 345.319335938 49.5205078125 297.118164062 1.3193359375 237.659179688 1.3193359375 c 0
 178.200195312 1.3193359375 130 49.5205078125 130 108.978515625 c 0
130 399.66015625 m 0
 130 459.119140625 178.200195312 507.3203125 237.659179688 507.3203125 c 0
 297.118164062 507.3203125 345.319335938 459.119140625 345.319335938 399.66015625 c 0
 345.319335938 340.201171875 297.118164062 292 237.659179688 292 c 0
 178.200195312 292 130 340.201171875 130 399.66015625 c 0
130 690.340820312 m 0
 130 749.799804688 178.200195312 798 237.659179688 798 c 0
 297.118164062 798 345.319335938 749.799804688 345.319335938 690.340820312 c 0
 345.319335938 630.881835938 297.118164062 582.680664062 237.659179688 582.680664062 c 0
 178.200195312 582.680664062 130 630.881835938 130 690.340820312 c 0
420.680664062 108.978515625 m 0
 420.680664062 168.4375 468.881835938 216.638671875 528.340820312 216.638671875 c 0
 587.799804688 216.638671875 636.000976562 168.4375 636.000976562 108.978515625 c 0
 636.000976562 49.5205078125 587.799804688 1.3193359375 528.340820312 1.3193359375 c 0
 468.881835938 1.3193359375 420.680664062 49.5205078125 420.680664062 108.978515625 c 0
420.680664062 399.66015625 m 0
 420.680664062 459.119140625 468.881835938 507.3203125 528.340820312 507.3203125 c 0
 587.799804688 507.3203125 636.000976562 459.119140625 636.000976562 399.66015625 c 0
 636.000976562 340.201171875 587.799804688 292 528.340820312 292 c 0
 468.881835938 292 420.680664062 340.201171875 420.680664062 399.66015625 c 0
896 108.978515625 m 0
 896 168.4375 944.200195312 216.638671875 1003.65917969 216.638671875 c 0
 1063.11816406 216.638671875 1111.31933594 168.4375 1111.31933594 108.978515625 c 0
 1111.31933594 49.5205078125 1063.11816406 1.3193359375 1003.65917969 1.3193359375 c 0
 944.200195312 1.3193359375 896 49.5205078125 896 108.978515625 c 0
EndSplineSet
Validated: 1
EndChar

StartChar: backslash
Encoding: 92 92 57
Width: 1531
Flags: HW
HStem: 1.31934 215.319<872.666 1001.5> 292 215.32<463.245 592.075>
VStem: 420 215.32<335.245 464.075> 829.422 215.319<44.5645 173.393>
LayerCount: 3
Fore
SplineSet
420 399.66015625 m 0
 420 459.119140625 468.201171875 507.3203125 527.66015625 507.3203125 c 0
 587.119140625 507.3203125 635.3203125 459.119140625 635.3203125 399.66015625 c 0
 635.3203125 340.201171875 587.119140625 292 527.66015625 292 c 0
 468.201171875 292 420 340.201171875 420 399.66015625 c 0
896 108.978515625 m 4
 896 168.4375 944.200195312 216.638671875 1003.65917969 216.638671875 c 4
 1063.11816406 216.638671875 1111.31933594 168.4375 1111.31933594 108.978515625 c 4
 1111.31933594 49.5205078125 1063.11816406 1.3193359375 1003.65917969 1.3193359375 c 4
 944.200195312 1.3193359375 896 49.5205078125 896 108.978515625 c 4
EndSplineSet
Validated: 1
EndChar

StartChar: bracketright
Encoding: 93 93 58
Width: 1532
Flags: HW
HStem: 1.31934 215.319<463.245 592.075 872.666 1001.5 1163.35 1292.18> 292 215.32<872.666 1001.5 1163.35 1292.18> 582.681 215.319<1163.35 1292.18>
VStem: 420 215.32<44.5645 173.393> 829.422 215.319<44.5645 173.393 335.245 464.075> 1120.1 215.32<44.5645 173.393 335.245 464.075 625.926 754.755>
LayerCount: 3
Fore
SplineSet
420 108.978515625 m 0
 420 168.4375 468.201171875 216.638671875 527.66015625 216.638671875 c 0
 587.119140625 216.638671875 635.3203125 168.4375 635.3203125 108.978515625 c 0
 635.3203125 49.5205078125 587.119140625 1.3193359375 527.66015625 1.3193359375 c 0
 468.201171875 1.3193359375 420 49.5205078125 420 108.978515625 c 0
896 108.978515625 m 4
 896 168.4375 944.200195312 216.638671875 1003.65917969 216.638671875 c 4
 1063.11816406 216.638671875 1111.31933594 168.4375 1111.31933594 108.978515625 c 4
 1111.31933594 49.5205078125 1063.11816406 1.3193359375 1003.65917969 1.3193359375 c 4
 944.200195312 1.3193359375 896 49.5205078125 896 108.978515625 c 4
896 399.66015625 m 4
 896 459.119140625 944.200195312 507.3203125 1003.65917969 507.3203125 c 4
 1063.11816406 507.3203125 1111.31933594 459.119140625 1111.31933594 399.66015625 c 4
 1111.31933594 340.201171875 1063.11816406 292 1003.65917969 292 c 4
 944.200195312 292 896 340.201171875 896 399.66015625 c 4
1186.68066406 108.978515625 m 4
 1186.68066406 168.4375 1234.88183594 216.638671875 1294.34082031 216.638671875 c 4
 1353.79980469 216.638671875 1402.00097656 168.4375 1402.00097656 108.978515625 c 4
 1402.00097656 49.5205078125 1353.79980469 1.3193359375 1294.34082031 1.3193359375 c 4
 1234.88183594 1.3193359375 1186.68066406 49.5205078125 1186.68066406 108.978515625 c 4
1186.68066406 399.66015625 m 4
 1186.68066406 459.119140625 1234.88183594 507.3203125 1294.34082031 507.3203125 c 4
 1353.79980469 507.3203125 1402.00097656 459.119140625 1402.00097656 399.66015625 c 4
 1402.00097656 340.201171875 1353.79980469 292 1294.34082031 292 c 4
 1234.88183594 292 1186.68066406 340.201171875 1186.68066406 399.66015625 c 4
1186.68066406 690.340820312 m 4
 1186.68066406 749.799804688 1234.88183594 798 1294.34082031 798 c 4
 1353.79980469 798 1402.00097656 749.799804688 1402.00097656 690.340820312 c 4
 1402.00097656 630.881835938 1353.79980469 582.680664062 1294.34082031 582.680664062 c 4
 1234.88183594 582.680664062 1186.68066406 630.881835938 1186.68066406 690.340820312 c 4
EndSplineSet
Validated: 1
EndChar

StartChar: asciicircum
Encoding: 94 94 59
Width: 765
Flags: HW
HStem: 1.31934 215.319<463.245 592.075> 582.681 215.319<463.245 592.075>
VStem: 420 215.32<44.5645 173.393 625.926 754.755>
LayerCount: 3
Fore
SplineSet
420 108.978515625 m 0
 420 168.4375 468.201171875 216.638671875 527.66015625 216.638671875 c 0
 587.119140625 216.638671875 635.3203125 168.4375 635.3203125 108.978515625 c 0
 635.3203125 49.5205078125 587.119140625 1.3193359375 527.66015625 1.3193359375 c 0
 468.201171875 1.3193359375 420 49.5205078125 420 108.978515625 c 0
420 690.340820312 m 0
 420 749.799804688 468.201171875 798 527.66015625 798 c 0
 587.119140625 798 635.3203125 749.799804688 635.3203125 690.340820312 c 0
 635.3203125 630.881835938 587.119140625 582.680664062 527.66015625 582.680664062 c 0
 468.201171875 582.680664062 420 630.881835938 420 690.340820312 c 0
EndSplineSet
Validated: 1
EndChar

StartChar: underscore
Encoding: 95 95 60
Width: 1532
Flags: HW
HStem: 1.31934 215.319<463.245 592.075 872.666 1001.5 1163.35 1292.18> 582.681 215.319<463.245 592.075>
VStem: 420 215.32<44.5645 173.393 625.926 754.755> 829.422 215.319<44.5645 173.393> 1120.1 215.32<44.5645 173.393>
LayerCount: 3
Fore
SplineSet
420 108.978515625 m 0
 420 168.4375 468.201171875 216.638671875 527.66015625 216.638671875 c 0
 587.119140625 216.638671875 635.3203125 168.4375 635.3203125 108.978515625 c 0
 635.3203125 49.5205078125 587.119140625 1.3193359375 527.66015625 1.3193359375 c 0
 468.201171875 1.3193359375 420 49.5205078125 420 108.978515625 c 0
420 690.340820312 m 0
 420 749.799804688 468.201171875 798 527.66015625 798 c 0
 587.119140625 798 635.3203125 749.799804688 635.3203125 690.340820312 c 0
 635.3203125 630.881835938 587.119140625 582.680664062 527.66015625 582.680664062 c 0
 468.201171875 582.680664062 420 630.881835938 420 690.340820312 c 0
896 108.978515625 m 4
 896 168.4375 944.200195312 216.638671875 1003.65917969 216.638671875 c 4
 1063.11816406 216.638671875 1111.31933594 168.4375 1111.31933594 108.978515625 c 4
 1111.31933594 49.5205078125 1063.11816406 1.3193359375 1003.65917969 1.3193359375 c 4
 944.200195312 1.3193359375 896 49.5205078125 896 108.978515625 c 4
1186.68066406 108.978515625 m 4
 1186.68066406 168.4375 1234.88183594 216.638671875 1294.34082031 216.638671875 c 4
 1353.79980469 216.638671875 1402.00097656 168.4375 1402.00097656 108.978515625 c 4
 1402.00097656 49.5205078125 1353.79980469 1.3193359375 1294.34082031 1.3193359375 c 4
 1234.88183594 1.3193359375 1186.68066406 49.5205078125 1186.68066406 108.978515625 c 4
EndSplineSet
Validated: 1
EndChar

StartChar: grave
Encoding: 96 96 61
Width: 766
Flags: HW
HStem: 1.31934 215.319<463.926 592.756> 292 215.32<173.245 302.074>
VStem: 130 215.319<335.245 464.075> 420.681 215.32<44.5645 173.393>
LayerCount: 3
Fore
SplineSet
130 399.66015625 m 0
 130 459.119140625 178.200195312 507.3203125 237.659179688 507.3203125 c 0
 297.118164062 507.3203125 345.319335938 459.119140625 345.319335938 399.66015625 c 0
 345.319335938 340.201171875 297.118164062 292 237.659179688 292 c 0
 178.200195312 292 130 340.201171875 130 399.66015625 c 0
420.680664062 108.978515625 m 0
 420.680664062 168.4375 468.881835938 216.638671875 528.340820312 216.638671875 c 0
 587.799804688 216.638671875 636.000976562 168.4375 636.000976562 108.978515625 c 0
 636.000976562 49.5205078125 587.799804688 1.3193359375 528.340820312 1.3193359375 c 0
 468.881835938 1.3193359375 420.680664062 49.5205078125 420.680664062 108.978515625 c 0
EndSplineSet
Validated: 1
EndChar

StartChar: braceleft
Encoding: 123 123 62
Width: 1531
Flags: HW
HStem: 1.31934 215.319<872.666 1001.5> 292 215.32<463.245 592.075 872.666 1001.5> 582.681 215.319<872.666 1001.5>
VStem: 420 215.32<335.245 464.075> 829.422 215.319<44.5645 173.393 335.245 464.075 625.926 754.755>
LayerCount: 3
Fore
SplineSet
420 399.66015625 m 0
 420 459.119140625 468.201171875 507.3203125 527.66015625 507.3203125 c 0
 587.119140625 507.3203125 635.3203125 459.119140625 635.3203125 399.66015625 c 0
 635.3203125 340.201171875 587.119140625 292 527.66015625 292 c 0
 468.201171875 292 420 340.201171875 420 399.66015625 c 0
896 108.978515625 m 4
 896 168.4375 944.200195312 216.638671875 1003.65917969 216.638671875 c 4
 1063.11816406 216.638671875 1111.31933594 168.4375 1111.31933594 108.978515625 c 4
 1111.31933594 49.5205078125 1063.11816406 1.3193359375 1003.65917969 1.3193359375 c 4
 944.200195312 1.3193359375 896 49.5205078125 896 108.978515625 c 4
896 399.66015625 m 4
 896 459.119140625 944.200195312 507.3203125 1003.65917969 507.3203125 c 4
 1063.11816406 507.3203125 1111.31933594 459.119140625 1111.31933594 399.66015625 c 4
 1111.31933594 340.201171875 1063.11816406 292 1003.65917969 292 c 4
 944.200195312 292 896 340.201171875 896 399.66015625 c 4
896 690.340820312 m 4
 896 749.799804688 944.200195312 798 1003.65917969 798 c 4
 1063.11816406 798 1111.31933594 749.799804688 1111.31933594 690.340820312 c 4
 1111.31933594 630.881835938 1063.11816406 582.680664062 1003.65917969 582.680664062 c 4
 944.200195312 582.680664062 896 630.881835938 896 690.340820312 c 4
EndSplineSet
Validated: 1
EndChar

StartChar: bar
Encoding: 124 124 63
Width: 766
Flags: HW
HStem: 1.31934 215.319<173.245 302.074 463.926 592.756> 292 215.32<463.926 592.756> 582.681 215.319<463.926 592.756>
VStem: 130 215.319<44.5645 173.393> 420.681 215.32<44.5645 173.393 335.245 464.075 625.926 754.755>
LayerCount: 3
Fore
SplineSet
130 108.978515625 m 0
 130 168.4375 178.200195312 216.638671875 237.659179688 216.638671875 c 0
 297.118164062 216.638671875 345.319335938 168.4375 345.319335938 108.978515625 c 0
 345.319335938 49.5205078125 297.118164062 1.3193359375 237.659179688 1.3193359375 c 0
 178.200195312 1.3193359375 130 49.5205078125 130 108.978515625 c 0
420.680664062 108.978515625 m 0
 420.680664062 168.4375 468.881835938 216.638671875 528.340820312 216.638671875 c 0
 587.799804688 216.638671875 636.000976562 168.4375 636.000976562 108.978515625 c 0
 636.000976562 49.5205078125 587.799804688 1.3193359375 528.340820312 1.3193359375 c 0
 468.881835938 1.3193359375 420.680664062 49.5205078125 420.680664062 108.978515625 c 0
420.680664062 399.66015625 m 0
 420.680664062 459.119140625 468.881835938 507.3203125 528.340820312 507.3203125 c 0
 587.799804688 507.3203125 636.000976562 459.119140625 636.000976562 399.66015625 c 0
 636.000976562 340.201171875 587.799804688 292 528.340820312 292 c 0
 468.881835938 292 420.680664062 340.201171875 420.680664062 399.66015625 c 0
420.680664062 690.340820312 m 0
 420.680664062 749.799804688 468.881835938 798 528.340820312 798 c 0
 587.799804688 798 636.000976562 749.799804688 636.000976562 690.340820312 c 0
 636.000976562 630.881835938 587.799804688 582.680664062 528.340820312 582.680664062 c 0
 468.881835938 582.680664062 420.680664062 630.881835938 420.680664062 690.340820312 c 0
EndSplineSet
Validated: 1
EndChar

StartChar: braceright
Encoding: 125 125 64
Width: 1531
Flags: HW
HStem: 1.31934 215.319<463.245 592.075> 292 215.32<463.245 592.075 872.666 1001.5> 582.681 215.319<463.245 592.075>
VStem: 420 215.32<44.5645 173.393 335.245 464.075 625.926 754.755> 829.422 215.319<335.245 464.075>
LayerCount: 3
Fore
SplineSet
420 108.978515625 m 0
 420 168.4375 468.201171875 216.638671875 527.66015625 216.638671875 c 0
 587.119140625 216.638671875 635.3203125 168.4375 635.3203125 108.978515625 c 0
 635.3203125 49.5205078125 587.119140625 1.3193359375 527.66015625 1.3193359375 c 0
 468.201171875 1.3193359375 420 49.5205078125 420 108.978515625 c 0
420 399.66015625 m 0
 420 459.119140625 468.201171875 507.3203125 527.66015625 507.3203125 c 0
 587.119140625 507.3203125 635.3203125 459.119140625 635.3203125 399.66015625 c 0
 635.3203125 340.201171875 587.119140625 292 527.66015625 292 c 0
 468.201171875 292 420 340.201171875 420 399.66015625 c 0
420 690.340820312 m 0
 420 749.799804688 468.201171875 798 527.66015625 798 c 0
 587.119140625 798 635.3203125 749.799804688 635.3203125 690.340820312 c 0
 635.3203125 630.881835938 587.119140625 582.680664062 527.66015625 582.680664062 c 0
 468.201171875 582.680664062 420 630.881835938 420 690.340820312 c 0
896 399.66015625 m 4
 896 459.119140625 944.200195312 507.3203125 1003.65917969 507.3203125 c 4
 1063.11816406 507.3203125 1111.31933594 459.119140625 1111.31933594 399.66015625 c 4
 1111.31933594 340.201171875 1063.11816406 292 1003.65917969 292 c 4
 944.200195312 292 896 340.201171875 896 399.66015625 c 4
EndSplineSet
Validated: 1
EndChar

StartChar: asciitilde
Encoding: 126 126 65
Width: 765
Flags: HW
HStem: 292 215.32<463.245 592.075>
VStem: 420 215.32<335.245 464.075>
LayerCount: 3
Fore
SplineSet
420 399.66015625 m 0
 420 459.119140625 468.201171875 507.3203125 527.66015625 507.3203125 c 0
 587.119140625 507.3203125 635.3203125 459.119140625 635.3203125 399.66015625 c 0
 635.3203125 340.201171875 587.119140625 292 527.66015625 292 c 0
 468.201171875 292 420 340.201171875 420 399.66015625 c 0
EndSplineSet
Validated: 1
EndChar

StartChar: section
Encoding: 167 167 66
Width: 1532
Flags: HW
HStem: 1.31934 215.319<173.245 302.074 873.347 1002.18> 292 215.32<173.245 302.074 873.347 1002.18> 582.681 215.319<463.926 592.756 1164.03 1292.86>
VStem: 130 215.319<44.5645 173.393 335.245 464.075> 420.681 215.32<625.926 754.755> 830.103 215.319<44.5645 173.393 335.245 464.075> 1120.78 215.32<625.926 754.755>
LayerCount: 3
Fore
SplineSet
130 108.978515625 m 0
 130 168.4375 178.200195312 216.638671875 237.659179688 216.638671875 c 0
 297.118164062 216.638671875 345.319335938 168.4375 345.319335938 108.978515625 c 0
 345.319335938 49.5205078125 297.118164062 1.3193359375 237.659179688 1.3193359375 c 0
 178.200195312 1.3193359375 130 49.5205078125 130 108.978515625 c 0
130 399.66015625 m 0
 130 459.119140625 178.200195312 507.3203125 237.659179688 507.3203125 c 0
 297.118164062 507.3203125 345.319335938 459.119140625 345.319335938 399.66015625 c 0
 345.319335938 340.201171875 297.118164062 292 237.659179688 292 c 0
 178.200195312 292 130 340.201171875 130 399.66015625 c 0
420.680664062 690.340820312 m 0
 420.680664062 749.799804688 468.881835938 798 528.340820312 798 c 0
 587.799804688 798 636.000976562 749.799804688 636.000976562 690.340820312 c 0
 636.000976562 630.881835938 587.799804688 582.680664062 528.340820312 582.680664062 c 0
 468.881835938 582.680664062 420.680664062 630.881835938 420.680664062 690.340820312 c 0
896 108.978515625 m 4
 896 168.4375 944.200195312 216.638671875 1003.65917969 216.638671875 c 4
 1063.11816406 216.638671875 1111.31933594 168.4375 1111.31933594 108.978515625 c 4
 1111.31933594 49.5205078125 1063.11816406 1.3193359375 1003.65917969 1.3193359375 c 4
 944.200195312 1.3193359375 896 49.5205078125 896 108.978515625 c 4
896 399.66015625 m 4
 896 459.119140625 944.200195312 507.3203125 1003.65917969 507.3203125 c 4
 1063.11816406 507.3203125 1111.31933594 459.119140625 1111.31933594 399.66015625 c 4
 1111.31933594 340.201171875 1063.11816406 292 1003.65917969 292 c 4
 944.200195312 292 896 340.201171875 896 399.66015625 c 4
1186.68066406 690.340820312 m 4
 1186.68066406 749.799804688 1234.88183594 798 1294.34082031 798 c 4
 1353.79980469 798 1402.00097656 749.799804688 1402.00097656 690.340820312 c 4
 1402.00097656 630.881835938 1353.79980469 582.680664062 1294.34082031 582.680664062 c 4
 1234.88183594 582.680664062 1186.68066406 630.881835938 1186.68066406 690.340820312 c 4
EndSplineSet
Validated: 1
EndChar

StartChar: dieresis
Encoding: 256 168 67
Width: 765
Flags: HW
HStem: 292 215.32<463.245 592.075> 582.681 215.319<463.245 592.075>
VStem: 420 215.32<335.245 464.075 625.926 754.755>
LayerCount: 3
Fore
SplineSet
420 399.66015625 m 0
 420 459.119140625 468.201171875 507.3203125 527.66015625 507.3203125 c 0
 587.119140625 507.3203125 635.3203125 459.119140625 635.3203125 399.66015625 c 0
 635.3203125 340.201171875 587.119140625 292 527.66015625 292 c 0
 468.201171875 292 420 340.201171875 420 399.66015625 c 0
420 690.340820312 m 0
 420 749.799804688 468.201171875 798 527.66015625 798 c 0
 587.119140625 798 635.3203125 749.799804688 635.3203125 690.340820312 c 0
 635.3203125 630.881835938 587.119140625 582.680664062 527.66015625 582.680664062 c 0
 468.201171875 582.680664062 420 630.881835938 420 690.340820312 c 0
EndSplineSet
Validated: 1
EndChar

StartChar: copyright
Encoding: 169 169 68
Width: 3064
Flags: HW
HStem: 1.31934 215.319<463.926 592.756 1164.03 1292.86 2274.59 2403.41> 292 215.32<173.245 302.074 2565.27 2694.1> 582.681 215.319<173.245 302.074 1164.03 1292.86 1573.9 1702.73 1864.59 1993.41 2565.27 2694.1>
VStem: 130 215.319<335.245 464.075 625.926 754.755> 420.681 215.32<44.5645 173.393> 1120.78 215.32<44.5645 173.393 625.926 754.755> 1530.66 215.319<625.926 754.755> 1821.34 215.32<625.926 754.755> 2231.34 215.319<44.5645 173.393> 2522.02 215.32<335.245 464.075 625.926 754.755>
LayerCount: 3
Fore
SplineSet
2428 108.978515625 m 0
 2428 168.4375 2476.20019531 216.638671875 2535.65917969 216.638671875 c 0
 2595.11816406 216.638671875 2643.31933594 168.4375 2643.31933594 108.978515625 c 0
 2643.31933594 49.5205078125 2595.11816406 1.3193359375 2535.65917969 1.3193359375 c 0
 2476.20019531 1.3193359375 2428 49.5205078125 2428 108.978515625 c 0
2718.68066406 399.66015625 m 0
 2718.68066406 459.119140625 2766.88183594 507.3203125 2826.34082031 507.3203125 c 0
 2885.79980469 507.3203125 2934.00097656 459.119140625 2934.00097656 399.66015625 c 0
 2934.00097656 340.201171875 2885.79980469 292 2826.34082031 292 c 0
 2766.88183594 292 2718.68066406 340.201171875 2718.68066406 399.66015625 c 0
2718.68066406 690.340820312 m 0
 2718.68066406 749.799804688 2766.88183594 798 2826.34082031 798 c 0
 2885.79980469 798 2934.00097656 749.799804688 2934.00097656 690.340820312 c 0
 2934.00097656 630.881835938 2885.79980469 582.680664062 2826.34082031 582.680664062 c 0
 2766.88183594 582.680664062 2718.68066406 630.881835938 2718.68066406 690.340820312 c 0
1662 690.340820312 m 0
 1662 749.799804688 1710.20019531 798 1769.65917969 798 c 0
 1829.11816406 798 1877.31933594 749.799804688 1877.31933594 690.340820312 c 0
 1877.31933594 630.881835938 1829.11816406 582.680664062 1769.65917969 582.680664062 c 0
 1710.20019531 582.680664062 1662 630.881835938 1662 690.340820312 c 0
1952.68066406 690.340820312 m 0
 1952.68066406 749.799804688 2000.88183594 798 2060.34082031 798 c 0
 2119.79980469 798 2168.00097656 749.799804688 2168.00097656 690.340820312 c 0
 2168.00097656 630.881835938 2119.79980469 582.680664062 2060.34082031 582.680664062 c 0
 2000.88183594 582.680664062 1952.68066406 630.881835938 1952.68066406 690.340820312 c 0
130 399.66015625 m 0
 130 459.119140625 178.200195312 507.3203125 237.659179688 507.3203125 c 0
 297.118164062 507.3203125 345.319335938 459.119140625 345.319335938 399.66015625 c 0
 345.319335938 340.201171875 297.118164062 292 237.659179688 292 c 0
 178.200195312 292 130 340.201171875 130 399.66015625 c 0
130 690.340820312 m 0
 130 749.799804688 178.200195312 798 237.659179688 798 c 0
 297.118164062 798 345.319335938 749.799804688 345.319335938 690.340820312 c 0
 345.319335938 630.881835938 297.118164062 582.680664062 237.659179688 582.680664062 c 0
 178.200195312 582.680664062 130 630.881835938 130 690.340820312 c 0
420.680664062 108.978515625 m 0
 420.680664062 168.4375 468.881835938 216.638671875 528.340820312 216.638671875 c 0
 587.799804688 216.638671875 636.000976562 168.4375 636.000976562 108.978515625 c 0
 636.000976562 49.5205078125 587.799804688 1.3193359375 528.340820312 1.3193359375 c 0
 468.881835938 1.3193359375 420.680664062 49.5205078125 420.680664062 108.978515625 c 0
1187.66308594 108.978515625 m 0
 1187.66308594 168.4375 1235.86425781 216.638671875 1295.32324219 216.638671875 c 0
 1354.78222656 216.638671875 1402.98339844 168.4375 1402.98339844 108.978515625 c 0
 1402.98339844 49.5205078125 1354.78222656 1.3193359375 1295.32324219 1.3193359375 c 0
 1235.86425781 1.3193359375 1187.66308594 49.5205078125 1187.66308594 108.978515625 c 0
1187.66308594 690.340820312 m 0
 1187.66308594 749.799804688 1235.86425781 798 1295.32324219 798 c 0
 1354.78222656 798 1402.98339844 749.799804688 1402.98339844 690.340820312 c 0
 1402.98339844 630.881835938 1354.78222656 582.680664062 1295.32324219 582.680664062 c 0
 1235.86425781 582.680664062 1187.66308594 630.881835938 1187.66308594 690.340820312 c 0
EndSplineSet
Validated: 1
EndChar

StartChar: ordfeminine
Encoding: 257 170 69
Width: 765
Flags: HW
HStem: 582.681 215.319<173.245 302.074>
VStem: 130 215.319<625.926 754.755>
LayerCount: 3
Fore
SplineSet
130 690.340820312 m 0
 130 749.799804688 178.200195312 798 237.659179688 798 c 0
 297.118164062 798 345.319335938 749.799804688 345.319335938 690.340820312 c 0
 345.319335938 630.881835938 297.118164062 582.680664062 237.659179688 582.680664062 c 0
 178.200195312 582.680664062 130 630.881835938 130 690.340820312 c 0
EndSplineSet
Validated: 1
EndChar

StartChar: registered
Encoding: 174 174 70
Width: 3064
Flags: HW
HStem: 1.31934 215.319<463.926 592.756 1164.03 1292.86 1573.9 1702.73 2274.59 2403.41> 292 215.32<173.245 302.074 1573.9 1702.73 1864.59 1993.41 2565.27 2694.1> 582.681 215.319<173.245 302.074 1164.03 1292.86 1573.9 1702.73 2565.27 2694.1>
VStem: 130 215.319<335.245 464.075 625.926 754.755> 420.681 215.32<44.5645 173.393> 1120.78 215.32<44.5645 173.393 625.926 754.755> 1530.66 215.319<44.5645 173.393 335.245 464.075 625.926 754.755> 1821.34 215.32<335.245 464.075> 2231.34 215.319<44.5645 173.393> 2522.02 215.32<335.245 464.075 625.926 754.755>
LayerCount: 3
Fore
SplineSet
2429 108.978515625 m 4
 2429 168.4375 2477.20019531 216.638671875 2536.65917969 216.638671875 c 4
 2596.11816406 216.638671875 2644.31933594 168.4375 2644.31933594 108.978515625 c 4
 2644.31933594 49.5205078125 2596.11816406 1.3193359375 2536.65917969 1.3193359375 c 4
 2477.20019531 1.3193359375 2429 49.5205078125 2429 108.978515625 c 4
2719.68066406 399.66015625 m 4
 2719.68066406 459.119140625 2767.88183594 507.3203125 2827.34082031 507.3203125 c 4
 2886.79980469 507.3203125 2935.00097656 459.119140625 2935.00097656 399.66015625 c 4
 2935.00097656 340.201171875 2886.79980469 292 2827.34082031 292 c 4
 2767.88183594 292 2719.68066406 340.201171875 2719.68066406 399.66015625 c 4
2719.68066406 690.340820312 m 4
 2719.68066406 749.799804688 2767.88183594 798 2827.34082031 798 c 4
 2886.79980469 798 2935.00097656 749.799804688 2935.00097656 690.340820312 c 4
 2935.00097656 630.881835938 2886.79980469 582.680664062 2827.34082031 582.680664062 c 4
 2767.88183594 582.680664062 2719.68066406 630.881835938 2719.68066406 690.340820312 c 4
1662 108.978515625 m 0
 1662 168.4375 1710.20019531 216.638671875 1769.65917969 216.638671875 c 0
 1829.11816406 216.638671875 1877.31933594 168.4375 1877.31933594 108.978515625 c 0
 1877.31933594 49.5205078125 1829.11816406 1.3193359375 1769.65917969 1.3193359375 c 0
 1710.20019531 1.3193359375 1662 49.5205078125 1662 108.978515625 c 0
1662 399.66015625 m 0
 1662 459.119140625 1710.20019531 507.3203125 1769.65917969 507.3203125 c 0
 1829.11816406 507.3203125 1877.31933594 459.119140625 1877.31933594 399.66015625 c 0
 1877.31933594 340.201171875 1829.11816406 292 1769.65917969 292 c 0
 1710.20019531 292 1662 340.201171875 1662 399.66015625 c 0
1662 690.340820312 m 0
 1662 749.799804688 1710.20019531 798 1769.65917969 798 c 0
 1829.11816406 798 1877.31933594 749.799804688 1877.31933594 690.340820312 c 0
 1877.31933594 630.881835938 1829.11816406 582.680664062 1769.65917969 582.680664062 c 0
 1710.20019531 582.680664062 1662 630.881835938 1662 690.340820312 c 0
1952.68066406 399.66015625 m 0
 1952.68066406 459.119140625 2000.88183594 507.3203125 2060.34082031 507.3203125 c 0
 2119.79980469 507.3203125 2168.00097656 459.119140625 2168.00097656 399.66015625 c 0
 2168.00097656 340.201171875 2119.79980469 292 2060.34082031 292 c 0
 2000.88183594 292 1952.68066406 340.201171875 1952.68066406 399.66015625 c 0
130 399.66015625 m 0
 130 459.119140625 178.200195312 507.3203125 237.659179688 507.3203125 c 0
 297.118164062 507.3203125 345.319335938 459.119140625 345.319335938 399.66015625 c 0
 345.319335938 340.201171875 297.118164062 292 237.659179688 292 c 0
 178.200195312 292 130 340.201171875 130 399.66015625 c 0
130 690.340820312 m 0
 130 749.799804688 178.200195312 798 237.659179688 798 c 0
 297.118164062 798 345.319335938 749.799804688 345.319335938 690.340820312 c 0
 345.319335938 630.881835938 297.118164062 582.680664062 237.659179688 582.680664062 c 0
 178.200195312 582.680664062 130 630.881835938 130 690.340820312 c 0
420.680664062 108.978515625 m 0
 420.680664062 168.4375 468.881835938 216.638671875 528.340820312 216.638671875 c 0
 587.799804688 216.638671875 636.000976562 168.4375 636.000976562 108.978515625 c 0
 636.000976562 49.5205078125 587.799804688 1.3193359375 528.340820312 1.3193359375 c 0
 468.881835938 1.3193359375 420.680664062 49.5205078125 420.680664062 108.978515625 c 0
1187.66308594 108.978515625 m 0
 1187.66308594 168.4375 1235.86425781 216.638671875 1295.32324219 216.638671875 c 0
 1354.78222656 216.638671875 1402.98339844 168.4375 1402.98339844 108.978515625 c 0
 1402.98339844 49.5205078125 1354.78222656 1.3193359375 1295.32324219 1.3193359375 c 0
 1235.86425781 1.3193359375 1187.66308594 49.5205078125 1187.66308594 108.978515625 c 0
1187.66308594 690.340820312 m 0
 1187.66308594 749.799804688 1235.86425781 798 1295.32324219 798 c 0
 1354.78222656 798 1402.98339844 749.799804688 1402.98339844 690.340820312 c 0
 1402.98339844 630.881835938 1354.78222656 582.680664062 1295.32324219 582.680664062 c 0
 1235.86425781 582.680664062 1187.66308594 630.881835938 1187.66308594 690.340820312 c 0
EndSplineSet
Validated: 1
EndChar

StartChar: degree
Encoding: 258 176 71
Width: 766
Flags: HW
HStem: 1.31934 215.319<173.245 302.074 463.926 592.756> 292 215.32<463.926 592.756>
VStem: 130 215.319<44.5645 173.393> 420.681 215.32<44.5645 173.393 335.245 464.075>
LayerCount: 3
Fore
SplineSet
130 108.978515625 m 0
 130 168.4375 178.200195312 216.638671875 237.659179688 216.638671875 c 0
 297.118164062 216.638671875 345.319335938 168.4375 345.319335938 108.978515625 c 0
 345.319335938 49.5205078125 297.118164062 1.3193359375 237.659179688 1.3193359375 c 0
 178.200195312 1.3193359375 130 49.5205078125 130 108.978515625 c 0
420.680664062 108.978515625 m 0
 420.680664062 168.4375 468.881835938 216.638671875 528.340820312 216.638671875 c 0
 587.799804688 216.638671875 636.000976562 168.4375 636.000976562 108.978515625 c 0
 636.000976562 49.5205078125 587.799804688 1.3193359375 528.340820312 1.3193359375 c 0
 468.881835938 1.3193359375 420.680664062 49.5205078125 420.680664062 108.978515625 c 0
420.680664062 399.66015625 m 0
 420.680664062 459.119140625 468.881835938 507.3203125 528.340820312 507.3203125 c 0
 587.799804688 507.3203125 636.000976562 459.119140625 636.000976562 399.66015625 c 0
 636.000976562 340.201171875 587.799804688 292 528.340820312 292 c 0
 468.881835938 292 420.680664062 340.201171875 420.680664062 399.66015625 c 0
EndSplineSet
Validated: 1
EndChar

StartChar: plusminus
Encoding: 259 177 72
Width: 2298
Flags: HW
HStem: 1.31934 215.319<173.245 302.074 1573.9 1702.73 1864.59 1993.41> 292 215.32<173.245 302.074 463.926 592.756 873.347 1002.18 1164.03 1292.86>
VStem: 130 215.319<44.5645 173.393 335.245 464.075> 420.681 215.32<335.245 464.075> 830.103 215.319<335.245 464.075> 1120.78 215.32<335.245 464.075> 1530.66 215.319<44.5645 173.393> 1821.34 215.32<44.5645 173.393>
LayerCount: 3
Fore
SplineSet
1662 108.978515625 m 0
 1662 168.4375 1710.20019531 216.638671875 1769.65917969 216.638671875 c 0
 1829.11816406 216.638671875 1877.31933594 168.4375 1877.31933594 108.978515625 c 0
 1877.31933594 49.5205078125 1829.11816406 1.3193359375 1769.65917969 1.3193359375 c 0
 1710.20019531 1.3193359375 1662 49.5205078125 1662 108.978515625 c 0
1952.68066406 108.978515625 m 0
 1952.68066406 168.4375 2000.88183594 216.638671875 2060.34082031 216.638671875 c 0
 2119.79980469 216.638671875 2168.00097656 168.4375 2168.00097656 108.978515625 c 0
 2168.00097656 49.5205078125 2119.79980469 1.3193359375 2060.34082031 1.3193359375 c 0
 2000.88183594 1.3193359375 1952.68066406 49.5205078125 1952.68066406 108.978515625 c 0
130 108.978515625 m 0
 130 168.4375 178.200195312 216.638671875 237.659179688 216.638671875 c 0
 297.118164062 216.638671875 345.319335938 168.4375 345.319335938 108.978515625 c 0
 345.319335938 49.5205078125 297.118164062 1.3193359375 237.659179688 1.3193359375 c 0
 178.200195312 1.3193359375 130 49.5205078125 130 108.978515625 c 0
130 399.66015625 m 0
 130 459.119140625 178.200195312 507.3203125 237.659179688 507.3203125 c 0
 297.118164062 507.3203125 345.319335938 459.119140625 345.319335938 399.66015625 c 0
 345.319335938 340.201171875 297.118164062 292 237.659179688 292 c 0
 178.200195312 292 130 340.201171875 130 399.66015625 c 0
420.680664062 399.66015625 m 0
 420.680664062 459.119140625 468.881835938 507.3203125 528.340820312 507.3203125 c 0
 587.799804688 507.3203125 636.000976562 459.119140625 636.000976562 399.66015625 c 0
 636.000976562 340.201171875 587.799804688 292 528.340820312 292 c 0
 468.881835938 292 420.680664062 340.201171875 420.680664062 399.66015625 c 0
896 399.66015625 m 0
 896 459.119140625 944.200195312 507.3203125 1003.65917969 507.3203125 c 0
 1063.11816406 507.3203125 1111.31933594 459.119140625 1111.31933594 399.66015625 c 0
 1111.31933594 340.201171875 1063.11816406 292 1003.65917969 292 c 0
 944.200195312 292 896 340.201171875 896 399.66015625 c 0
1186.68066406 399.66015625 m 0
 1186.68066406 459.119140625 1234.88183594 507.3203125 1294.34082031 507.3203125 c 0
 1353.79980469 507.3203125 1402.00097656 459.119140625 1402.00097656 399.66015625 c 0
 1402.00097656 340.201171875 1353.79980469 292 1294.34082031 292 c 0
 1234.88183594 292 1186.68066406 340.201171875 1186.68066406 399.66015625 c 0
EndSplineSet
Validated: 1
EndChar

StartChar: ordmasculine
Encoding: 260 186 73
Width: 766
Flags: HW
HStem: 1.31934 215.319<173.245 302.074> 292 215.32<463.926 592.756> 582.681 215.319<173.245 302.074>
VStem: 130 215.319<44.5645 173.393 625.926 754.755> 420.681 215.32<335.245 464.075>
LayerCount: 3
Fore
SplineSet
130 108.978515625 m 0
 130 168.4375 178.200195312 216.638671875 237.659179688 216.638671875 c 0
 297.118164062 216.638671875 345.319335938 168.4375 345.319335938 108.978515625 c 0
 345.319335938 49.5205078125 297.118164062 1.3193359375 237.659179688 1.3193359375 c 0
 178.200195312 1.3193359375 130 49.5205078125 130 108.978515625 c 0
130 690.340820312 m 0
 130 749.799804688 178.200195312 798 237.659179688 798 c 0
 297.118164062 798 345.319335938 749.799804688 345.319335938 690.340820312 c 0
 345.319335938 630.881835938 297.118164062 582.680664062 237.659179688 582.680664062 c 0
 178.200195312 582.680664062 130 630.881835938 130 690.340820312 c 0
420.680664062 399.66015625 m 0
 420.680664062 459.119140625 468.881835938 507.3203125 528.340820312 507.3203125 c 0
 587.799804688 507.3203125 636.000976562 459.119140625 636.000976562 399.66015625 c 0
 636.000976562 340.201171875 587.799804688 292 528.340820312 292 c 0
 468.881835938 292 420.680664062 340.201171875 420.680664062 399.66015625 c 0
EndSplineSet
Validated: 1
EndChar

StartChar: Oslash
Encoding: 216 216 74
Width: 1532
Flags: HW
HStem: 1.31934 215.319<463.575 592.405> 292 215.32<463.575 592.405 872.996 1001.83 1163.68 1292.51> 582.681 215.319<463.575 592.405 1163.68 1292.51>
VStem: 420.33 215.32<44.5645 173.393 335.245 464.075 625.926 754.755> 829.752 215.319<335.245 464.075> 1120.43 215.32<335.245 464.075 625.926 754.755>
LayerCount: 3
Fore
SplineSet
420.330078125 108.978515625 m 0
 420.330078125 168.4375 468.53125 216.638671875 527.990234375 216.638671875 c 0
 587.44921875 216.638671875 635.650390625 168.4375 635.650390625 108.978515625 c 0
 635.650390625 49.5205078125 587.44921875 1.3193359375 527.990234375 1.3193359375 c 0
 468.53125 1.3193359375 420.330078125 49.5205078125 420.330078125 108.978515625 c 0
420.330078125 399.66015625 m 0
 420.330078125 459.119140625 468.53125 507.3203125 527.990234375 507.3203125 c 0
 587.44921875 507.3203125 635.650390625 459.119140625 635.650390625 399.66015625 c 0
 635.650390625 340.201171875 587.44921875 292 527.990234375 292 c 0
 468.53125 292 420.330078125 340.201171875 420.330078125 399.66015625 c 0
420.330078125 690.340820312 m 0
 420.330078125 749.799804688 468.53125 798 527.990234375 798 c 0
 587.44921875 798 635.650390625 749.799804688 635.650390625 690.340820312 c 0
 635.650390625 630.881835938 587.44921875 582.680664062 527.990234375 582.680664062 c 0
 468.53125 582.680664062 420.330078125 630.881835938 420.330078125 690.340820312 c 0
896 399.66015625 m 4
 896 459.119140625 944.200195312 507.3203125 1003.65917969 507.3203125 c 4
 1063.11816406 507.3203125 1111.31933594 459.119140625 1111.31933594 399.66015625 c 4
 1111.31933594 340.201171875 1063.11816406 292 1003.65917969 292 c 4
 944.200195312 292 896 340.201171875 896 399.66015625 c 4
1186.68066406 399.66015625 m 4
 1186.68066406 459.119140625 1234.88183594 507.3203125 1294.34082031 507.3203125 c 4
 1353.79980469 507.3203125 1402.00097656 459.119140625 1402.00097656 399.66015625 c 4
 1402.00097656 340.201171875 1353.79980469 292 1294.34082031 292 c 4
 1234.88183594 292 1186.68066406 340.201171875 1186.68066406 399.66015625 c 4
1186.68066406 690.340820312 m 4
 1186.68066406 749.799804688 1234.88183594 798 1294.34082031 798 c 4
 1353.79980469 798 1402.00097656 749.799804688 1402.00097656 690.340820312 c 4
 1402.00097656 630.881835938 1353.79980469 582.680664062 1294.34082031 582.680664062 c 4
 1234.88183594 582.680664062 1186.68066406 630.881835938 1186.68066406 690.340820312 c 4
EndSplineSet
Validated: 1
EndChar

StartChar: agrave
Encoding: 224 224 75
Width: 766
Flags: HW
HStem: 1.31934 215.319<463.926 592.756> 292 215.32<173.245 302.074> 582.681 215.319<173.245 302.074 463.926 592.756>
VStem: 130 215.319<335.245 464.075 625.926 754.755> 420.681 215.32<44.5645 173.393 625.926 754.755>
LayerCount: 3
Fore
SplineSet
130 399.66015625 m 0
 130 459.119140625 178.200195312 507.3203125 237.659179688 507.3203125 c 0
 297.118164062 507.3203125 345.319335938 459.119140625 345.319335938 399.66015625 c 0
 345.319335938 340.201171875 297.118164062 292 237.659179688 292 c 0
 178.200195312 292 130 340.201171875 130 399.66015625 c 0
130 690.340820312 m 0
 130 749.799804688 178.200195312 798 237.659179688 798 c 0
 297.118164062 798 345.319335938 749.799804688 345.319335938 690.340820312 c 0
 345.319335938 630.881835938 297.118164062 582.680664062 237.659179688 582.680664062 c 0
 178.200195312 582.680664062 130 630.881835938 130 690.340820312 c 0
420.680664062 108.978515625 m 0
 420.680664062 168.4375 468.881835938 216.638671875 528.340820312 216.638671875 c 0
 587.799804688 216.638671875 636.000976562 168.4375 636.000976562 108.978515625 c 0
 636.000976562 49.5205078125 587.799804688 1.3193359375 528.340820312 1.3193359375 c 0
 468.881835938 1.3193359375 420.680664062 49.5205078125 420.680664062 108.978515625 c 0
420.680664062 690.340820312 m 0
 420.680664062 749.799804688 468.881835938 798 528.340820312 798 c 0
 587.799804688 798 636.000976562 749.799804688 636.000976562 690.340820312 c 0
 636.000976562 630.881835938 587.799804688 582.680664062 528.340820312 582.680664062 c 0
 468.881835938 582.680664062 420.680664062 630.881835938 420.680664062 690.340820312 c 0
EndSplineSet
Validated: 1
EndChar

StartChar: aacute
Encoding: 225 225 76
Width: 766
Flags: HW
HStem: 1.31934 215.319<173.245 302.074 463.926 592.756> 292 215.32<173.245 302.074 463.926 592.756> 582.681 215.319<173.245 302.074>
VStem: 130 215.319<44.5645 173.393 335.245 464.075 625.926 754.755> 420.681 215.32<44.5645 173.393 335.245 464.075>
LayerCount: 3
Fore
SplineSet
130 108.978515625 m 0
 130 168.4375 178.200195312 216.638671875 237.659179688 216.638671875 c 0
 297.118164062 216.638671875 345.319335938 168.4375 345.319335938 108.978515625 c 0
 345.319335938 49.5205078125 297.118164062 1.3193359375 237.659179688 1.3193359375 c 0
 178.200195312 1.3193359375 130 49.5205078125 130 108.978515625 c 0
130 399.66015625 m 0
 130 459.119140625 178.200195312 507.3203125 237.659179688 507.3203125 c 0
 297.118164062 507.3203125 345.319335938 459.119140625 345.319335938 399.66015625 c 0
 345.319335938 340.201171875 297.118164062 292 237.659179688 292 c 0
 178.200195312 292 130 340.201171875 130 399.66015625 c 0
130 690.340820312 m 0
 130 749.799804688 178.200195312 798 237.659179688 798 c 0
 297.118164062 798 345.319335938 749.799804688 345.319335938 690.340820312 c 0
 345.319335938 630.881835938 297.118164062 582.680664062 237.659179688 582.680664062 c 0
 178.200195312 582.680664062 130 630.881835938 130 690.340820312 c 0
420.680664062 108.978515625 m 0
 420.680664062 168.4375 468.881835938 216.638671875 528.340820312 216.638671875 c 0
 587.799804688 216.638671875 636.000976562 168.4375 636.000976562 108.978515625 c 0
 636.000976562 49.5205078125 587.799804688 1.3193359375 528.340820312 1.3193359375 c 0
 468.881835938 1.3193359375 420.680664062 49.5205078125 420.680664062 108.978515625 c 0
420.680664062 399.66015625 m 0
 420.680664062 459.119140625 468.881835938 507.3203125 528.340820312 507.3203125 c 0
 587.799804688 507.3203125 636.000976562 459.119140625 636.000976562 399.66015625 c 0
 636.000976562 340.201171875 587.799804688 292 528.340820312 292 c 0
 468.881835938 292 420.680664062 340.201171875 420.680664062 399.66015625 c 0
EndSplineSet
Validated: 1
EndChar

StartChar: acircumflex
Encoding: 226 226 77
Width: 766
Flags: HW
HStem: 1.31934 215.319<463.926 592.756> 582.681 215.319<173.245 302.074>
VStem: 130 215.319<625.926 754.755> 420.681 215.32<44.5645 173.393>
LayerCount: 3
Fore
SplineSet
130 690.340820312 m 0
 130 749.799804688 178.200195312 798 237.659179688 798 c 0
 297.118164062 798 345.319335938 749.799804688 345.319335938 690.340820312 c 0
 345.319335938 630.881835938 297.118164062 582.680664062 237.659179688 582.680664062 c 0
 178.200195312 582.680664062 130 630.881835938 130 690.340820312 c 0
420.680664062 108.978515625 m 0
 420.680664062 168.4375 468.881835938 216.638671875 528.340820312 216.638671875 c 0
 587.799804688 216.638671875 636.000976562 168.4375 636.000976562 108.978515625 c 0
 636.000976562 49.5205078125 587.799804688 1.3193359375 528.340820312 1.3193359375 c 0
 468.881835938 1.3193359375 420.680664062 49.5205078125 420.680664062 108.978515625 c 0
EndSplineSet
Validated: 1
EndChar

StartChar: atilde
Encoding: 227 227 78
Width: 766
Flags: HW
HStem: 1.31934 215.319<173.245 302.074> 292 215.32<463.926 592.756> 582.681 215.319<463.926 592.756>
VStem: 130 215.319<44.5645 173.393> 420.681 215.32<335.245 464.075 625.926 754.755>
LayerCount: 3
Fore
SplineSet
130 108.978515625 m 0
 130 168.4375 178.200195312 216.638671875 237.659179688 216.638671875 c 0
 297.118164062 216.638671875 345.319335938 168.4375 345.319335938 108.978515625 c 0
 345.319335938 49.5205078125 297.118164062 1.3193359375 237.659179688 1.3193359375 c 0
 178.200195312 1.3193359375 130 49.5205078125 130 108.978515625 c 0
420.680664062 399.66015625 m 0
 420.680664062 459.119140625 468.881835938 507.3203125 528.340820312 507.3203125 c 0
 587.799804688 507.3203125 636.000976562 459.119140625 636.000976562 399.66015625 c 0
 636.000976562 340.201171875 587.799804688 292 528.340820312 292 c 0
 468.881835938 292 420.680664062 340.201171875 420.680664062 399.66015625 c 0
420.680664062 690.340820312 m 0
 420.680664062 749.799804688 468.881835938 798 528.340820312 798 c 0
 587.799804688 798 636.000976562 749.799804688 636.000976562 690.340820312 c 0
 636.000976562 630.881835938 587.799804688 582.680664062 528.340820312 582.680664062 c 0
 468.881835938 582.680664062 420.680664062 630.881835938 420.680664062 690.340820312 c 0
EndSplineSet
Validated: 1
EndChar

StartChar: adieresis
Encoding: 228 228 79
Width: 766
Flags: HW
HStem: 1.31934 215.319<173.245 302.074> 292 215.32<463.926 592.756> 582.681 215.319<463.926 592.756>
VStem: 130 215.319<44.5645 173.393> 420.681 215.32<335.245 464.075 625.926 754.755>
LayerCount: 3
Fore
SplineSet
130 108.978515625 m 0
 130 168.4375 178.200195312 216.638671875 237.659179688 216.638671875 c 0
 297.118164062 216.638671875 345.319335938 168.4375 345.319335938 108.978515625 c 0
 345.319335938 49.5205078125 297.118164062 1.3193359375 237.659179688 1.3193359375 c 0
 178.200195312 1.3193359375 130 49.5205078125 130 108.978515625 c 0
420.680664062 399.66015625 m 0
 420.680664062 459.119140625 468.881835938 507.3203125 528.340820312 507.3203125 c 0
 587.799804688 507.3203125 636.000976562 459.119140625 636.000976562 399.66015625 c 0
 636.000976562 340.201171875 587.799804688 292 528.340820312 292 c 0
 468.881835938 292 420.680664062 340.201171875 420.680664062 399.66015625 c 0
420.680664062 690.340820312 m 0
 420.680664062 749.799804688 468.881835938 798 528.340820312 798 c 0
 587.799804688 798 636.000976562 749.799804688 636.000976562 690.340820312 c 0
 636.000976562 630.881835938 587.799804688 582.680664062 528.340820312 582.680664062 c 0
 468.881835938 582.680664062 420.680664062 630.881835938 420.680664062 690.340820312 c 0
EndSplineSet
Validated: 1
EndChar

StartChar: ae
Encoding: 230 230 80
Width: 1532
Flags: HW
HStem: 292 215.32<1164.03 1292.86> 582.681 215.319<173.245 302.074 873.347 1002.18>
VStem: 130 215.319<625.926 754.755> 830.103 215.319<625.926 754.755> 1120.78 215.32<335.245 464.075>
LayerCount: 3
Fore
SplineSet
130 690.340820312 m 0
 130 749.799804688 178.200195312 798 237.659179688 798 c 0
 297.118164062 798 345.319335938 749.799804688 345.319335938 690.340820312 c 0
 345.319335938 630.881835938 297.118164062 582.680664062 237.659179688 582.680664062 c 0
 178.200195312 582.680664062 130 630.881835938 130 690.340820312 c 0
896 690.340820312 m 0
 896 749.799804688 944.200195312 798 1003.65917969 798 c 0
 1063.11816406 798 1111.31933594 749.799804688 1111.31933594 690.340820312 c 0
 1111.31933594 630.881835938 1063.11816406 582.680664062 1003.65917969 582.680664062 c 0
 944.200195312 582.680664062 896 630.881835938 896 690.340820312 c 0
1186.68066406 399.66015625 m 0
 1186.68066406 459.119140625 1234.88183594 507.3203125 1294.34082031 507.3203125 c 0
 1353.79980469 507.3203125 1402.00097656 459.119140625 1402.00097656 399.66015625 c 0
 1402.00097656 340.201171875 1353.79980469 292 1294.34082031 292 c 0
 1234.88183594 292 1186.68066406 340.201171875 1186.68066406 399.66015625 c 0
EndSplineSet
Validated: 1
EndChar

StartChar: ccedilla
Encoding: 231 231 81
Width: 766
Flags: HW
HStem: 1.31934 215.319<173.245 302.074 463.926 592.756> 292 215.32<173.245 302.074> 582.681 215.319<173.245 302.074 463.926 592.756>
VStem: 130 215.319<44.5645 173.393 335.245 464.075 625.926 754.755> 420.681 215.32<44.5645 173.393 625.926 754.755>
LayerCount: 3
Fore
SplineSet
130 108.978515625 m 0
 130 168.4375 178.200195312 216.638671875 237.659179688 216.638671875 c 0
 297.118164062 216.638671875 345.319335938 168.4375 345.319335938 108.978515625 c 0
 345.319335938 49.5205078125 297.118164062 1.3193359375 237.659179688 1.3193359375 c 0
 178.200195312 1.3193359375 130 49.5205078125 130 108.978515625 c 0
130 399.66015625 m 0
 130 459.119140625 178.200195312 507.3203125 237.659179688 507.3203125 c 0
 297.118164062 507.3203125 345.319335938 459.119140625 345.319335938 399.66015625 c 0
 345.319335938 340.201171875 297.118164062 292 237.659179688 292 c 0
 178.200195312 292 130 340.201171875 130 399.66015625 c 0
130 690.340820312 m 0
 130 749.799804688 178.200195312 798 237.659179688 798 c 0
 297.118164062 798 345.319335938 749.799804688 345.319335938 690.340820312 c 0
 345.319335938 630.881835938 297.118164062 582.680664062 237.659179688 582.680664062 c 0
 178.200195312 582.680664062 130 630.881835938 130 690.340820312 c 0
420.680664062 108.978515625 m 0
 420.680664062 168.4375 468.881835938 216.638671875 528.340820312 216.638671875 c 0
 587.799804688 216.638671875 636.000976562 168.4375 636.000976562 108.978515625 c 0
 636.000976562 49.5205078125 587.799804688 1.3193359375 528.340820312 1.3193359375 c 0
 468.881835938 1.3193359375 420.680664062 49.5205078125 420.680664062 108.978515625 c 0
420.680664062 690.340820312 m 0
 420.680664062 749.799804688 468.881835938 798 528.340820312 798 c 0
 587.799804688 798 636.000976562 749.799804688 636.000976562 690.340820312 c 0
 636.000976562 630.881835938 587.799804688 582.680664062 528.340820312 582.680664062 c 0
 468.881835938 582.680664062 420.680664062 630.881835938 420.680664062 690.340820312 c 0
EndSplineSet
Validated: 1
EndChar

StartChar: egrave
Encoding: 232 232 82
Width: 766
Flags: HW
HStem: 1.31934 215.319<173.245 302.074 463.926 592.756> 292 215.32<173.245 302.074> 582.681 215.319<463.926 592.756>
VStem: 130 215.319<44.5645 173.393 335.245 464.075> 420.681 215.32<44.5645 173.393 625.926 754.755>
LayerCount: 3
Fore
SplineSet
130 108.978515625 m 0
 130 168.4375 178.200195312 216.638671875 237.659179688 216.638671875 c 0
 297.118164062 216.638671875 345.319335938 168.4375 345.319335938 108.978515625 c 0
 345.319335938 49.5205078125 297.118164062 1.3193359375 237.659179688 1.3193359375 c 0
 178.200195312 1.3193359375 130 49.5205078125 130 108.978515625 c 0
130 399.66015625 m 0
 130 459.119140625 178.200195312 507.3203125 237.659179688 507.3203125 c 0
 297.118164062 507.3203125 345.319335938 459.119140625 345.319335938 399.66015625 c 0
 345.319335938 340.201171875 297.118164062 292 237.659179688 292 c 0
 178.200195312 292 130 340.201171875 130 399.66015625 c 0
420.680664062 108.978515625 m 0
 420.680664062 168.4375 468.881835938 216.638671875 528.340820312 216.638671875 c 0
 587.799804688 216.638671875 636.000976562 168.4375 636.000976562 108.978515625 c 0
 636.000976562 49.5205078125 587.799804688 1.3193359375 528.340820312 1.3193359375 c 0
 468.881835938 1.3193359375 420.680664062 49.5205078125 420.680664062 108.978515625 c 0
420.680664062 690.340820312 m 0
 420.680664062 749.799804688 468.881835938 798 528.340820312 798 c 0
 587.799804688 798 636.000976562 749.799804688 636.000976562 690.340820312 c 0
 636.000976562 630.881835938 587.799804688 582.680664062 528.340820312 582.680664062 c 0
 468.881835938 582.680664062 420.680664062 630.881835938 420.680664062 690.340820312 c 0
EndSplineSet
Validated: 1
EndChar

StartChar: eacute
Encoding: 233 233 83
Width: 766
Flags: HW
HStem: 1.31934 215.319<173.245 302.074 463.926 592.756> 292 215.32<173.245 302.074 463.926 592.756> 582.681 215.319<173.245 302.074 463.926 592.756>
VStem: 130 215.319<44.5645 173.393 335.245 464.075 625.926 754.755> 420.681 215.32<44.5645 173.393 335.245 464.075 625.926 754.755>
LayerCount: 3
Fore
SplineSet
130 108.978515625 m 0
 130 168.4375 178.200195312 216.638671875 237.659179688 216.638671875 c 0
 297.118164062 216.638671875 345.319335938 168.4375 345.319335938 108.978515625 c 0
 345.319335938 49.5205078125 297.118164062 1.3193359375 237.659179688 1.3193359375 c 0
 178.200195312 1.3193359375 130 49.5205078125 130 108.978515625 c 0
130 399.66015625 m 0
 130 459.119140625 178.200195312 507.3203125 237.659179688 507.3203125 c 0
 297.118164062 507.3203125 345.319335938 459.119140625 345.319335938 399.66015625 c 0
 345.319335938 340.201171875 297.118164062 292 237.659179688 292 c 0
 178.200195312 292 130 340.201171875 130 399.66015625 c 0
130 690.340820312 m 0
 130 749.799804688 178.200195312 798 237.659179688 798 c 0
 297.118164062 798 345.319335938 749.799804688 345.319335938 690.340820312 c 0
 345.319335938 630.881835938 297.118164062 582.680664062 237.659179688 582.680664062 c 0
 178.200195312 582.680664062 130 630.881835938 130 690.340820312 c 0
420.680664062 108.978515625 m 0
 420.680664062 168.4375 468.881835938 216.638671875 528.340820312 216.638671875 c 0
 587.799804688 216.638671875 636.000976562 168.4375 636.000976562 108.978515625 c 0
 636.000976562 49.5205078125 587.799804688 1.3193359375 528.340820312 1.3193359375 c 0
 468.881835938 1.3193359375 420.680664062 49.5205078125 420.680664062 108.978515625 c 0
420.680664062 399.66015625 m 0
 420.680664062 459.119140625 468.881835938 507.3203125 528.340820312 507.3203125 c 0
 587.799804688 507.3203125 636.000976562 459.119140625 636.000976562 399.66015625 c 0
 636.000976562 340.201171875 587.799804688 292 528.340820312 292 c 0
 468.881835938 292 420.680664062 340.201171875 420.680664062 399.66015625 c 0
420.680664062 690.340820312 m 0
 420.680664062 749.799804688 468.881835938 798 528.340820312 798 c 0
 587.799804688 798 636.000976562 749.799804688 636.000976562 690.340820312 c 0
 636.000976562 630.881835938 587.799804688 582.680664062 528.340820312 582.680664062 c 0
 468.881835938 582.680664062 420.680664062 630.881835938 420.680664062 690.340820312 c 0
EndSplineSet
Validated: 1
EndChar

StartChar: ecircumflex
Encoding: 234 234 84
Width: 766
Flags: HW
HStem: 1.31934 215.319<463.926 592.756> 292 215.32<173.245 302.074> 582.681 215.319<173.245 302.074 463.926 592.756>
VStem: 130 215.319<335.245 464.075 625.926 754.755> 420.681 215.32<44.5645 173.393 625.926 754.755>
LayerCount: 3
Fore
SplineSet
130 399.66015625 m 0
 130 459.119140625 178.200195312 507.3203125 237.659179688 507.3203125 c 0
 297.118164062 507.3203125 345.319335938 459.119140625 345.319335938 399.66015625 c 0
 345.319335938 340.201171875 297.118164062 292 237.659179688 292 c 0
 178.200195312 292 130 340.201171875 130 399.66015625 c 0
130 690.340820312 m 0
 130 749.799804688 178.200195312 798 237.659179688 798 c 0
 297.118164062 798 345.319335938 749.799804688 345.319335938 690.340820312 c 0
 345.319335938 630.881835938 297.118164062 582.680664062 237.659179688 582.680664062 c 0
 178.200195312 582.680664062 130 630.881835938 130 690.340820312 c 0
420.680664062 108.978515625 m 0
 420.680664062 168.4375 468.881835938 216.638671875 528.340820312 216.638671875 c 0
 587.799804688 216.638671875 636.000976562 168.4375 636.000976562 108.978515625 c 0
 636.000976562 49.5205078125 587.799804688 1.3193359375 528.340820312 1.3193359375 c 0
 468.881835938 1.3193359375 420.680664062 49.5205078125 420.680664062 108.978515625 c 0
EndSplineSet
EndChar

StartChar: edieresis
Encoding: 235 235 85
Width: 766
Flags: HW
HStem: 1.31934 215.319<463.926 592.756> 292 215.32<173.245 302.074> 582.681 215.319<173.245 302.074 463.926 592.756>
VStem: 130 215.319<335.245 464.075 625.926 754.755> 420.681 215.32<44.5645 173.393 625.926 754.755>
LayerCount: 3
Fore
SplineSet
130 399.66015625 m 0
 130 459.119140625 178.200195312 507.3203125 237.659179688 507.3203125 c 0
 297.118164062 507.3203125 345.319335938 459.119140625 345.319335938 399.66015625 c 0
 345.319335938 340.201171875 297.118164062 292 237.659179688 292 c 0
 178.200195312 292 130 340.201171875 130 399.66015625 c 0
130 690.340820312 m 0
 130 749.799804688 178.200195312 798 237.659179688 798 c 0
 297.118164062 798 345.319335938 749.799804688 345.319335938 690.340820312 c 0
 345.319335938 630.881835938 297.118164062 582.680664062 237.659179688 582.680664062 c 0
 178.200195312 582.680664062 130 630.881835938 130 690.340820312 c 0
420.680664062 108.978515625 m 0
 420.680664062 168.4375 468.881835938 216.638671875 528.340820312 216.638671875 c 0
 587.799804688 216.638671875 636.000976562 168.4375 636.000976562 108.978515625 c 0
 636.000976562 49.5205078125 587.799804688 1.3193359375 528.340820312 1.3193359375 c 0
 468.881835938 1.3193359375 420.680664062 49.5205078125 420.680664062 108.978515625 c 0
420.680664062 690.340820312 m 0
 420.680664062 749.799804688 468.881835938 798 528.340820312 798 c 0
 587.799804688 798 636.000976562 749.799804688 636.000976562 690.340820312 c 0
 636.000976562 630.881835938 587.799804688 582.680664062 528.340820312 582.680664062 c 0
 468.881835938 582.680664062 420.680664062 630.881835938 420.680664062 690.340820312 c 0
EndSplineSet
Validated: 1
EndChar

StartChar: igrave
Encoding: 236 236 86
Width: 766
Flags: HW
HStem: 1.31934 215.319<173.245 302.074> 582.681 215.319<463.926 592.756>
VStem: 130 215.319<44.5645 173.393> 420.681 215.32<625.926 754.755>
LayerCount: 3
Fore
SplineSet
130 108.978515625 m 0
 130 168.4375 178.200195312 216.638671875 237.659179688 216.638671875 c 0
 297.118164062 216.638671875 345.319335938 168.4375 345.319335938 108.978515625 c 0
 345.319335938 49.5205078125 297.118164062 1.3193359375 237.659179688 1.3193359375 c 0
 178.200195312 1.3193359375 130 49.5205078125 130 108.978515625 c 0
420.680664062 690.340820312 m 0
 420.680664062 749.799804688 468.881835938 798 528.340820312 798 c 0
 587.799804688 798 636.000976562 749.799804688 636.000976562 690.340820312 c 0
 636.000976562 630.881835938 587.799804688 582.680664062 528.340820312 582.680664062 c 0
 468.881835938 582.680664062 420.680664062 630.881835938 420.680664062 690.340820312 c 0
EndSplineSet
Validated: 1
EndChar

StartChar: iacute
Encoding: 237 237 87
Width: 766
Flags: HW
HStem: 1.31934 215.319<173.245 302.074> 582.681 215.319<463.926 592.756>
VStem: 130 215.319<44.5645 173.393> 420.681 215.32<625.926 754.755>
LayerCount: 3
Fore
SplineSet
130 108.978515625 m 0
 130 168.4375 178.200195312 216.638671875 237.659179688 216.638671875 c 0
 297.118164062 216.638671875 345.319335938 168.4375 345.319335938 108.978515625 c 0
 345.319335938 49.5205078125 297.118164062 1.3193359375 237.659179688 1.3193359375 c 0
 178.200195312 1.3193359375 130 49.5205078125 130 108.978515625 c 0
420.680664062 690.340820312 m 0
 420.680664062 749.799804688 468.881835938 798 528.340820312 798 c 0
 587.799804688 798 636.000976562 749.799804688 636.000976562 690.340820312 c 0
 636.000976562 630.881835938 587.799804688 582.680664062 528.340820312 582.680664062 c 0
 468.881835938 582.680664062 420.680664062 630.881835938 420.680664062 690.340820312 c 0
EndSplineSet
Validated: 1
EndChar

StartChar: icircumflex
Encoding: 238 238 88
Width: 766
Flags: HW
HStem: 1.31934 215.319<463.926 592.756> 582.681 215.319<173.245 302.074 463.926 592.756>
VStem: 130 215.319<625.926 754.755> 420.681 215.32<44.5645 173.393 625.926 754.755>
LayerCount: 3
Fore
SplineSet
130 690.340820312 m 0
 130 749.799804688 178.200195312 798 237.659179688 798 c 0
 297.118164062 798 345.319335938 749.799804688 345.319335938 690.340820312 c 0
 345.319335938 630.881835938 297.118164062 582.680664062 237.659179688 582.680664062 c 0
 178.200195312 582.680664062 130 630.881835938 130 690.340820312 c 0
420.680664062 108.978515625 m 0
 420.680664062 168.4375 468.881835938 216.638671875 528.340820312 216.638671875 c 0
 587.799804688 216.638671875 636.000976562 168.4375 636.000976562 108.978515625 c 0
 636.000976562 49.5205078125 587.799804688 1.3193359375 528.340820312 1.3193359375 c 0
 468.881835938 1.3193359375 420.680664062 49.5205078125 420.680664062 108.978515625 c 0
420.680664062 690.340820312 m 0
 420.680664062 749.799804688 468.881835938 798 528.340820312 798 c 0
 587.799804688 798 636.000976562 749.799804688 636.000976562 690.340820312 c 0
 636.000976562 630.881835938 587.799804688 582.680664062 528.340820312 582.680664062 c 0
 468.881835938 582.680664062 420.680664062 630.881835938 420.680664062 690.340820312 c 0
EndSplineSet
Validated: 1
EndChar

StartChar: idieresis
Encoding: 239 239 89
Width: 766
Flags: HW
HStem: 1.31934 215.319<463.926 592.756> 292 215.32<173.245 302.074 463.926 592.756> 582.681 215.319<173.245 302.074 463.926 592.756>
VStem: 130 215.319<335.245 464.075 625.926 754.755> 420.681 215.32<44.5645 173.393 335.245 464.075 625.926 754.755>
LayerCount: 3
Fore
SplineSet
130 399.66015625 m 0
 130 459.119140625 178.200195312 507.3203125 237.659179688 507.3203125 c 0
 297.118164062 507.3203125 345.319335938 459.119140625 345.319335938 399.66015625 c 0
 345.319335938 340.201171875 297.118164062 292 237.659179688 292 c 0
 178.200195312 292 130 340.201171875 130 399.66015625 c 0
130 690.340820312 m 0
 130 749.799804688 178.200195312 798 237.659179688 798 c 0
 297.118164062 798 345.319335938 749.799804688 345.319335938 690.340820312 c 0
 345.319335938 630.881835938 297.118164062 582.680664062 237.659179688 582.680664062 c 0
 178.200195312 582.680664062 130 630.881835938 130 690.340820312 c 0
420.680664062 108.978515625 m 0
 420.680664062 168.4375 468.881835938 216.638671875 528.340820312 216.638671875 c 0
 587.799804688 216.638671875 636.000976562 168.4375 636.000976562 108.978515625 c 0
 636.000976562 49.5205078125 587.799804688 1.3193359375 528.340820312 1.3193359375 c 0
 468.881835938 1.3193359375 420.680664062 49.5205078125 420.680664062 108.978515625 c 0
420.680664062 399.66015625 m 0
 420.680664062 459.119140625 468.881835938 507.3203125 528.340820312 507.3203125 c 0
 587.799804688 507.3203125 636.000976562 459.119140625 636.000976562 399.66015625 c 0
 636.000976562 340.201171875 587.799804688 292 528.340820312 292 c 0
 468.881835938 292 420.680664062 340.201171875 420.680664062 399.66015625 c 0
420.680664062 690.340820312 m 0
 420.680664062 749.799804688 468.881835938 798 528.340820312 798 c 0
 587.799804688 798 636.000976562 749.799804688 636.000976562 690.340820312 c 0
 636.000976562 630.881835938 587.799804688 582.680664062 528.340820312 582.680664062 c 0
 468.881835938 582.680664062 420.680664062 630.881835938 420.680664062 690.340820312 c 0
EndSplineSet
Validated: 1
EndChar

StartChar: ntilde
Encoding: 241 241 90
Width: 766
Flags: HW
HStem: 1.31934 215.319<463.926 592.756> 292 215.32<173.245 302.074 463.926 592.756> 582.681 215.319<173.245 302.074 463.926 592.756>
VStem: 130 215.319<335.245 464.075 625.926 754.755> 420.681 215.32<44.5645 173.393 335.245 464.075 625.926 754.755>
LayerCount: 3
Fore
SplineSet
130 399.66015625 m 0
 130 459.119140625 178.200195312 507.3203125 237.659179688 507.3203125 c 0
 297.118164062 507.3203125 345.319335938 459.119140625 345.319335938 399.66015625 c 0
 345.319335938 340.201171875 297.118164062 292 237.659179688 292 c 0
 178.200195312 292 130 340.201171875 130 399.66015625 c 0
130 690.340820312 m 0
 130 749.799804688 178.200195312 798 237.659179688 798 c 0
 297.118164062 798 345.319335938 749.799804688 345.319335938 690.340820312 c 0
 345.319335938 630.881835938 297.118164062 582.680664062 237.659179688 582.680664062 c 0
 178.200195312 582.680664062 130 630.881835938 130 690.340820312 c 0
420.680664062 108.978515625 m 0
 420.680664062 168.4375 468.881835938 216.638671875 528.340820312 216.638671875 c 0
 587.799804688 216.638671875 636.000976562 168.4375 636.000976562 108.978515625 c 0
 636.000976562 49.5205078125 587.799804688 1.3193359375 528.340820312 1.3193359375 c 0
 468.881835938 1.3193359375 420.680664062 49.5205078125 420.680664062 108.978515625 c 0
420.680664062 399.66015625 m 0
 420.680664062 459.119140625 468.881835938 507.3203125 528.340820312 507.3203125 c 0
 587.799804688 507.3203125 636.000976562 459.119140625 636.000976562 399.66015625 c 0
 636.000976562 340.201171875 587.799804688 292 528.340820312 292 c 0
 468.881835938 292 420.680664062 340.201171875 420.680664062 399.66015625 c 0
420.680664062 690.340820312 m 0
 420.680664062 749.799804688 468.881835938 798 528.340820312 798 c 0
 587.799804688 798 636.000976562 749.799804688 636.000976562 690.340820312 c 0
 636.000976562 630.881835938 587.799804688 582.680664062 528.340820312 582.680664062 c 0
 468.881835938 582.680664062 420.680664062 630.881835938 420.680664062 690.340820312 c 0
EndSplineSet
Validated: 1
EndChar

StartChar: ograve
Encoding: 242 242 91
Width: 766
Flags: HW
HStem: 1.31934 215.319<173.245 302.074 463.926 592.756> 582.681 215.319<463.926 592.756>
VStem: 130 215.319<44.5645 173.393> 420.681 215.32<44.5645 173.393 625.926 754.755>
LayerCount: 3
Fore
SplineSet
130 108.978515625 m 0
 130 168.4375 178.200195312 216.638671875 237.659179688 216.638671875 c 0
 297.118164062 216.638671875 345.319335938 168.4375 345.319335938 108.978515625 c 0
 345.319335938 49.5205078125 297.118164062 1.3193359375 237.659179688 1.3193359375 c 0
 178.200195312 1.3193359375 130 49.5205078125 130 108.978515625 c 0
420.680664062 108.978515625 m 0
 420.680664062 168.4375 468.881835938 216.638671875 528.340820312 216.638671875 c 0
 587.799804688 216.638671875 636.000976562 168.4375 636.000976562 108.978515625 c 0
 636.000976562 49.5205078125 587.799804688 1.3193359375 528.340820312 1.3193359375 c 0
 468.881835938 1.3193359375 420.680664062 49.5205078125 420.680664062 108.978515625 c 0
420.680664062 690.340820312 m 0
 420.680664062 749.799804688 468.881835938 798 528.340820312 798 c 0
 587.799804688 798 636.000976562 749.799804688 636.000976562 690.340820312 c 0
 636.000976562 630.881835938 587.799804688 582.680664062 528.340820312 582.680664062 c 0
 468.881835938 582.680664062 420.680664062 630.881835938 420.680664062 690.340820312 c 0
EndSplineSet
Validated: 1
EndChar

StartChar: oacute
Encoding: 243 243 92
Width: 766
Flags: HW
HStem: 1.31934 215.319<173.245 302.074 463.926 592.756> 582.681 215.319<463.926 592.756>
VStem: 130 215.319<44.5645 173.393> 420.681 215.32<44.5645 173.393 625.926 754.755>
LayerCount: 3
Fore
SplineSet
130 108.978515625 m 0
 130 168.4375 178.200195312 216.638671875 237.659179688 216.638671875 c 0
 297.118164062 216.638671875 345.319335938 168.4375 345.319335938 108.978515625 c 0
 345.319335938 49.5205078125 297.118164062 1.3193359375 237.659179688 1.3193359375 c 0
 178.200195312 1.3193359375 130 49.5205078125 130 108.978515625 c 0
420.680664062 108.978515625 m 0
 420.680664062 168.4375 468.881835938 216.638671875 528.340820312 216.638671875 c 0
 587.799804688 216.638671875 636.000976562 168.4375 636.000976562 108.978515625 c 0
 636.000976562 49.5205078125 587.799804688 1.3193359375 528.340820312 1.3193359375 c 0
 468.881835938 1.3193359375 420.680664062 49.5205078125 420.680664062 108.978515625 c 0
420.680664062 690.340820312 m 0
 420.680664062 749.799804688 468.881835938 798 528.340820312 798 c 0
 587.799804688 798 636.000976562 749.799804688 636.000976562 690.340820312 c 0
 636.000976562 630.881835938 587.799804688 582.680664062 528.340820312 582.680664062 c 0
 468.881835938 582.680664062 420.680664062 630.881835938 420.680664062 690.340820312 c 0
EndSplineSet
Validated: 1
EndChar

StartChar: ocircumflex
Encoding: 244 244 93
Width: 766
Flags: HW
HStem: 1.31934 215.319<463.926 592.756> 292 215.32<463.926 592.756> 582.681 215.319<173.245 302.074 463.926 592.756>
VStem: 130 215.319<625.926 754.755> 420.681 215.32<44.5645 173.393 335.245 464.075 625.926 754.755>
LayerCount: 3
Fore
SplineSet
130 690.340820312 m 0
 130 749.799804688 178.200195312 798 237.659179688 798 c 0
 297.118164062 798 345.319335938 749.799804688 345.319335938 690.340820312 c 0
 345.319335938 630.881835938 297.118164062 582.680664062 237.659179688 582.680664062 c 0
 178.200195312 582.680664062 130 630.881835938 130 690.340820312 c 0
420.680664062 108.978515625 m 0
 420.680664062 168.4375 468.881835938 216.638671875 528.340820312 216.638671875 c 0
 587.799804688 216.638671875 636.000976562 168.4375 636.000976562 108.978515625 c 0
 636.000976562 49.5205078125 587.799804688 1.3193359375 528.340820312 1.3193359375 c 0
 468.881835938 1.3193359375 420.680664062 49.5205078125 420.680664062 108.978515625 c 0
420.680664062 399.66015625 m 0
 420.680664062 459.119140625 468.881835938 507.3203125 528.340820312 507.3203125 c 0
 587.799804688 507.3203125 636.000976562 459.119140625 636.000976562 399.66015625 c 0
 636.000976562 340.201171875 587.799804688 292 528.340820312 292 c 0
 468.881835938 292 420.680664062 340.201171875 420.680664062 399.66015625 c 0
420.680664062 690.340820312 m 0
 420.680664062 749.799804688 468.881835938 798 528.340820312 798 c 0
 587.799804688 798 636.000976562 749.799804688 636.000976562 690.340820312 c 0
 636.000976562 630.881835938 587.799804688 582.680664062 528.340820312 582.680664062 c 0
 468.881835938 582.680664062 420.680664062 630.881835938 420.680664062 690.340820312 c 0
EndSplineSet
Validated: 1
EndChar

StartChar: otilde
Encoding: 245 245 94
Width: 766
Flags: HW
HStem: 1.31934 215.319<463.926 592.756> 292 215.32<173.245 302.074> 582.681 215.319<463.926 592.756>
VStem: 130 215.319<335.245 464.075> 420.681 215.32<44.5645 173.393 625.926 754.755>
LayerCount: 3
Fore
SplineSet
130 399.66015625 m 0
 130 459.119140625 178.200195312 507.3203125 237.659179688 507.3203125 c 0
 297.118164062 507.3203125 345.319335938 459.119140625 345.319335938 399.66015625 c 0
 345.319335938 340.201171875 297.118164062 292 237.659179688 292 c 0
 178.200195312 292 130 340.201171875 130 399.66015625 c 0
420.680664062 108.978515625 m 0
 420.680664062 168.4375 468.881835938 216.638671875 528.340820312 216.638671875 c 0
 587.799804688 216.638671875 636.000976562 168.4375 636.000976562 108.978515625 c 0
 636.000976562 49.5205078125 587.799804688 1.3193359375 528.340820312 1.3193359375 c 0
 468.881835938 1.3193359375 420.680664062 49.5205078125 420.680664062 108.978515625 c 0
420.680664062 690.340820312 m 0
 420.680664062 749.799804688 468.881835938 798 528.340820312 798 c 0
 587.799804688 798 636.000976562 749.799804688 636.000976562 690.340820312 c 0
 636.000976562 630.881835938 587.799804688 582.680664062 528.340820312 582.680664062 c 0
 468.881835938 582.680664062 420.680664062 630.881835938 420.680664062 690.340820312 c 0
EndSplineSet
Validated: 1
EndChar

StartChar: odieresis
Encoding: 246 246 95
Width: 766
Flags: HW
HStem: 1.31934 215.319<463.926 592.756> 292 215.32<173.245 302.074> 582.681 215.319<463.926 592.756>
VStem: 130 215.319<335.245 464.075> 420.681 215.32<44.5645 173.393 625.926 754.755>
LayerCount: 3
Fore
SplineSet
130 399.66015625 m 0
 130 459.119140625 178.200195312 507.3203125 237.659179688 507.3203125 c 0
 297.118164062 507.3203125 345.319335938 459.119140625 345.319335938 399.66015625 c 0
 345.319335938 340.201171875 297.118164062 292 237.659179688 292 c 0
 178.200195312 292 130 340.201171875 130 399.66015625 c 0
420.680664062 108.978515625 m 0
 420.680664062 168.4375 468.881835938 216.638671875 528.340820312 216.638671875 c 0
 587.799804688 216.638671875 636.000976562 168.4375 636.000976562 108.978515625 c 0
 636.000976562 49.5205078125 587.799804688 1.3193359375 528.340820312 1.3193359375 c 0
 468.881835938 1.3193359375 420.680664062 49.5205078125 420.680664062 108.978515625 c 0
420.680664062 690.340820312 m 0
 420.680664062 749.799804688 468.881835938 798 528.340820312 798 c 0
 587.799804688 798 636.000976562 749.799804688 636.000976562 690.340820312 c 0
 636.000976562 630.881835938 587.799804688 582.680664062 528.340820312 582.680664062 c 0
 468.881835938 582.680664062 420.680664062 630.881835938 420.680664062 690.340820312 c 0
EndSplineSet
Validated: 1
EndChar

StartChar: divide
Encoding: 261 247 96
Width: 766
Flags: HW
HStem: 1.31934 215.319<463.926 592.756> 292 215.32<173.245 302.074 463.926 592.756>
VStem: 130 215.319<335.245 464.075> 420.681 215.32<44.5645 173.393 335.245 464.075>
LayerCount: 3
Fore
SplineSet
130 399.66015625 m 0
 130 459.119140625 178.200195312 507.3203125 237.659179688 507.3203125 c 0
 297.118164062 507.3203125 345.319335938 459.119140625 345.319335938 399.66015625 c 0
 345.319335938 340.201171875 297.118164062 292 237.659179688 292 c 0
 178.200195312 292 130 340.201171875 130 399.66015625 c 0
420.680664062 108.978515625 m 0
 420.680664062 168.4375 468.881835938 216.638671875 528.340820312 216.638671875 c 0
 587.799804688 216.638671875 636.000976562 168.4375 636.000976562 108.978515625 c 0
 636.000976562 49.5205078125 587.799804688 1.3193359375 528.340820312 1.3193359375 c 0
 468.881835938 1.3193359375 420.680664062 49.5205078125 420.680664062 108.978515625 c 0
420.680664062 399.66015625 m 0
 420.680664062 459.119140625 468.881835938 507.3203125 528.340820312 507.3203125 c 0
 587.799804688 507.3203125 636.000976562 459.119140625 636.000976562 399.66015625 c 0
 636.000976562 340.201171875 587.799804688 292 528.340820312 292 c 0
 468.881835938 292 420.680664062 340.201171875 420.680664062 399.66015625 c 0
EndSplineSet
Validated: 1
EndChar

StartChar: oslash
Encoding: 248 248 97
Width: 1532
Flags: HW
HStem: 1.31934 215.319<463.245 592.075> 292 215.32<463.245 592.075 872.666 1001.5 1163.35 1292.18> 582.681 215.319<463.245 592.075 1163.35 1292.18>
VStem: 420 215.32<44.5645 173.393 335.245 464.075 625.926 754.755> 829.422 215.319<335.245 464.075> 1120.1 215.32<335.245 464.075 625.926 754.755>
LayerCount: 3
Fore
SplineSet
420 108.978515625 m 0
 420 168.4375 468.201171875 216.638671875 527.66015625 216.638671875 c 0
 587.119140625 216.638671875 635.3203125 168.4375 635.3203125 108.978515625 c 0
 635.3203125 49.5205078125 587.119140625 1.3193359375 527.66015625 1.3193359375 c 0
 468.201171875 1.3193359375 420 49.5205078125 420 108.978515625 c 0
420 399.66015625 m 0
 420 459.119140625 468.201171875 507.3203125 527.66015625 507.3203125 c 0
 587.119140625 507.3203125 635.3203125 459.119140625 635.3203125 399.66015625 c 0
 635.3203125 340.201171875 587.119140625 292 527.66015625 292 c 0
 468.201171875 292 420 340.201171875 420 399.66015625 c 0
420 690.340820312 m 0
 420 749.799804688 468.201171875 798 527.66015625 798 c 0
 587.119140625 798 635.3203125 749.799804688 635.3203125 690.340820312 c 0
 635.3203125 630.881835938 587.119140625 582.680664062 527.66015625 582.680664062 c 0
 468.201171875 582.680664062 420 630.881835938 420 690.340820312 c 0
896 399.66015625 m 0
 896 459.119140625 944.200195312 507.3203125 1003.65917969 507.3203125 c 0
 1063.11816406 507.3203125 1111.31933594 459.119140625 1111.31933594 399.66015625 c 0
 1111.31933594 340.201171875 1063.11816406 292 1003.65917969 292 c 0
 944.200195312 292 896 340.201171875 896 399.66015625 c 0
1186.68066406 399.66015625 m 0
 1186.68066406 459.119140625 1234.88183594 507.3203125 1294.34082031 507.3203125 c 0
 1353.79980469 507.3203125 1402.00097656 459.119140625 1402.00097656 399.66015625 c 0
 1402.00097656 340.201171875 1353.79980469 292 1294.34082031 292 c 0
 1234.88183594 292 1186.68066406 340.201171875 1186.68066406 399.66015625 c 0
1186.68066406 690.340820312 m 0
 1186.68066406 749.799804688 1234.88183594 798 1294.34082031 798 c 0
 1353.79980469 798 1402.00097656 749.799804688 1402.00097656 690.340820312 c 0
 1402.00097656 630.881835938 1353.79980469 582.680664062 1294.34082031 582.680664062 c 0
 1234.88183594 582.680664062 1186.68066406 630.881835938 1186.68066406 690.340820312 c 0
EndSplineSet
Validated: 1
EndChar

StartChar: ugrave
Encoding: 249 249 98
Width: 766
Flags: HW
HStem: 1.31934 215.319<173.245 302.074 463.926 592.756> 292 215.32<173.245 302.074 463.926 592.756> 582.681 215.319<463.926 592.756>
VStem: 130 215.319<44.5645 173.393 335.245 464.075> 420.681 215.32<44.5645 173.393 335.245 464.075 625.926 754.755>
LayerCount: 3
Fore
SplineSet
130 108.978515625 m 0
 130 168.4375 178.200195312 216.638671875 237.659179688 216.638671875 c 0
 297.118164062 216.638671875 345.319335938 168.4375 345.319335938 108.978515625 c 0
 345.319335938 49.5205078125 297.118164062 1.3193359375 237.659179688 1.3193359375 c 0
 178.200195312 1.3193359375 130 49.5205078125 130 108.978515625 c 0
130 399.66015625 m 0
 130 459.119140625 178.200195312 507.3203125 237.659179688 507.3203125 c 0
 297.118164062 507.3203125 345.319335938 459.119140625 345.319335938 399.66015625 c 0
 345.319335938 340.201171875 297.118164062 292 237.659179688 292 c 0
 178.200195312 292 130 340.201171875 130 399.66015625 c 0
420.680664062 108.978515625 m 0
 420.680664062 168.4375 468.881835938 216.638671875 528.340820312 216.638671875 c 0
 587.799804688 216.638671875 636.000976562 168.4375 636.000976562 108.978515625 c 0
 636.000976562 49.5205078125 587.799804688 1.3193359375 528.340820312 1.3193359375 c 0
 468.881835938 1.3193359375 420.680664062 49.5205078125 420.680664062 108.978515625 c 0
420.680664062 399.66015625 m 0
 420.680664062 459.119140625 468.881835938 507.3203125 528.340820312 507.3203125 c 0
 587.799804688 507.3203125 636.000976562 459.119140625 636.000976562 399.66015625 c 0
 636.000976562 340.201171875 587.799804688 292 528.340820312 292 c 0
 468.881835938 292 420.680664062 340.201171875 420.680664062 399.66015625 c 0
420.680664062 690.340820312 m 0
 420.680664062 749.799804688 468.881835938 798 528.340820312 798 c 0
 587.799804688 798 636.000976562 749.799804688 636.000976562 690.340820312 c 0
 636.000976562 630.881835938 587.799804688 582.680664062 528.340820312 582.680664062 c 0
 468.881835938 582.680664062 420.680664062 630.881835938 420.680664062 690.340820312 c 0
EndSplineSet
Validated: 1
EndChar

StartChar: uacute
Encoding: 250 250 99
Width: 766
Flags: HW
HStem: 1.31934 215.319<173.245 302.074 463.926 592.756> 292 215.32<173.245 302.074 463.926 592.756> 582.681 215.319<463.926 592.756>
VStem: 130 215.319<44.5645 173.393 335.245 464.075> 420.681 215.32<44.5645 173.393 335.245 464.075 625.926 754.755>
LayerCount: 3
Fore
SplineSet
130 108.978515625 m 0
 130 168.4375 178.200195312 216.638671875 237.659179688 216.638671875 c 0
 297.118164062 216.638671875 345.319335938 168.4375 345.319335938 108.978515625 c 0
 345.319335938 49.5205078125 297.118164062 1.3193359375 237.659179688 1.3193359375 c 0
 178.200195312 1.3193359375 130 49.5205078125 130 108.978515625 c 0
130 399.66015625 m 0
 130 459.119140625 178.200195312 507.3203125 237.659179688 507.3203125 c 0
 297.118164062 507.3203125 345.319335938 459.119140625 345.319335938 399.66015625 c 0
 345.319335938 340.201171875 297.118164062 292 237.659179688 292 c 0
 178.200195312 292 130 340.201171875 130 399.66015625 c 0
420.680664062 108.978515625 m 0
 420.680664062 168.4375 468.881835938 216.638671875 528.340820312 216.638671875 c 0
 587.799804688 216.638671875 636.000976562 168.4375 636.000976562 108.978515625 c 0
 636.000976562 49.5205078125 587.799804688 1.3193359375 528.340820312 1.3193359375 c 0
 468.881835938 1.3193359375 420.680664062 49.5205078125 420.680664062 108.978515625 c 0
420.680664062 399.66015625 m 0
 420.680664062 459.119140625 468.881835938 507.3203125 528.340820312 507.3203125 c 0
 587.799804688 507.3203125 636.000976562 459.119140625 636.000976562 399.66015625 c 0
 636.000976562 340.201171875 587.799804688 292 528.340820312 292 c 0
 468.881835938 292 420.680664062 340.201171875 420.680664062 399.66015625 c 0
420.680664062 690.340820312 m 0
 420.680664062 749.799804688 468.881835938 798 528.340820312 798 c 0
 587.799804688 798 636.000976562 749.799804688 636.000976562 690.340820312 c 0
 636.000976562 630.881835938 587.799804688 582.680664062 528.340820312 582.680664062 c 0
 468.881835938 582.680664062 420.680664062 630.881835938 420.680664062 690.340820312 c 0
EndSplineSet
Validated: 1
EndChar

StartChar: udieresis
Encoding: 252 252 100
Width: 766
Flags: HW
HStem: 1.31934 215.319<463.926 592.756> 292 215.32<173.245 302.074 463.926 592.756> 582.681 215.319<173.245 302.074>
VStem: 130 215.319<335.245 464.075 625.926 754.755> 420.681 215.32<44.5645 173.393 335.245 464.075>
LayerCount: 3
Fore
SplineSet
130 399.66015625 m 0
 130 459.119140625 178.200195312 507.3203125 237.659179688 507.3203125 c 0
 297.118164062 507.3203125 345.319335938 459.119140625 345.319335938 399.66015625 c 0
 345.319335938 340.201171875 297.118164062 292 237.659179688 292 c 0
 178.200195312 292 130 340.201171875 130 399.66015625 c 0
130 690.340820312 m 0
 130 749.799804688 178.200195312 798 237.659179688 798 c 0
 297.118164062 798 345.319335938 749.799804688 345.319335938 690.340820312 c 0
 345.319335938 630.881835938 297.118164062 582.680664062 237.659179688 582.680664062 c 0
 178.200195312 582.680664062 130 630.881835938 130 690.340820312 c 0
420.680664062 108.978515625 m 0
 420.680664062 168.4375 468.881835938 216.638671875 528.340820312 216.638671875 c 0
 587.799804688 216.638671875 636.000976562 168.4375 636.000976562 108.978515625 c 0
 636.000976562 49.5205078125 587.799804688 1.3193359375 528.340820312 1.3193359375 c 0
 468.881835938 1.3193359375 420.680664062 49.5205078125 420.680664062 108.978515625 c 0
420.680664062 399.66015625 m 0
 420.680664062 459.119140625 468.881835938 507.3203125 528.340820312 507.3203125 c 0
 587.799804688 507.3203125 636.000976562 459.119140625 636.000976562 399.66015625 c 0
 636.000976562 340.201171875 587.799804688 292 528.340820312 292 c 0
 468.881835938 292 420.680664062 340.201171875 420.680664062 399.66015625 c 0
EndSplineSet
Validated: 1
EndChar

StartChar: exclam
Encoding: 33 33 101
Width: 766
Flags: HW
HStem: 1.31934 215.319<173.245 302.074> 292 215.32<173.245 302.074 463.926 592.756>
VStem: 130 215.319<44.5645 173.393 335.245 464.075> 420.681 215.32<335.245 464.075>
LayerCount: 3
Fore
SplineSet
130 108.978515625 m 0
 130 168.4375 178.200195312 216.638671875 237.659179688 216.638671875 c 0
 297.118164062 216.638671875 345.319335938 168.4375 345.319335938 108.978515625 c 0
 345.319335938 49.5205078125 297.118164062 1.3193359375 237.659179688 1.3193359375 c 0
 178.200195312 1.3193359375 130 49.5205078125 130 108.978515625 c 0
130 399.66015625 m 0
 130 459.119140625 178.200195312 507.3203125 237.659179688 507.3203125 c 0
 297.118164062 507.3203125 345.319335938 459.119140625 345.319335938 399.66015625 c 0
 345.319335938 340.201171875 297.118164062 292 237.659179688 292 c 0
 178.200195312 292 130 340.201171875 130 399.66015625 c 0
420.680664062 399.66015625 m 0
 420.680664062 459.119140625 468.881835938 507.3203125 528.340820312 507.3203125 c 0
 587.799804688 507.3203125 636.000976562 459.119140625 636.000976562 399.66015625 c 0
 636.000976562 340.201171875 587.799804688 292 528.340820312 292 c 0
 468.881835938 292 420.680664062 340.201171875 420.680664062 399.66015625 c 0
EndSplineSet
Validated: 1
EndChar

StartChar: quotedbl
Encoding: 34 34 102
Width: 766
Flags: HW
HStem: 1.31934 215.319<173.245 302.074 463.926 592.756> 292 215.32<173.245 302.074>
VStem: 130 215.319<44.5645 173.393 335.245 464.075> 420.681 215.32<44.5645 173.393>
LayerCount: 3
Fore
SplineSet
130 108.978515625 m 0
 130 168.4375 178.200195312 216.638671875 237.659179688 216.638671875 c 0
 297.118164062 216.638671875 345.319335938 168.4375 345.319335938 108.978515625 c 0
 345.319335938 49.5205078125 297.118164062 1.3193359375 237.659179688 1.3193359375 c 0
 178.200195312 1.3193359375 130 49.5205078125 130 108.978515625 c 0
130 399.66015625 m 0
 130 459.119140625 178.200195312 507.3203125 237.659179688 507.3203125 c 0
 297.118164062 507.3203125 345.319335938 459.119140625 345.319335938 399.66015625 c 0
 345.319335938 340.201171875 297.118164062 292 237.659179688 292 c 0
 178.200195312 292 130 340.201171875 130 399.66015625 c 0
420.680664062 108.978515625 m 0
 420.680664062 168.4375 468.881835938 216.638671875 528.340820312 216.638671875 c 0
 587.799804688 216.638671875 636.000976562 168.4375 636.000976562 108.978515625 c 0
 636.000976562 49.5205078125 587.799804688 1.3193359375 528.340820312 1.3193359375 c 0
 468.881835938 1.3193359375 420.680664062 49.5205078125 420.680664062 108.978515625 c 0
EndSplineSet
Validated: 1
EndChar

StartChar: ohungarumlaut
Encoding: 262 337 103
Width: 3064
Flags: HW
HStem: 1.31934 215.319<173.245 302.074 463.926 592.756 873.347 1002.18 1164.03 1292.86 1573.9 1702.73 1864.59 1993.41 2274.24 2403.07 2564.93 2693.76> 292 215.32<173.245 302.074 463.926 592.756 873.347 1002.18 1164.03 1292.86 1573.9 1702.73 1864.59 1993.41 2274.24 2403.07 2564.93 2693.76> 582.681 215.319<173.245 302.074 463.926 592.756 873.347 1002.18 1164.03 1292.86 1573.9 1702.73 1864.59 1993.41 2274.24 2403.07 2564.93 2693.76>
VStem: 130 215.319<44.5645 173.393 335.245 464.075 625.926 754.755> 420.681 215.32<44.5645 173.393 335.245 464.075 625.926 754.755> 830.103 215.319<44.5645 173.393 335.245 464.075 625.926 754.755> 1120.78 215.32<44.5645 173.393 335.245 464.075 625.926 754.755> 1530.66 215.319<44.5645 173.393 335.245 464.075 625.926 754.755> 1821.34 215.32<44.5645 173.393 335.245 464.075 625.926 754.755> 2231 215.319<44.5645 173.393 335.245 464.075 625.926 754.755> 2521.68 215.32<44.5645 173.393 335.245 464.075 625.926 754.755>
LayerCount: 3
Fore
SplineSet
2428 108.978515625 m 4
 2428 168.4375 2476.20019531 216.638671875 2535.65917969 216.638671875 c 4
 2595.11816406 216.638671875 2643.31933594 168.4375 2643.31933594 108.978515625 c 4
 2643.31933594 49.5205078125 2595.11816406 1.3193359375 2535.65917969 1.3193359375 c 4
 2476.20019531 1.3193359375 2428 49.5205078125 2428 108.978515625 c 4
2428 399.66015625 m 4
 2428 459.119140625 2476.20019531 507.3203125 2535.65917969 507.3203125 c 4
 2595.11816406 507.3203125 2643.31933594 459.119140625 2643.31933594 399.66015625 c 4
 2643.31933594 340.201171875 2595.11816406 292 2535.65917969 292 c 4
 2476.20019531 292 2428 340.201171875 2428 399.66015625 c 4
2428 690.340820312 m 4
 2428 749.799804688 2476.20019531 798 2535.65917969 798 c 4
 2595.11816406 798 2643.31933594 749.799804688 2643.31933594 690.340820312 c 4
 2643.31933594 630.881835938 2595.11816406 582.680664062 2535.65917969 582.680664062 c 4
 2476.20019531 582.680664062 2428 630.881835938 2428 690.340820312 c 4
2718.68066406 108.978515625 m 4
 2718.68066406 168.4375 2766.88183594 216.638671875 2826.34082031 216.638671875 c 4
 2885.79980469 216.638671875 2934.00097656 168.4375 2934.00097656 108.978515625 c 4
 2934.00097656 49.5205078125 2885.79980469 1.3193359375 2826.34082031 1.3193359375 c 4
 2766.88183594 1.3193359375 2718.68066406 49.5205078125 2718.68066406 108.978515625 c 4
2718.68066406 399.66015625 m 4
 2718.68066406 459.119140625 2766.88183594 507.3203125 2826.34082031 507.3203125 c 4
 2885.79980469 507.3203125 2934.00097656 459.119140625 2934.00097656 399.66015625 c 4
 2934.00097656 340.201171875 2885.79980469 292 2826.34082031 292 c 4
 2766.88183594 292 2718.68066406 340.201171875 2718.68066406 399.66015625 c 4
2718.68066406 690.340820312 m 4
 2718.68066406 749.799804688 2766.88183594 798 2826.34082031 798 c 4
 2885.79980469 798 2934.00097656 749.799804688 2934.00097656 690.340820312 c 4
 2934.00097656 630.881835938 2885.79980469 582.680664062 2826.34082031 582.680664062 c 4
 2766.88183594 582.680664062 2718.68066406 630.881835938 2718.68066406 690.340820312 c 4
1662 108.978515625 m 4
 1662 168.4375 1710.20019531 216.638671875 1769.65917969 216.638671875 c 4
 1829.11816406 216.638671875 1877.31933594 168.4375 1877.31933594 108.978515625 c 4
 1877.31933594 49.5205078125 1829.11816406 1.3193359375 1769.65917969 1.3193359375 c 4
 1710.20019531 1.3193359375 1662 49.5205078125 1662 108.978515625 c 4
1662 399.66015625 m 4
 1662 459.119140625 1710.20019531 507.3203125 1769.65917969 507.3203125 c 4
 1829.11816406 507.3203125 1877.31933594 459.119140625 1877.31933594 399.66015625 c 4
 1877.31933594 340.201171875 1829.11816406 292 1769.65917969 292 c 4
 1710.20019531 292 1662 340.201171875 1662 399.66015625 c 4
1662 690.340820312 m 4
 1662 749.799804688 1710.20019531 798 1769.65917969 798 c 4
 1829.11816406 798 1877.31933594 749.799804688 1877.31933594 690.340820312 c 4
 1877.31933594 630.881835938 1829.11816406 582.680664062 1769.65917969 582.680664062 c 4
 1710.20019531 582.680664062 1662 630.881835938 1662 690.340820312 c 4
1952.68066406 108.978515625 m 4
 1952.68066406 168.4375 2000.88183594 216.638671875 2060.34082031 216.638671875 c 4
 2119.79980469 216.638671875 2168.00097656 168.4375 2168.00097656 108.978515625 c 4
 2168.00097656 49.5205078125 2119.79980469 1.3193359375 2060.34082031 1.3193359375 c 4
 2000.88183594 1.3193359375 1952.68066406 49.5205078125 1952.68066406 108.978515625 c 4
1952.68066406 399.66015625 m 4
 1952.68066406 459.119140625 2000.88183594 507.3203125 2060.34082031 507.3203125 c 4
 2119.79980469 507.3203125 2168.00097656 459.119140625 2168.00097656 399.66015625 c 4
 2168.00097656 340.201171875 2119.79980469 292 2060.34082031 292 c 4
 2000.88183594 292 1952.68066406 340.201171875 1952.68066406 399.66015625 c 4
1952.68066406 690.340820312 m 4
 1952.68066406 749.799804688 2000.88183594 798 2060.34082031 798 c 4
 2119.79980469 798 2168.00097656 749.799804688 2168.00097656 690.340820312 c 4
 2168.00097656 630.881835938 2119.79980469 582.680664062 2060.34082031 582.680664062 c 4
 2000.88183594 582.680664062 1952.68066406 630.881835938 1952.68066406 690.340820312 c 4
130 108.978515625 m 4
 130 168.4375 178.200195312 216.638671875 237.659179688 216.638671875 c 4
 297.118164062 216.638671875 345.319335938 168.4375 345.319335938 108.978515625 c 4
 345.319335938 49.5205078125 297.118164062 1.3193359375 237.659179688 1.3193359375 c 4
 178.200195312 1.3193359375 130 49.5205078125 130 108.978515625 c 4
130 399.66015625 m 4
 130 459.119140625 178.200195312 507.3203125 237.659179688 507.3203125 c 4
 297.118164062 507.3203125 345.319335938 459.119140625 345.319335938 399.66015625 c 4
 345.319335938 340.201171875 297.118164062 292 237.659179688 292 c 4
 178.200195312 292 130 340.201171875 130 399.66015625 c 4
130 690.340820312 m 4
 130 749.799804688 178.200195312 798 237.659179688 798 c 4
 297.118164062 798 345.319335938 749.799804688 345.319335938 690.340820312 c 4
 345.319335938 630.881835938 297.118164062 582.680664062 237.659179688 582.680664062 c 4
 178.200195312 582.680664062 130 630.881835938 130 690.340820312 c 4
420.680664062 108.978515625 m 4
 420.680664062 168.4375 468.881835938 216.638671875 528.340820312 216.638671875 c 4
 587.799804688 216.638671875 636.000976562 168.4375 636.000976562 108.978515625 c 4
 636.000976562 49.5205078125 587.799804688 1.3193359375 528.340820312 1.3193359375 c 4
 468.881835938 1.3193359375 420.680664062 49.5205078125 420.680664062 108.978515625 c 4
420.680664062 399.66015625 m 4
 420.680664062 459.119140625 468.881835938 507.3203125 528.340820312 507.3203125 c 4
 587.799804688 507.3203125 636.000976562 459.119140625 636.000976562 399.66015625 c 4
 636.000976562 340.201171875 587.799804688 292 528.340820312 292 c 4
 468.881835938 292 420.680664062 340.201171875 420.680664062 399.66015625 c 4
420.680664062 690.340820312 m 4
 420.680664062 749.799804688 468.881835938 798 528.340820312 798 c 4
 587.799804688 798 636.000976562 749.799804688 636.000976562 690.340820312 c 4
 636.000976562 630.881835938 587.799804688 582.680664062 528.340820312 582.680664062 c 4
 468.881835938 582.680664062 420.680664062 630.881835938 420.680664062 690.340820312 c 4
896 108.978515625 m 4
 896 168.4375 944.200195312 216.638671875 1003.65917969 216.638671875 c 4
 1063.11816406 216.638671875 1111.31933594 168.4375 1111.31933594 108.978515625 c 4
 1111.31933594 49.5205078125 1063.11816406 1.3193359375 1003.65917969 1.3193359375 c 4
 944.200195312 1.3193359375 896 49.5205078125 896 108.978515625 c 4
896 399.66015625 m 4
 896 459.119140625 944.200195312 507.3203125 1003.65917969 507.3203125 c 4
 1063.11816406 507.3203125 1111.31933594 459.119140625 1111.31933594 399.66015625 c 4
 1111.31933594 340.201171875 1063.11816406 292 1003.65917969 292 c 4
 944.200195312 292 896 340.201171875 896 399.66015625 c 4
896 690.340820312 m 4
 896 749.799804688 944.200195312 798 1003.65917969 798 c 4
 1063.11816406 798 1111.31933594 749.799804688 1111.31933594 690.340820312 c 4
 1111.31933594 630.881835938 1063.11816406 582.680664062 1003.65917969 582.680664062 c 4
 944.200195312 582.680664062 896 630.881835938 896 690.340820312 c 4
1186.68066406 108.978515625 m 4
 1186.68066406 168.4375 1234.88183594 216.638671875 1294.34082031 216.638671875 c 4
 1353.79980469 216.638671875 1402.00097656 168.4375 1402.00097656 108.978515625 c 4
 1402.00097656 49.5205078125 1353.79980469 1.3193359375 1294.34082031 1.3193359375 c 4
 1234.88183594 1.3193359375 1186.68066406 49.5205078125 1186.68066406 108.978515625 c 4
1186.68066406 399.66015625 m 4
 1186.68066406 459.119140625 1234.88183594 507.3203125 1294.34082031 507.3203125 c 4
 1353.79980469 507.3203125 1402.00097656 459.119140625 1402.00097656 399.66015625 c 4
 1402.00097656 340.201171875 1353.79980469 292 1294.34082031 292 c 4
 1234.88183594 292 1186.68066406 340.201171875 1186.68066406 399.66015625 c 4
1186.68066406 690.340820312 m 4
 1186.68066406 749.799804688 1234.88183594 798 1294.34082031 798 c 4
 1353.79980469 798 1402.00097656 749.799804688 1402.00097656 690.340820312 c 4
 1402.00097656 630.881835938 1353.79980469 582.680664062 1294.34082031 582.680664062 c 4
 1234.88183594 582.680664062 1186.68066406 630.881835938 1186.68066406 690.340820312 c 4
EndSplineSet
Validated: 1
EndChar

StartChar: Ohungarumlaut
Encoding: 263 336 104
Width: 2298
Flags: HW
HStem: 1.31934 215.319<173.245 302.074 463.926 592.756 873.347 1002.18 1164.03 1292.86 1573.9 1702.73 1864.59 1993.41> 292 215.32<173.245 302.074 463.926 592.756 873.347 1002.18 1164.03 1292.86 1573.9 1702.73 1864.59 1993.41> 582.681 215.319<173.245 302.074 463.926 592.756 873.347 1002.18 1164.03 1292.86 1573.9 1702.73 1864.59 1993.41>
VStem: 130 215.319<44.5645 173.393 335.245 464.075 625.926 754.755> 420.681 215.32<44.5645 173.393 335.245 464.075 625.926 754.755> 830.103 215.319<44.5645 173.393 335.245 464.075 625.926 754.755> 1120.78 215.32<44.5645 173.393 335.245 464.075 625.926 754.755> 1530.66 215.319<44.5645 173.393 335.245 464.075 625.926 754.755> 1821.34 215.32<44.5645 173.393 335.245 464.075 625.926 754.755>
LayerCount: 3
Fore
SplineSet
1662 108.978515625 m 4
 1662 168.4375 1710.20019531 216.638671875 1769.65917969 216.638671875 c 4
 1829.11816406 216.638671875 1877.31933594 168.4375 1877.31933594 108.978515625 c 4
 1877.31933594 49.5205078125 1829.11816406 1.3193359375 1769.65917969 1.3193359375 c 4
 1710.20019531 1.3193359375 1662 49.5205078125 1662 108.978515625 c 4
1662 399.66015625 m 4
 1662 459.119140625 1710.20019531 507.3203125 1769.65917969 507.3203125 c 4
 1829.11816406 507.3203125 1877.31933594 459.119140625 1877.31933594 399.66015625 c 4
 1877.31933594 340.201171875 1829.11816406 292 1769.65917969 292 c 4
 1710.20019531 292 1662 340.201171875 1662 399.66015625 c 4
1662 690.340820312 m 4
 1662 749.799804688 1710.20019531 798 1769.65917969 798 c 4
 1829.11816406 798 1877.31933594 749.799804688 1877.31933594 690.340820312 c 4
 1877.31933594 630.881835938 1829.11816406 582.680664062 1769.65917969 582.680664062 c 4
 1710.20019531 582.680664062 1662 630.881835938 1662 690.340820312 c 4
1952.68066406 108.978515625 m 4
 1952.68066406 168.4375 2000.88183594 216.638671875 2060.34082031 216.638671875 c 4
 2119.79980469 216.638671875 2168.00097656 168.4375 2168.00097656 108.978515625 c 4
 2168.00097656 49.5205078125 2119.79980469 1.3193359375 2060.34082031 1.3193359375 c 4
 2000.88183594 1.3193359375 1952.68066406 49.5205078125 1952.68066406 108.978515625 c 4
1952.68066406 399.66015625 m 4
 1952.68066406 459.119140625 2000.88183594 507.3203125 2060.34082031 507.3203125 c 4
 2119.79980469 507.3203125 2168.00097656 459.119140625 2168.00097656 399.66015625 c 4
 2168.00097656 340.201171875 2119.79980469 292 2060.34082031 292 c 4
 2000.88183594 292 1952.68066406 340.201171875 1952.68066406 399.66015625 c 4
1952.68066406 690.340820312 m 4
 1952.68066406 749.799804688 2000.88183594 798 2060.34082031 798 c 4
 2119.79980469 798 2168.00097656 749.799804688 2168.00097656 690.340820312 c 4
 2168.00097656 630.881835938 2119.79980469 582.680664062 2060.34082031 582.680664062 c 4
 2000.88183594 582.680664062 1952.68066406 630.881835938 1952.68066406 690.340820312 c 4
130 108.978515625 m 0
 130 168.4375 178.200195312 216.638671875 237.659179688 216.638671875 c 0
 297.118164062 216.638671875 345.319335938 168.4375 345.319335938 108.978515625 c 0
 345.319335938 49.5205078125 297.118164062 1.3193359375 237.659179688 1.3193359375 c 0
 178.200195312 1.3193359375 130 49.5205078125 130 108.978515625 c 0
130 399.66015625 m 0
 130 459.119140625 178.200195312 507.3203125 237.659179688 507.3203125 c 0
 297.118164062 507.3203125 345.319335938 459.119140625 345.319335938 399.66015625 c 0
 345.319335938 340.201171875 297.118164062 292 237.659179688 292 c 0
 178.200195312 292 130 340.201171875 130 399.66015625 c 0
130 690.340820312 m 0
 130 749.799804688 178.200195312 798 237.659179688 798 c 0
 297.118164062 798 345.319335938 749.799804688 345.319335938 690.340820312 c 0
 345.319335938 630.881835938 297.118164062 582.680664062 237.659179688 582.680664062 c 0
 178.200195312 582.680664062 130 630.881835938 130 690.340820312 c 0
420.680664062 108.978515625 m 0
 420.680664062 168.4375 468.881835938 216.638671875 528.340820312 216.638671875 c 0
 587.799804688 216.638671875 636.000976562 168.4375 636.000976562 108.978515625 c 0
 636.000976562 49.5205078125 587.799804688 1.3193359375 528.340820312 1.3193359375 c 0
 468.881835938 1.3193359375 420.680664062 49.5205078125 420.680664062 108.978515625 c 0
420.680664062 399.66015625 m 0
 420.680664062 459.119140625 468.881835938 507.3203125 528.340820312 507.3203125 c 0
 587.799804688 507.3203125 636.000976562 459.119140625 636.000976562 399.66015625 c 0
 636.000976562 340.201171875 587.799804688 292 528.340820312 292 c 0
 468.881835938 292 420.680664062 340.201171875 420.680664062 399.66015625 c 0
420.680664062 690.340820312 m 0
 420.680664062 749.799804688 468.881835938 798 528.340820312 798 c 0
 587.799804688 798 636.000976562 749.799804688 636.000976562 690.340820312 c 0
 636.000976562 630.881835938 587.799804688 582.680664062 528.340820312 582.680664062 c 0
 468.881835938 582.680664062 420.680664062 630.881835938 420.680664062 690.340820312 c 0
896 108.978515625 m 0
 896 168.4375 944.200195312 216.638671875 1003.65917969 216.638671875 c 0
 1063.11816406 216.638671875 1111.31933594 168.4375 1111.31933594 108.978515625 c 0
 1111.31933594 49.5205078125 1063.11816406 1.3193359375 1003.65917969 1.3193359375 c 0
 944.200195312 1.3193359375 896 49.5205078125 896 108.978515625 c 0
896 399.66015625 m 0
 896 459.119140625 944.200195312 507.3203125 1003.65917969 507.3203125 c 0
 1063.11816406 507.3203125 1111.31933594 459.119140625 1111.31933594 399.66015625 c 0
 1111.31933594 340.201171875 1063.11816406 292 1003.65917969 292 c 0
 944.200195312 292 896 340.201171875 896 399.66015625 c 0
896 690.340820312 m 0
 896 749.799804688 944.200195312 798 1003.65917969 798 c 0
 1063.11816406 798 1111.31933594 749.799804688 1111.31933594 690.340820312 c 0
 1111.31933594 630.881835938 1063.11816406 582.680664062 1003.65917969 582.680664062 c 0
 944.200195312 582.680664062 896 630.881835938 896 690.340820312 c 0
1186.68066406 108.978515625 m 0
 1186.68066406 168.4375 1234.88183594 216.638671875 1294.34082031 216.638671875 c 0
 1353.79980469 216.638671875 1402.00097656 168.4375 1402.00097656 108.978515625 c 0
 1402.00097656 49.5205078125 1353.79980469 1.3193359375 1294.34082031 1.3193359375 c 0
 1234.88183594 1.3193359375 1186.68066406 49.5205078125 1186.68066406 108.978515625 c 0
1186.68066406 399.66015625 m 0
 1186.68066406 459.119140625 1234.88183594 507.3203125 1294.34082031 507.3203125 c 0
 1353.79980469 507.3203125 1402.00097656 459.119140625 1402.00097656 399.66015625 c 0
 1402.00097656 340.201171875 1353.79980469 292 1294.34082031 292 c 0
 1234.88183594 292 1186.68066406 340.201171875 1186.68066406 399.66015625 c 0
1186.68066406 690.340820312 m 0
 1186.68066406 749.799804688 1234.88183594 798 1294.34082031 798 c 0
 1353.79980469 798 1402.00097656 749.799804688 1402.00097656 690.340820312 c 0
 1402.00097656 630.881835938 1353.79980469 582.680664062 1294.34082031 582.680664062 c 0
 1234.88183594 582.680664062 1186.68066406 630.881835938 1186.68066406 690.340820312 c 0
EndSplineSet
Validated: 1
EndChar

StartChar: obreve
Encoding: 264 335 105
Width: 1532
Flags: HW
HStem: 1.31934 215.319<173.245 302.074 463.926 592.756 873.347 1002.18 1164.03 1292.86> 292 215.32<173.245 302.074 463.926 592.756 873.347 1002.18 1164.03 1292.86> 582.681 215.319<173.245 302.074 463.926 592.756 873.347 1002.18 1164.03 1292.86>
VStem: 130 215.319<44.5645 173.393 335.245 464.075 625.926 754.755> 420.681 215.32<44.5645 173.393 335.245 464.075 625.926 754.755> 830.103 215.319<44.5645 173.393 335.245 464.075 625.926 754.755> 1120.78 215.32<44.5645 173.393 335.245 464.075 625.926 754.755>
LayerCount: 3
Fore
SplineSet
130 108.978515625 m 0
 130 168.4375 178.200195312 216.638671875 237.659179688 216.638671875 c 0
 297.118164062 216.638671875 345.319335938 168.4375 345.319335938 108.978515625 c 0
 345.319335938 49.5205078125 297.118164062 1.3193359375 237.659179688 1.3193359375 c 0
 178.200195312 1.3193359375 130 49.5205078125 130 108.978515625 c 0
130 399.66015625 m 0
 130 459.119140625 178.200195312 507.3203125 237.659179688 507.3203125 c 0
 297.118164062 507.3203125 345.319335938 459.119140625 345.319335938 399.66015625 c 0
 345.319335938 340.201171875 297.118164062 292 237.659179688 292 c 0
 178.200195312 292 130 340.201171875 130 399.66015625 c 0
130 690.340820312 m 0
 130 749.799804688 178.200195312 798 237.659179688 798 c 0
 297.118164062 798 345.319335938 749.799804688 345.319335938 690.340820312 c 0
 345.319335938 630.881835938 297.118164062 582.680664062 237.659179688 582.680664062 c 0
 178.200195312 582.680664062 130 630.881835938 130 690.340820312 c 0
420.680664062 108.978515625 m 0
 420.680664062 168.4375 468.881835938 216.638671875 528.340820312 216.638671875 c 0
 587.799804688 216.638671875 636.000976562 168.4375 636.000976562 108.978515625 c 0
 636.000976562 49.5205078125 587.799804688 1.3193359375 528.340820312 1.3193359375 c 0
 468.881835938 1.3193359375 420.680664062 49.5205078125 420.680664062 108.978515625 c 0
420.680664062 399.66015625 m 0
 420.680664062 459.119140625 468.881835938 507.3203125 528.340820312 507.3203125 c 0
 587.799804688 507.3203125 636.000976562 459.119140625 636.000976562 399.66015625 c 0
 636.000976562 340.201171875 587.799804688 292 528.340820312 292 c 0
 468.881835938 292 420.680664062 340.201171875 420.680664062 399.66015625 c 0
420.680664062 690.340820312 m 0
 420.680664062 749.799804688 468.881835938 798 528.340820312 798 c 0
 587.799804688 798 636.000976562 749.799804688 636.000976562 690.340820312 c 0
 636.000976562 630.881835938 587.799804688 582.680664062 528.340820312 582.680664062 c 0
 468.881835938 582.680664062 420.680664062 630.881835938 420.680664062 690.340820312 c 0
896 108.978515625 m 4
 896 168.4375 944.200195312 216.638671875 1003.65917969 216.638671875 c 4
 1063.11816406 216.638671875 1111.31933594 168.4375 1111.31933594 108.978515625 c 4
 1111.31933594 49.5205078125 1063.11816406 1.3193359375 1003.65917969 1.3193359375 c 4
 944.200195312 1.3193359375 896 49.5205078125 896 108.978515625 c 4
896 399.66015625 m 4
 896 459.119140625 944.200195312 507.3203125 1003.65917969 507.3203125 c 4
 1063.11816406 507.3203125 1111.31933594 459.119140625 1111.31933594 399.66015625 c 4
 1111.31933594 340.201171875 1063.11816406 292 1003.65917969 292 c 4
 944.200195312 292 896 340.201171875 896 399.66015625 c 4
896 690.340820312 m 4
 896 749.799804688 944.200195312 798 1003.65917969 798 c 4
 1063.11816406 798 1111.31933594 749.799804688 1111.31933594 690.340820312 c 4
 1111.31933594 630.881835938 1063.11816406 582.680664062 1003.65917969 582.680664062 c 4
 944.200195312 582.680664062 896 630.881835938 896 690.340820312 c 4
1186.68066406 108.978515625 m 4
 1186.68066406 168.4375 1234.88183594 216.638671875 1294.34082031 216.638671875 c 4
 1353.79980469 216.638671875 1402.00097656 168.4375 1402.00097656 108.978515625 c 4
 1402.00097656 49.5205078125 1353.79980469 1.3193359375 1294.34082031 1.3193359375 c 4
 1234.88183594 1.3193359375 1186.68066406 49.5205078125 1186.68066406 108.978515625 c 4
1186.68066406 399.66015625 m 4
 1186.68066406 459.119140625 1234.88183594 507.3203125 1294.34082031 507.3203125 c 4
 1353.79980469 507.3203125 1402.00097656 459.119140625 1402.00097656 399.66015625 c 4
 1402.00097656 340.201171875 1353.79980469 292 1294.34082031 292 c 4
 1234.88183594 292 1186.68066406 340.201171875 1186.68066406 399.66015625 c 4
1186.68066406 690.340820312 m 4
 1186.68066406 749.799804688 1234.88183594 798 1294.34082031 798 c 4
 1353.79980469 798 1402.00097656 749.799804688 1402.00097656 690.340820312 c 4
 1402.00097656 630.881835938 1353.79980469 582.680664062 1294.34082031 582.680664062 c 4
 1234.88183594 582.680664062 1186.68066406 630.881835938 1186.68066406 690.340820312 c 4
EndSplineSet
Validated: 1
EndChar

StartChar: Obreve
Encoding: 265 334 106
Width: 766
Flags: HW
HStem: 1.31934 215.319<173.245 302.074 463.926 592.756> 292 215.32<173.245 302.074 463.926 592.756> 582.681 215.319<173.245 302.074 463.926 592.756>
VStem: 130 215.319<44.5645 173.393 335.245 464.075 625.926 754.755> 420.681 215.32<44.5645 173.393 335.245 464.075 625.926 754.755>
LayerCount: 3
Fore
SplineSet
130 108.978515625 m 0
 130 168.4375 178.200195312 216.638671875 237.659179688 216.638671875 c 0
 297.118164062 216.638671875 345.319335938 168.4375 345.319335938 108.978515625 c 0
 345.319335938 49.5205078125 297.118164062 1.3193359375 237.659179688 1.3193359375 c 0
 178.200195312 1.3193359375 130 49.5205078125 130 108.978515625 c 0
130 399.66015625 m 0
 130 459.119140625 178.200195312 507.3203125 237.659179688 507.3203125 c 0
 297.118164062 507.3203125 345.319335938 459.119140625 345.319335938 399.66015625 c 0
 345.319335938 340.201171875 297.118164062 292 237.659179688 292 c 0
 178.200195312 292 130 340.201171875 130 399.66015625 c 0
130 690.340820312 m 0
 130 749.799804688 178.200195312 798 237.659179688 798 c 0
 297.118164062 798 345.319335938 749.799804688 345.319335938 690.340820312 c 0
 345.319335938 630.881835938 297.118164062 582.680664062 237.659179688 582.680664062 c 0
 178.200195312 582.680664062 130 630.881835938 130 690.340820312 c 0
420.680664062 108.978515625 m 0
 420.680664062 168.4375 468.881835938 216.638671875 528.340820312 216.638671875 c 0
 587.799804688 216.638671875 636.000976562 168.4375 636.000976562 108.978515625 c 0
 636.000976562 49.5205078125 587.799804688 1.3193359375 528.340820312 1.3193359375 c 0
 468.881835938 1.3193359375 420.680664062 49.5205078125 420.680664062 108.978515625 c 0
420.680664062 399.66015625 m 0
 420.680664062 459.119140625 468.881835938 507.3203125 528.340820312 507.3203125 c 0
 587.799804688 507.3203125 636.000976562 459.119140625 636.000976562 399.66015625 c 0
 636.000976562 340.201171875 587.799804688 292 528.340820312 292 c 0
 468.881835938 292 420.680664062 340.201171875 420.680664062 399.66015625 c 0
420.680664062 690.340820312 m 0
 420.680664062 749.799804688 468.881835938 798 528.340820312 798 c 0
 587.799804688 798 636.000976562 749.799804688 636.000976562 690.340820312 c 0
 636.000976562 630.881835938 587.799804688 582.680664062 528.340820312 582.680664062 c 0
 468.881835938 582.680664062 420.680664062 630.881835938 420.680664062 690.340820312 c 0
EndSplineSet
Validated: 1
EndChar

StartChar: OE
Encoding: 266 338 107
Width: 3830
Flags: HW
HStem: 1.31934 215.319<173.245 302.074 463.926 592.756 873.347 1002.18 1164.03 1292.86 1573.9 1702.73 1864.59 1993.41 2274.24 2403.07 2564.93 2693.76 2974.35 3103.18 3265.03 3393.86> 292 215.32<173.245 302.074 463.926 592.756 873.347 1002.18 1164.03 1292.86 1573.9 1702.73 1864.59 1993.41 2274.24 2403.07 2564.93 2693.76 2974.35 3103.18 3265.03 3393.86> 582.681 215.319<173.245 302.074 463.926 592.756 873.347 1002.18 1164.03 1292.86 1573.9 1702.73 1864.59 1993.41 2274.24 2403.07 2564.93 2693.76 2974.35 3103.18 3265.03 3393.86>
VStem: 130 215.319<44.5645 173.393 335.245 464.075 625.926 754.755> 420.681 215.32<44.5645 173.393 335.245 464.075 625.926 754.755> 830.103 215.319<44.5645 173.393 335.245 464.075 625.926 754.755> 1120.78 215.32<44.5645 173.393 335.245 464.075 625.926 754.755> 1530.66 215.319<44.5645 173.393 335.245 464.075 625.926 754.755> 1821.34 215.32<44.5645 173.393 335.245 464.075 625.926 754.755> 2231 215.319<44.5645 173.393 335.245 464.075 625.926 754.755> 2521.68 215.32<44.5645 173.393 335.245 464.075 625.926 754.755> 2931.1 215.319<44.5645 173.393 335.245 464.075 625.926 754.755> 3221.78 215.32<44.5645 173.393 335.245 464.075 625.926 754.755>
LayerCount: 3
Fore
SplineSet
2428 108.978515625 m 0
 2428 168.4375 2476.20019531 216.638671875 2535.65917969 216.638671875 c 0
 2595.11816406 216.638671875 2643.31933594 168.4375 2643.31933594 108.978515625 c 0
 2643.31933594 49.5205078125 2595.11816406 1.3193359375 2535.65917969 1.3193359375 c 0
 2476.20019531 1.3193359375 2428 49.5205078125 2428 108.978515625 c 0
2428 399.66015625 m 0
 2428 459.119140625 2476.20019531 507.3203125 2535.65917969 507.3203125 c 0
 2595.11816406 507.3203125 2643.31933594 459.119140625 2643.31933594 399.66015625 c 0
 2643.31933594 340.201171875 2595.11816406 292 2535.65917969 292 c 0
 2476.20019531 292 2428 340.201171875 2428 399.66015625 c 0
2428 690.340820312 m 0
 2428 749.799804688 2476.20019531 798 2535.65917969 798 c 0
 2595.11816406 798 2643.31933594 749.799804688 2643.31933594 690.340820312 c 0
 2643.31933594 630.881835938 2595.11816406 582.680664062 2535.65917969 582.680664062 c 0
 2476.20019531 582.680664062 2428 630.881835938 2428 690.340820312 c 0
2718.68066406 108.978515625 m 0
 2718.68066406 168.4375 2766.88183594 216.638671875 2826.34082031 216.638671875 c 0
 2885.79980469 216.638671875 2934.00097656 168.4375 2934.00097656 108.978515625 c 0
 2934.00097656 49.5205078125 2885.79980469 1.3193359375 2826.34082031 1.3193359375 c 0
 2766.88183594 1.3193359375 2718.68066406 49.5205078125 2718.68066406 108.978515625 c 0
2718.68066406 399.66015625 m 0
 2718.68066406 459.119140625 2766.88183594 507.3203125 2826.34082031 507.3203125 c 0
 2885.79980469 507.3203125 2934.00097656 459.119140625 2934.00097656 399.66015625 c 0
 2934.00097656 340.201171875 2885.79980469 292 2826.34082031 292 c 0
 2766.88183594 292 2718.68066406 340.201171875 2718.68066406 399.66015625 c 0
2718.68066406 690.340820312 m 0
 2718.68066406 749.799804688 2766.88183594 798 2826.34082031 798 c 0
 2885.79980469 798 2934.00097656 749.799804688 2934.00097656 690.340820312 c 0
 2934.00097656 630.881835938 2885.79980469 582.680664062 2826.34082031 582.680664062 c 0
 2766.88183594 582.680664062 2718.68066406 630.881835938 2718.68066406 690.340820312 c 0
3194 108.978515625 m 4
 3194 168.4375 3242.20019531 216.638671875 3301.65917969 216.638671875 c 4
 3361.11816406 216.638671875 3409.31933594 168.4375 3409.31933594 108.978515625 c 4
 3409.31933594 49.5205078125 3361.11816406 1.3193359375 3301.65917969 1.3193359375 c 4
 3242.20019531 1.3193359375 3194 49.5205078125 3194 108.978515625 c 4
3194 399.66015625 m 4
 3194 459.119140625 3242.20019531 507.3203125 3301.65917969 507.3203125 c 4
 3361.11816406 507.3203125 3409.31933594 459.119140625 3409.31933594 399.66015625 c 4
 3409.31933594 340.201171875 3361.11816406 292 3301.65917969 292 c 4
 3242.20019531 292 3194 340.201171875 3194 399.66015625 c 4
3194 690.340820312 m 4
 3194 749.799804688 3242.20019531 798 3301.65917969 798 c 4
 3361.11816406 798 3409.31933594 749.799804688 3409.31933594 690.340820312 c 4
 3409.31933594 630.881835938 3361.11816406 582.680664062 3301.65917969 582.680664062 c 4
 3242.20019531 582.680664062 3194 630.881835938 3194 690.340820312 c 4
3484.68066406 108.978515625 m 4
 3484.68066406 168.4375 3532.88183594 216.638671875 3592.34082031 216.638671875 c 4
 3651.79980469 216.638671875 3700.00097656 168.4375 3700.00097656 108.978515625 c 4
 3700.00097656 49.5205078125 3651.79980469 1.3193359375 3592.34082031 1.3193359375 c 4
 3532.88183594 1.3193359375 3484.68066406 49.5205078125 3484.68066406 108.978515625 c 4
3484.68066406 399.66015625 m 4
 3484.68066406 459.119140625 3532.88183594 507.3203125 3592.34082031 507.3203125 c 4
 3651.79980469 507.3203125 3700.00097656 459.119140625 3700.00097656 399.66015625 c 4
 3700.00097656 340.201171875 3651.79980469 292 3592.34082031 292 c 4
 3532.88183594 292 3484.68066406 340.201171875 3484.68066406 399.66015625 c 4
3484.68066406 690.340820312 m 4
 3484.68066406 749.799804688 3532.88183594 798 3592.34082031 798 c 4
 3651.79980469 798 3700.00097656 749.799804688 3700.00097656 690.340820312 c 4
 3700.00097656 630.881835938 3651.79980469 582.680664062 3592.34082031 582.680664062 c 4
 3532.88183594 582.680664062 3484.68066406 630.881835938 3484.68066406 690.340820312 c 4
1662 108.978515625 m 0
 1662 168.4375 1710.20019531 216.638671875 1769.65917969 216.638671875 c 0
 1829.11816406 216.638671875 1877.31933594 168.4375 1877.31933594 108.978515625 c 0
 1877.31933594 49.5205078125 1829.11816406 1.3193359375 1769.65917969 1.3193359375 c 0
 1710.20019531 1.3193359375 1662 49.5205078125 1662 108.978515625 c 0
1662 399.66015625 m 0
 1662 459.119140625 1710.20019531 507.3203125 1769.65917969 507.3203125 c 0
 1829.11816406 507.3203125 1877.31933594 459.119140625 1877.31933594 399.66015625 c 0
 1877.31933594 340.201171875 1829.11816406 292 1769.65917969 292 c 0
 1710.20019531 292 1662 340.201171875 1662 399.66015625 c 0
1662 690.340820312 m 0
 1662 749.799804688 1710.20019531 798 1769.65917969 798 c 0
 1829.11816406 798 1877.31933594 749.799804688 1877.31933594 690.340820312 c 0
 1877.31933594 630.881835938 1829.11816406 582.680664062 1769.65917969 582.680664062 c 0
 1710.20019531 582.680664062 1662 630.881835938 1662 690.340820312 c 0
1952.68066406 108.978515625 m 0
 1952.68066406 168.4375 2000.88183594 216.638671875 2060.34082031 216.638671875 c 0
 2119.79980469 216.638671875 2168.00097656 168.4375 2168.00097656 108.978515625 c 0
 2168.00097656 49.5205078125 2119.79980469 1.3193359375 2060.34082031 1.3193359375 c 0
 2000.88183594 1.3193359375 1952.68066406 49.5205078125 1952.68066406 108.978515625 c 0
1952.68066406 399.66015625 m 0
 1952.68066406 459.119140625 2000.88183594 507.3203125 2060.34082031 507.3203125 c 0
 2119.79980469 507.3203125 2168.00097656 459.119140625 2168.00097656 399.66015625 c 0
 2168.00097656 340.201171875 2119.79980469 292 2060.34082031 292 c 0
 2000.88183594 292 1952.68066406 340.201171875 1952.68066406 399.66015625 c 0
1952.68066406 690.340820312 m 0
 1952.68066406 749.799804688 2000.88183594 798 2060.34082031 798 c 0
 2119.79980469 798 2168.00097656 749.799804688 2168.00097656 690.340820312 c 0
 2168.00097656 630.881835938 2119.79980469 582.680664062 2060.34082031 582.680664062 c 0
 2000.88183594 582.680664062 1952.68066406 630.881835938 1952.68066406 690.340820312 c 0
130 108.978515625 m 0
 130 168.4375 178.200195312 216.638671875 237.659179688 216.638671875 c 0
 297.118164062 216.638671875 345.319335938 168.4375 345.319335938 108.978515625 c 0
 345.319335938 49.5205078125 297.118164062 1.3193359375 237.659179688 1.3193359375 c 0
 178.200195312 1.3193359375 130 49.5205078125 130 108.978515625 c 0
130 399.66015625 m 0
 130 459.119140625 178.200195312 507.3203125 237.659179688 507.3203125 c 0
 297.118164062 507.3203125 345.319335938 459.119140625 345.319335938 399.66015625 c 0
 345.319335938 340.201171875 297.118164062 292 237.659179688 292 c 0
 178.200195312 292 130 340.201171875 130 399.66015625 c 0
130 690.340820312 m 0
 130 749.799804688 178.200195312 798 237.659179688 798 c 0
 297.118164062 798 345.319335938 749.799804688 345.319335938 690.340820312 c 0
 345.319335938 630.881835938 297.118164062 582.680664062 237.659179688 582.680664062 c 0
 178.200195312 582.680664062 130 630.881835938 130 690.340820312 c 0
420.680664062 108.978515625 m 0
 420.680664062 168.4375 468.881835938 216.638671875 528.340820312 216.638671875 c 0
 587.799804688 216.638671875 636.000976562 168.4375 636.000976562 108.978515625 c 0
 636.000976562 49.5205078125 587.799804688 1.3193359375 528.340820312 1.3193359375 c 0
 468.881835938 1.3193359375 420.680664062 49.5205078125 420.680664062 108.978515625 c 0
420.680664062 399.66015625 m 0
 420.680664062 459.119140625 468.881835938 507.3203125 528.340820312 507.3203125 c 0
 587.799804688 507.3203125 636.000976562 459.119140625 636.000976562 399.66015625 c 0
 636.000976562 340.201171875 587.799804688 292 528.340820312 292 c 0
 468.881835938 292 420.680664062 340.201171875 420.680664062 399.66015625 c 0
420.680664062 690.340820312 m 0
 420.680664062 749.799804688 468.881835938 798 528.340820312 798 c 0
 587.799804688 798 636.000976562 749.799804688 636.000976562 690.340820312 c 0
 636.000976562 630.881835938 587.799804688 582.680664062 528.340820312 582.680664062 c 0
 468.881835938 582.680664062 420.680664062 630.881835938 420.680664062 690.340820312 c 0
896 108.978515625 m 0
 896 168.4375 944.200195312 216.638671875 1003.65917969 216.638671875 c 0
 1063.11816406 216.638671875 1111.31933594 168.4375 1111.31933594 108.978515625 c 0
 1111.31933594 49.5205078125 1063.11816406 1.3193359375 1003.65917969 1.3193359375 c 0
 944.200195312 1.3193359375 896 49.5205078125 896 108.978515625 c 0
896 399.66015625 m 0
 896 459.119140625 944.200195312 507.3203125 1003.65917969 507.3203125 c 0
 1063.11816406 507.3203125 1111.31933594 459.119140625 1111.31933594 399.66015625 c 0
 1111.31933594 340.201171875 1063.11816406 292 1003.65917969 292 c 0
 944.200195312 292 896 340.201171875 896 399.66015625 c 0
896 690.340820312 m 0
 896 749.799804688 944.200195312 798 1003.65917969 798 c 0
 1063.11816406 798 1111.31933594 749.799804688 1111.31933594 690.340820312 c 0
 1111.31933594 630.881835938 1063.11816406 582.680664062 1003.65917969 582.680664062 c 0
 944.200195312 582.680664062 896 630.881835938 896 690.340820312 c 0
1186.68066406 108.978515625 m 0
 1186.68066406 168.4375 1234.88183594 216.638671875 1294.34082031 216.638671875 c 0
 1353.79980469 216.638671875 1402.00097656 168.4375 1402.00097656 108.978515625 c 0
 1402.00097656 49.5205078125 1353.79980469 1.3193359375 1294.34082031 1.3193359375 c 0
 1234.88183594 1.3193359375 1186.68066406 49.5205078125 1186.68066406 108.978515625 c 0
1186.68066406 399.66015625 m 0
 1186.68066406 459.119140625 1234.88183594 507.3203125 1294.34082031 507.3203125 c 0
 1353.79980469 507.3203125 1402.00097656 459.119140625 1402.00097656 399.66015625 c 0
 1402.00097656 340.201171875 1353.79980469 292 1294.34082031 292 c 0
 1234.88183594 292 1186.68066406 340.201171875 1186.68066406 399.66015625 c 0
1186.68066406 690.340820312 m 0
 1186.68066406 749.799804688 1234.88183594 798 1294.34082031 798 c 0
 1353.79980469 798 1402.00097656 749.799804688 1402.00097656 690.340820312 c 0
 1402.00097656 630.881835938 1353.79980469 582.680664062 1294.34082031 582.680664062 c 0
 1234.88183594 582.680664062 1186.68066406 630.881835938 1186.68066406 690.340820312 c 0
EndSplineSet
Validated: 1
EndChar

